<?xml version="1.0" encoding="utf-8"?>
<!-- Generator: Adobe Illustrator 18.1.0, SVG Export Plug-In . SVG Version: 6.00 Build 0)  -->
<svg version="1.1" id="Слой_1" xmlns="http://www.w3.org/2000/svg" xmlns:xlink="http://www.w3.org/1999/xlink" x="0px" y="0px"
	 viewBox="0 0 520.208 442.794" enable-background="new 0 0 520.208 442.794" xml:space="preserve">
<g>
	<path d="M490.856,138.475H337.249V29.358c0-16.188-13.17-29.359-29.359-29.359H29.352C13.167-0.001,0,13.17,0,29.358v196.095
		c0,16.185,13.167,29.352,29.352,29.352h9.302v35.836c0,5.182,2.863,9.851,7.433,12.167c4.503,2.314,10.105,1.895,14.221-1.041
		l65.607-46.969h57.058v109.12c0,16.185,13.164,29.356,29.346,29.356h181.976l65.62,46.975c2.333,1.666,5.084,2.545,7.959,2.545
		c2.133,0,4.278-0.511,6.261-1.514c4.583-2.355,7.426-7.02,7.426-12.174v-35.833h9.295c16.185,0,29.352-13.17,29.352-29.356V167.827
		C520.208,151.642,507.041,138.475,490.856,138.475z M454.182,379.593v22.888l-47.15-33.741c-2.406-1.857-5.29-2.84-8.343-2.84
		H212.318c-1.089,0-1.974-0.889-1.974-1.98V167.827c0-1.089,0.885-1.974,1.974-1.974h278.538c1.092,0,1.977,0.885,1.977,1.974
		v196.092c0,1.092-0.885,1.98-1.977,1.98h-22.983C460.323,365.899,454.182,372.043,454.182,379.593z M113.56,229.979l-47.527,34.03
		v-22.888c0-7.55-6.141-13.694-13.688-13.694H29.359c-1.089,0-1.974-0.885-1.974-1.974V29.358c0-1.092,0.885-1.98,1.974-1.98
		h278.538c1.095,0,1.987,0.889,1.987,1.98v109.117h-45.272c2.279-3.626,3.619-7.901,3.619-12.491
		c0-12.996-10.571-23.567-23.567-23.567s-23.567,10.571-23.567,23.567c0,4.591,1.34,8.865,3.619,12.491h-12.39
		c-16.185,0-29.352,13.167-29.352,29.352v59.6h-61.45C118.647,227.427,115.896,228.309,113.56,229.979z"/>
	<path d="M89.888,102.417c-12.996,0-23.567,10.571-23.567,23.567s10.571,23.567,23.567,23.567s23.567-10.571,23.567-23.567
		S102.884,102.417,89.888,102.417z"/>
	<path d="M166.793,149.551c12.996,0,23.567-10.571,23.567-23.567s-10.571-23.567-23.567-23.567s-23.567,10.571-23.567,23.567
		S153.798,149.551,166.793,149.551z"/>
	<path d="M275.548,239.122c-12.996,0-23.567,10.571-23.567,23.567c0,12.996,10.571,23.567,23.567,23.567
		c12.996,0,23.567-10.571,23.567-23.567C299.115,249.693,288.544,239.122,275.548,239.122z"/>
	<path d="M352.454,239.122c-12.996,0-23.567,10.571-23.567,23.567c0,12.996,10.571,23.567,23.567,23.567
		c12.996,0,23.567-10.571,23.567-23.567C376.021,249.693,365.449,239.122,352.454,239.122z"/>
	<path d="M430.323,239.122c-12.996,0-23.567,10.571-23.567,23.567c0,12.996,10.571,23.567,23.567,23.567
		c12.996,0,23.567-10.571,23.567-23.567C453.89,249.693,443.319,239.122,430.323,239.122z"/>
</g>
</svg>
