<?xml version="1.0" encoding="utf-8"?>
<!-- Generator: Adobe Illustrator 18.1.0, SVG Export Plug-In . SVG Version: 6.00 Build 0)  -->
<svg version="1.1" id="Слой_1" xmlns="http://www.w3.org/2000/svg" xmlns:xlink="http://www.w3.org/1999/xlink" x="0px" y="0px"
	 viewBox="0 0 841.89 595.28" enable-background="new 0 0 841.89 595.28" xml:space="preserve">
<g>
	
		<linearGradient id="SVGID_1_" gradientUnits="userSpaceOnUse" x1="209.159" y1="259.451" x2="209.159" y2="630.0051" gradientTransform="matrix(1.35 0 0 -1.35 3.051758e-005 896.9645)">
		<stop  offset="0.0722" style="stop-color:#C20B19"/>
		<stop  offset="0.2821" style="stop-color:#C31A1A"/>
		<stop  offset="0.5225" style="stop-color:#C52E1B"/>
		<stop  offset="0.7769" style="stop-color:#C9451D"/>
		<stop  offset="0.9072" style="stop-color:#CC541F"/>
	</linearGradient>
	<path fill="url(#SVGID_1_)" d="M340.668,356.107c-28.254-52.228-83.051-75.345-83.051-75.345s1.713-9.418,47.091,19.693
		c33.035,21.191,65.113,47.408,85.762,81.886c11.788-25.823,18.409-54.5,18.409-84.74c0-111.793-89.783-202.561-201.17-204.267
		c-61.786,47.183-72.645,132.569-9.169,177.153c71.92,50.516,81.339,100.174,57.366,155.828
		c-14.666,34.047-50.795,59.434-76.642,74.019c8.286,1.023,16.708,1.611,25.271,1.611c4.595,0,9.14-0.207,13.658-0.505
		c39.957-28.65,63.456-65.96,74.53-105.95c15.412-55.653-64.214-115.586-64.214-115.586s3.425-5.994,16.268,1.713
		c12.843,7.706,87.332,63.358,85.62,125.861c-0.767,27.998-10.639,49.956-21.306,65.691c18.773-11.204,35.573-25.345,49.822-41.77
		C357.51,406.713,352.863,378.648,340.668,356.107z"/>
	
		<linearGradient id="SVGID_2_" gradientUnits="userSpaceOnUse" x1="89.8101" y1="271.248" x2="89.8101" y2="622.235" gradientTransform="matrix(1.35 0 0 -1.35 3.051758e-005 896.9645)">
		<stop  offset="0.0722" style="stop-color:#C20B19"/>
		<stop  offset="0.2821" style="stop-color:#C31A1A"/>
		<stop  offset="0.5225" style="stop-color:#C52E1B"/>
		<stop  offset="0.7769" style="stop-color:#C9451D"/>
		<stop  offset="0.9072" style="stop-color:#CC541F"/>
	</linearGradient>
	<path fill="url(#SVGID_2_)" d="M238.782,374.943c23.973-76.201-81.339-101.888-111.305-170.384
		c-17.277-39.492,1.303-77.814,20.139-103.212c-13.946,4.038-27.292,9.48-39.836,16.237
		c-33.299,107.371,59.08,152.903,59.08,152.903c3.425,0.856-8.562,0-8.562,0c-73.177-32.804-92.88-89.727-98.194-117.444
		c-7.002,6.996-13.497,14.499-19.429,22.447c28.167,58.446,100.5,96.71,100.5,96.71l-10.275,0.856
		c-41.702-13.901-80.594-46.35-106.537-71.908C8.949,229.88,0.188,262.713,0.188,297.6c0,87.048,54.452,161.336,131.135,190.783
		C169.578,464.172,223.734,422.775,238.782,374.943z"/>
</g>
<g>
	<path fill="#FFFFFF" d="M635.994,154.666l19.234,4.663c-2.037,4.76-4.128,9.323-6.267,13.694h47.067v17.778h-56.534
		c-3.594,6.02-7.336,11.509-11.22,16.462h56.826v16.902c-20.885,15.833-35.069,28.461-42.547,37.884
		c-3.594,3.983-5.44,7.722-5.536,11.217c0,3.982,3.933,5.975,11.802,5.975h13.989c9.42,0,14.422-3.888,15.004-11.657
		c1.17-7.868,1.943-14.279,2.334-19.234c7.282,2.72,13.501,4.71,18.65,5.972c-1.265,9.522-2.916,17.923-4.953,25.209
		c-2.72,10.878-11.856,16.316-27.394,16.316h-17.778c-20.006,0-30.013-7.43-30.013-22.293c0-5.729,2.091-11.46,6.267-17.192
		c6.314-8.838,17.244-19.281,32.782-31.327h-36.28v-17.773h4.23c-3.302-3.012-6.658-5.874-10.056-8.595v53.179h-18.942v8.744h19.524
		v17.484h-19.524v21.128h-18.942v-21.128h-22.001v-17.484h22.001v-8.744h-18.937v-60.756h18.937v-8.452H555.57v-17.484h22.144
		v-9.908h18.942v9.908h21.858v17.484h-21.858v8.452h18.942C622.302,180.89,629.097,168.749,635.994,154.666z M599.571,205.952
		h-24.769v8.74h24.769V205.952z M599.571,237.131v-8.886h-24.769v8.886H599.571z"/>
	<path fill="#FFFFFF" d="M705.928,283.755l-3.789-21.707c5.441-1.458,10.786-2.866,16.031-4.225v-50.996h-14.428V188.47h14.428
		v-32.931h18.645v32.931h13.989v18.357h-13.989v45.896c5.15-1.458,10.103-2.913,14.868-4.371
		c-0.589,9.809-0.778,16.658-0.589,20.543C735.651,273.848,720.593,278.801,705.928,283.755z M788.978,298.617v-37.444h-16.465
		v6.994h-17.771v-90.626h34.238v-22.584h18.36v22.583h34.238v90.336h-17.771v-6.703h-16.465v37.444H788.978z M772.513,211.343
		h16.465v-16.902h-16.465V211.343z M772.513,244.271h16.465v-16.902h-16.465V244.271z M823.803,194.442h-16.465v16.902h16.465
		V194.442z M807.338,244.271h16.465v-16.902h-16.465V244.271z"/>
</g>
<g>
	<path fill="#FFFFFF" d="M571.514,442.754c-0.629-4.08-1.381-7.972-2.26-11.675c-1.631,5.177-3.642,9.729-6.025,13.651
		c-2.824-5.65-5.396-10.263-7.718-13.84c1.976-4.08,3.561-8.536,4.752-13.368c1.193-4.832,1.968-9.611,2.33-14.334
		c0.36-4.721,0.575-13.279,0.637-25.676h-6.589v-11.3h12.331c-1.474-4.015-3.043-7.845-4.705-11.483l12.895-3.861
		c2.763,5.837,4.709,10.323,5.837,13.464l-5.883,1.881h14.734v7.108c5.085-7.123,9.445-14.576,13.087-22.356l11.86,1.881
		c-0.91,2.23-1.835,4.394-2.774,6.498h34.408v11.483h-40.103c-2.134,3.926-4.363,7.564-6.685,10.923
		c13.62-1.162,26.455-3.297,38.506-6.402l5.554,11.015c-5.964,1.16-11.862,2.195-17.7,3.105c0.533,5.085,1.428,9.806,2.686,14.17
		c3.826-2.855,7.514-5.823,11.061-8.897l7.718,9.038c-4.486,3.389-9.399,6.824-14.734,10.309
		c3.673,7.372,8.774,13.445,15.298,18.214c-3.578,3.14-7.123,6.433-10.635,9.886c-6.025-5.365-10.827-11.81-14.403-19.324
		c-3.58-7.514-6.091-18.162-7.534-31.94l-6.778,0.802v34.269c5.086-2.134,9.445-4.049,13.087-5.746
		c0,4.394,0.188,8.693,0.564,12.899c-11.925,4.644-19.489,8.286-22.69,10.919l-7.343-10.259c2.699-1.57,4.08-3.922,4.142-7.062
		v-40.859c-3.17-2.855-6.417-5.65-9.744-8.378h-13.978l-0.096,10.355h18.077c0,6.589-0.127,14.388-0.377,23.396l-0.377,12.097
		c0,5.208-0.668,9.28-2.003,12.216c-1.331,2.932-3.097,4.863-5.292,5.787C582.447,442.29,578.068,442.754,571.514,442.754z
		 M569.583,429.951l6.356,0.284c2.476,0,3.88-1.72,4.211-5.154c0.329-3.438,0.622-12.201,0.871-26.29h-6.681
		C573.77,410.872,572.185,421.258,569.583,429.951z"/>
	<path fill="#FFFFFF" d="M677.328,375.628l11.015,7.062c-2.763,4.049-5.773,8.018-9.038,11.91v48.815h-13.083v-34.691
		c-2.89,2.79-5.902,5.538-9.038,8.236c-1.255-3.515-2.982-7.876-5.177-13.087C661.67,395.524,670.11,386.109,677.328,375.628z
		 M675.825,351.154c4.015,2.759,7.78,5.458,11.296,8.095c-6.589,7.657-15.344,15.846-26.267,24.57
		c-2.322-3.511-5.112-7.216-8.378-11.107C663.021,364.679,670.801,357.49,675.825,351.154z M689.665,384.762h56.203v12.239H731.18
		v30.312c0,5.021-1.17,8.857-3.507,11.51c-2.337,2.651-5.646,4.117-9.932,4.402c-4.284,0.281-10.627,0.468-19.04,0.564
		c-0.879-4.142-2.039-8.536-3.48-13.18c6.525,0.437,11.671,0.656,15.44,0.656c4.579,0,6.87-2.414,6.87-7.245v-27.019h-27.864
		v-12.239H689.665z M692.768,357.836h48.953v12.239h-48.953V357.836z"/>
	<path fill="#FFFFFF" d="M768.837,350.966c2.699,3.262,5.742,7.403,9.13,12.423l-9.648,5.181h14.262v10.446
		c-2.603,5.746-5.615,11.223-9.034,16.43v4.049l5.177-4.567c3.638,3.262,7.626,7.154,11.956,11.675l-9.319,7.622
		c-2.92-3.796-5.527-7.027-7.814-9.694v39.446h-12.803V411.78c-2.672,2.855-5.492,5.615-8.474,8.282
		c-1.32-6.025-2.576-11.138-3.765-15.344c8.347-7.281,14.749-15.186,19.205-23.722H749.82v-12.427h15.958
		c-2.982-4.801-5.665-8.82-8.049-12.052L768.837,350.966z M780.7,428.634h25.043v-38.506h-18.829v-12.239h18.829v-25.515h13.555
		v25.515h19.393v12.239h-19.393v38.506h22.781v12.235h-61.381v-12.235H780.7z"/>
</g>
</svg>
