<?xml version="1.0" encoding="utf-8"?>
<!-- Generator: Adobe Illustrator 18.1.0, SVG Export Plug-In . SVG Version: 6.00 Build 0)  -->
<svg version="1.1" id="Слой_1" xmlns="http://www.w3.org/2000/svg" xmlns:xlink="http://www.w3.org/1999/xlink" x="0px" y="0px"
	 viewBox="277.039 0 287.813 595.28" enable-background="new 277.039 0 287.813 595.28" xml:space="preserve">
<g>
	<linearGradient id="SVGID_1_" gradientUnits="userSpaceOnUse" x1="475.7571" y1="319.6879" x2="475.7571" y2="-32.6033">
		<stop  offset="0.0722" style="stop-color:#C10B19"/>
		<stop  offset="0.2534" style="stop-color:#C21019"/>
		<stop  offset="0.4609" style="stop-color:#C31E1B"/>
		<stop  offset="0.6814" style="stop-color:#C6351C"/>
		<stop  offset="0.9072" style="stop-color:#CA541F"/>
	</linearGradient>
	<path fill="url(#SVGID_1_)" d="M516.816,185.463c-19.898-36.781-58.487-53.061-58.487-53.061s1.206-6.633,33.163,13.868
		c23.264,14.924,45.855,33.387,60.396,57.667c8.302-18.185,12.964-38.38,12.964-59.676c0-78.727-63.228-142.65-141.67-143.85
		c-43.512,33.228-51.159,93.359-6.457,124.756c50.649,35.575,57.281,70.546,40.398,109.739
		c-10.329,23.977-35.772,41.855-53.974,52.127c5.835,0.72,11.766,1.135,17.796,1.135c3.236,0,6.436-0.145,9.619-0.355
		c28.14-20.176,44.688-46.451,52.486-74.613c10.853-39.192-45.222-81.4-45.222-81.4s2.412-4.221,11.456,1.206
		c9.044,5.427,61.502,44.619,60.296,88.635c-0.54,19.717-7.493,35.18-15.004,46.262c13.221-7.89,25.052-17.848,35.086-29.416
		C528.675,221.102,525.403,201.337,516.816,185.463z"/>
	<linearGradient id="SVGID_2_" gradientUnits="userSpaceOnUse" x1="362.2898" y1="308.4723" x2="362.2898" y2="-25.2161">
		<stop  offset="0.0722" style="stop-color:#C10B19"/>
		<stop  offset="0.2534" style="stop-color:#C21019"/>
		<stop  offset="0.4609" style="stop-color:#C31E1B"/>
		<stop  offset="0.6814" style="stop-color:#C6351C"/>
		<stop  offset="0.9072" style="stop-color:#CA541F"/>
	</linearGradient>
	<path fill="url(#SVGID_2_)" d="M445.064,198.728c16.883-53.663-57.281-71.752-78.385-119.989
		c-12.168-27.812,0.918-54.799,14.183-72.685c-9.821,2.844-19.22,6.676-28.054,11.435c-23.449,75.613,41.608,107.678,41.608,107.678
		c2.412,0.603-6.03,0-6.03,0c-51.534-23.101-65.41-63.189-69.151-82.708c-4.931,4.927-9.505,10.21-13.683,15.807
		c19.836,41.159,70.775,68.106,70.775,68.106l-7.236,0.603c-29.368-9.789-56.757-32.641-75.026-50.64
		c-10.855,20.234-17.026,43.356-17.026,67.925c0,61.302,38.347,113.618,92.349,134.355
		C396.328,261.566,434.466,232.413,445.064,198.728z"/>
</g>
<g>
	<g>
		<path fill="#1E1B31" d="M376.718,391.283l13.544,3.284c-1.435,3.353-2.907,6.565-4.413,9.644h33.146v12.52h-39.814
			c-2.531,4.239-5.166,8.105-7.902,11.593h40.018v11.903c-14.707,11.15-24.696,20.043-29.963,26.679
			c-2.531,2.805-3.832,5.438-3.899,7.9c0,2.805,2.769,4.208,8.312,4.208h9.851c6.634,0,10.156-2.738,10.566-8.209
			c0.824-5.54,1.368-10.056,1.644-13.544c5.128,1.916,9.508,3.317,13.135,4.206c-0.891,6.705-2.054,12.622-3.489,17.753
			c-1.916,7.661-8.349,11.491-19.292,11.491h-12.52c-14.088,0-21.137-5.233-21.137-15.699c0-4.034,1.472-8.071,4.413-12.108
			c4.446-6.224,12.143-13.578,23.086-22.061h-25.55v-12.518h2.978c-2.326-2.121-4.689-4.137-7.082-6.053v37.45h-13.34v6.157h13.749
			v12.313h-13.749v14.879h-13.339V478.19h-15.494v-12.313h15.494v-6.157H322.34v-42.785h13.335v-5.952h-15.594V398.67h15.594v-6.977
			h13.339v6.977h15.393v12.313h-15.393v5.952h13.34C367.077,409.751,371.862,401.201,376.718,391.283z M351.068,427.401h-17.443
			v6.155h17.443V427.401z M351.068,449.357v-6.258h-17.443v6.258H351.068z"/>
		<path fill="#1E1B31" d="M425.969,482.191l-2.669-15.287c3.832-1.027,7.596-2.018,11.29-2.976v-35.913h-10.16v-12.927h10.16v-23.19
			h13.13v23.19h9.851v12.927h-9.851v32.322c3.627-1.027,7.115-2.052,10.47-3.079c-0.414,6.908-0.548,11.731-0.414,14.467
			C446.9,475.214,436.297,478.703,425.969,482.191z M484.455,492.657v-26.369H472.86v4.925h-12.515v-63.822h24.111v-15.904h12.93
			v15.904h24.111v63.617H508.98v-4.72h-11.595v26.369H484.455z M472.86,431.197h11.595v-11.903H472.86V431.197z M472.86,454.385
			h11.595v-11.903H472.86V454.385z M508.98,419.294h-11.595v11.903h11.595V419.294z M497.385,454.385h11.595v-11.903h-11.595
			V454.385z"/>
	</g>
	<g>
		<path fill="#C6362E" d="M331.31,594.163c-0.443-2.873-0.973-5.614-1.592-8.222c-1.149,3.646-2.565,6.852-4.243,9.614
			c-1.989-3.979-3.8-7.227-5.435-9.746c1.392-2.873,2.508-6.011,3.346-9.414c0.841-3.403,1.387-6.768,1.641-10.095
			c0.254-3.324,0.405-9.352,0.449-18.082h-4.641v-7.957h8.684c-1.038-2.827-2.143-5.525-3.314-8.087l9.081-2.719
			c1.946,4.111,3.316,7.271,4.111,9.481l-4.143,1.324h10.376v5.006c3.581-5.016,6.652-10.265,9.217-15.744l8.352,1.324
			c-0.641,1.57-1.292,3.095-1.954,4.576h24.231v8.087h-28.241c-1.503,2.765-3.073,5.327-4.708,7.692
			c9.592-0.819,18.63-2.322,27.117-4.508l3.911,7.757c-4.2,0.816-8.354,1.546-12.465,2.187c0.376,3.581,1.005,6.906,1.892,9.979
			c2.695-2.011,5.292-4.1,7.789-6.265l5.435,6.365c-3.16,2.387-6.619,4.806-10.376,7.26c2.587,5.192,6.179,9.468,10.773,12.827
			c-2.519,2.211-5.016,4.53-7.489,6.962c-4.243-3.779-7.625-8.317-10.144-13.609c-2.522-5.292-4.289-12.79-5.306-22.493
			l-4.773,0.565v24.133c3.581-1.503,6.652-2.851,9.217-4.046c0,3.095,0.132,6.122,0.397,9.084
			c-8.398,3.27-13.725,5.835-15.979,7.689l-5.17-7.225c1.9-1.105,2.873-2.762,2.916-4.973v-28.774
			c-2.233-2.011-4.519-3.978-6.862-5.9h-9.844l-0.068,7.292h12.73c0,4.641-0.089,10.133-0.265,16.476l-0.265,8.519
			c0,3.668-0.47,6.535-1.411,8.603c-0.938,2.065-2.181,3.424-3.727,4.076C339.01,593.836,335.926,594.163,331.31,594.163z
			 M329.95,585.146l4.476,0.2c1.743,0,2.733-1.211,2.965-3.63c0.232-2.422,0.438-8.592,0.614-18.514h-4.706
			C332.899,571.711,331.783,579.025,329.95,585.146z"/>
		<path fill="#C6362E" d="M405.828,546.891l7.757,4.973c-1.946,2.851-4.065,5.646-6.365,8.387v34.377h-9.214v-24.431
			c-2.035,1.965-4.157,3.9-6.365,5.8c-0.884-2.476-2.1-5.546-3.646-9.217C394.801,560.902,400.744,554.272,405.828,546.891z
			 M404.769,529.655c2.827,1.943,5.479,3.843,7.954,5.7c-4.641,5.392-10.806,11.16-18.498,17.303c-1.635-2.473-3.6-5.081-5.9-7.822
			C395.752,539.18,401.231,534.118,404.769,529.655z M414.515,553.324h39.58v8.619h-10.344v21.347c0,3.535-0.824,6.238-2.47,8.106
			c-1.646,1.868-3.976,2.9-6.995,3.1c-3.016,0.197-7.484,0.33-13.409,0.397c-0.619-2.916-1.435-6.011-2.451-9.281
			c4.595,0.308,8.219,0.462,10.873,0.462c3.224,0,4.838-1.7,4.838-5.103v-19.028h-19.622V553.324z M416.702,534.361h34.474v8.619
			h-34.474V534.361z"/>
		<path fill="#C6362E" d="M470.271,529.523c1.9,2.297,4.043,5.214,6.43,8.749l-6.795,3.649h10.044v7.357
			c-1.832,4.046-3.954,7.903-6.362,11.571v2.851l3.646-3.216c2.562,2.297,5.37,5.038,8.419,8.222l-6.562,5.368
			c-2.057-2.673-3.892-4.949-5.503-6.827v27.779h-9.017v-22.674c-1.881,2.011-3.868,3.954-5.968,5.833
			c-0.93-4.243-1.814-7.844-2.651-10.806c5.879-5.127,10.387-10.695,13.525-16.706h-12.598v-8.752h11.238
			c-2.1-3.381-3.989-6.211-5.668-8.487L470.271,529.523z M478.625,584.219h17.636v-27.117h-13.26v-8.619h13.26v-17.968h9.546v17.968
			h13.657v8.619h-13.657v27.117h16.044v8.616h-43.226V584.219z"/>
	</g>
</g>
</svg>
