<?xml version="1.0" encoding="utf-8"?>
<!-- Generator: Adobe Illustrator 18.1.0, SVG Export Plug-In . SVG Version: 6.00 Build 0)  -->
<svg version="1.1" id="Слой_1" xmlns="http://www.w3.org/2000/svg" xmlns:xlink="http://www.w3.org/1999/xlink" x="0px" y="0px"
	 viewBox="0 0 302.734 302.675" enable-background="new 0 0 302.734 302.675" xml:space="preserve">
<g>
	<linearGradient id="SVGID_1_" gradientUnits="userSpaceOnUse" x1="209.0208" y1="335.829" x2="209.0208" y2="-34.7251">
		<stop  offset="0.0722" style="stop-color:#C20B19"/>
		<stop  offset="0.2821" style="stop-color:#C31A1A"/>
		<stop  offset="0.5225" style="stop-color:#C52E1B"/>
		<stop  offset="0.7769" style="stop-color:#C9451D"/>
		<stop  offset="0.9072" style="stop-color:#CC541F"/>
	</linearGradient>
	<path fill="url(#SVGID_1_)" d="M252.208,194.646c-20.929-38.687-61.519-55.811-61.519-55.811s1.269-6.976,34.882,14.587
		c24.47,15.697,48.232,35.117,63.527,60.656c8.732-19.128,13.636-40.37,13.636-62.77C302.734,68.499,236.228,1.263,153.72,0
		c-45.767,34.95-53.811,98.199-6.792,131.224c53.274,37.419,60.251,74.203,42.493,115.428
		c-10.864,25.22-37.626,44.025-56.772,54.829c6.138,0.758,12.376,1.193,18.719,1.193c3.404,0,6.77-0.153,10.117-0.374
		c29.598-21.222,47.004-48.859,55.207-78.481c11.416-41.224-47.566-85.619-47.566-85.619s2.537-4.44,12.05,1.269
		c9.513,5.708,64.69,46.932,63.422,93.23c-0.568,20.739-7.881,37.004-15.782,48.66c13.906-8.299,26.35-18.774,36.905-30.941
		C264.682,232.132,261.241,211.343,252.208,194.646z"/>
	<linearGradient id="SVGID_2_" gradientUnits="userSpaceOnUse" x1="89.6713" y1="324.032" x2="89.6713" y2="-26.955">
		<stop  offset="0.0722" style="stop-color:#C20B19"/>
		<stop  offset="0.2821" style="stop-color:#C31A1A"/>
		<stop  offset="0.5225" style="stop-color:#C52E1B"/>
		<stop  offset="0.7769" style="stop-color:#C9451D"/>
		<stop  offset="0.9072" style="stop-color:#CC541F"/>
	</linearGradient>
	<path fill="url(#SVGID_2_)" d="M176.736,208.599c17.758-56.445-60.251-75.472-82.448-126.21
		c-12.798-29.253,0.965-57.64,14.918-76.453c-10.33,2.991-20.216,7.022-29.508,12.027c-24.665,79.533,43.765,113.26,43.765,113.26
		c2.537,0.634-6.342,0-6.342,0c-54.205-24.299-68.8-66.464-72.736-86.995c-5.187,5.182-9.998,10.74-14.392,16.627
		c20.864,43.293,74.444,71.637,74.444,71.637l-7.611,0.634c-30.89-10.297-59.699-34.333-78.916-53.265
		C6.491,101.145,0,125.466,0,151.308c0,64.48,40.335,119.508,97.137,141.32C125.474,274.694,165.589,244.03,176.736,208.599z"/>
</g>
</svg>
