<?xml version="1.0" encoding="utf-8"?>
<!-- Generator: Adobe Illustrator 18.1.0, SVG Export Plug-In . SVG Version: 6.00 Build 0)  -->
<svg version="1.1" id="Слой_1" xmlns="http://www.w3.org/2000/svg" xmlns:xlink="http://www.w3.org/1999/xlink" x="0px" y="0px"
	 viewBox="0 0 593.802 595.28" enable-background="new 0 0 593.802 595.28" xml:space="preserve">
<g>
	<path d="M575.535,68.19c-8.587-1.967-17.269-3.517-25.912-5.239c-16.278-3.244-32.558-6.48-48.838-9.714
		c-14.31-2.843-28.62-5.683-42.931-8.516c-12.413-2.457-24.831-4.891-37.242-7.359c-13.681-2.721-27.355-5.476-41.034-8.204
		c-15.66-3.123-31.322-6.235-46.984-9.349c-14.256-2.834-28.512-5.664-42.768-8.495c-14.998-2.979-29.994-5.964-44.994-8.932
		c-4.312-0.853-8.615-2.211-12.957-2.368c-9.868-0.357-18.69,5.713-22.241,14.938c-1.985,5.159-3.824,10.375-5.72,15.568
		c-9.717,26.619-19.433,53.239-29.147,79.86c-13.182,36.122-26.368,72.243-39.542,108.368
		c-12.314,33.768-24.599,67.547-36.943,101.304c-1.494,4.086-1.896,8.192-1.107,12.44c1.938,10.429,10.463,17.848,21.53,18.743
		c9.701,0.785,19.416-5.784,22.842-15.363c3.427-9.582,6.901-19.147,10.394-28.705c12.422-33.996,24.865-67.984,37.291-101.979
		c11.519-31.514,23.025-63.033,34.54-94.549c7.094-19.417,14.19-38.833,21.294-58.247c1.103-3.013,1.116-2.961,4.358-2.303
		c18.581,3.768,37.163,7.538,55.753,11.262c26.178,5.244,52.367,10.434,78.545,15.677c18.658,3.737,37.305,7.535,55.96,11.288
		c14.312,2.88,28.628,5.735,42.943,8.599c16.111,3.223,32.224,6.441,48.335,9.667c2.998,0.6,5.99,1.229,9.148,1.879
		c-1.439,4.625-2.755,9.008-4.164,13.361c-8.379,25.887-16.597,51.828-25.216,77.635c-11.47,34.346-22.96,68.69-34.99,102.842
		c-13.088,37.153-26.685,74.129-40.295,111.095c-7.517,20.415-15.787,40.542-25.075,60.229c-7.133,15.119-14.829,29.93-24.888,43.37
		c-5.864,7.835-12.522,14.913-20.788,20.268c-14.764,9.565-31.031,12.163-48.2,9.792c-16.884-2.332-29.152-11.556-37.462-26.177
		c-8.122-14.291-11.099-30.018-12.078-46.181c-0.378-6.233-0.106-12.508-0.041-18.764c0.013-1.248-0.282-1.836-1.523-2.331
		c-15.877-6.341-31.724-12.757-47.576-19.162c-27.051-10.93-54.098-21.867-81.149-32.798c-19.061-7.702-38.124-15.399-57.185-23.1
		c-24.429-9.87-48.857-19.742-73.29-29.602c-0.314-0.127-0.685-0.112-1.144-0.18c-0.064,0.565-0.066,1.005-0.168,1.421
		c-2.805,11.427-4.303,23.046-4.76,34.781c-0.503,12.925,0.681,25.696,4.008,38.251c7.377,27.839,23.577,49.036,48.241,63.676
		c5.969,3.543,12.557,6.054,18.903,8.947c17.005,7.752,34.031,15.46,51.053,23.175c20.913,9.478,41.834,18.94,62.747,28.42
		c20.514,9.299,40.99,18.682,61.546,27.886c9.349,4.186,18.751,8.291,28.311,11.959c9.772,3.749,19.951,6.171,30.404,7.146
		c4.946,0.461,9.924,0.627,14.892,0.789c1.208,0.039,2.428-0.647,3.653-0.689c9.795-0.33,19.461-1.582,29.001-3.829
		c25.861-6.09,47.223-19.445,64.301-39.746c10.812-12.852,19.679-26.98,27.441-41.827c13.67-26.146,24.556-53.506,34.778-81.116
		c14.163-38.251,28.213-76.551,41.707-115.042c13.771-39.282,26.97-78.766,40.121-118.262
		c10.674-32.056,20.918-64.255,31.328-96.398C596.935,84.76,589.458,71.38,575.535,68.19z"/>
	<path d="M299.388,243.486c-11.895,0.927-21.274,10.923-20.97,23.5c0.236,9.769,6.361,17.882,15.635,21.105
		c5.527,1.921,11.102,3.7,16.662,5.526c28.039,9.208,56.079,18.415,84.122,27.613c15.003,4.921,30.42-6.155,30.386-21.816
		c-0.023-10.399-6.438-19.021-16.632-22.306c-33.729-10.867-67.452-21.753-101.211-32.529
		C304.846,243.77,302.015,243.281,299.388,243.486z"/>
	<path d="M368.359,369.187c-32.901-10.555-65.745-21.288-98.61-31.953c-3.477-1.128-7.061-1.523-10.634-0.779
		c-15.004,3.123-22.835,19.865-15.617,33.376c3.342,6.256,8.804,9.685,15.457,11.864c31.397,10.286,62.729,20.77,94.105,31.122
		c3.503,1.156,7.134,1.926,10.093,2.712c2.682-0.425,4.628-0.623,6.523-1.052c15.363-3.48,22.58-22.656,13.436-35.428
		C379.399,373.866,374.317,371.099,368.359,369.187z"/>
	<path d="M359.915,200.705c22.624,6.312,45.246,12.631,67.882,18.899c4.888,1.353,9.832,2.503,14.75,3.747
		c0.046-0.132,0.092-0.263,0.138-0.395c1.435-0.174,2.88-0.286,4.303-0.531c10.713-1.842,18.174-11.209,18.851-20.836
		c0.857-12.181-7.118-21.54-17.251-24.296c-15.572-4.236-31.164-8.402-46.735-12.642c-18.42-5.016-36.827-10.077-55.24-15.121
		c-3.263-0.894-6.522-1.129-9.885-0.444c-10.432,2.124-17.934,10.839-18.348,22.049c-0.375,10.141,6.151,19.303,15.975,22.34
		C342.812,196.09,351.386,198.326,359.915,200.705z"/>
	<path d="M288.066,132.516c-5.376-4.082-11.809-5.023-18.935-5.628c-1.867,0.159-4.335,0.19-6.736,0.607
		c-10.21,1.773-17.634,10.299-18.598,19.971c-1.246,12.495,6.45,21.192,15.088,24.264c2.508,0.892,5.268,1.067,7.907,1.601
		c4.284,0.867,8.578,1.588,12.916,0.422c9.284-2.494,15.372-8.415,17.391-17.76C299.166,146.425,295.859,138.433,288.066,132.516z"
		/>
	<path d="M217.394,230.336c-8.701,9.422-7.262,25.333,2.9,33.146c6.314,4.855,13.945,5.35,20.473,6.798
		c7.374-0.242,12.943-2.515,17.577-7.226c10.546-10.721,7.683-29.072-5.586-36.148c-3.899-2.079-8.173-2.329-12.273-3.431
		C231.348,221.018,223.725,223.479,217.394,230.336z"/>
	<path d="M193.246,311.354c-8.855,2.175-14.936,7.579-17.376,16.385c-2.527,9.12-0.121,17.186,6.989,23.469
		c6.429,5.681,14.639,7.257,22.718,7.22c12.787-0.059,22.094-10.173,22.323-23.177c-0.088-7.274-3.176-13.33-9.031-18.052
		c-4.158-3.353-9.185-4.192-14.205-5.191C200.868,311.253,197.084,310.412,193.246,311.354z"/>
</g>
</svg>
