<?xml version="1.0" encoding="utf-8"?>
<!-- Generator: Adobe Illustrator 18.1.0, SVG Export Plug-In . SVG Version: 6.00 Build 0)  -->
<svg version="1.1" id="Слой_1" xmlns="http://www.w3.org/2000/svg" xmlns:xlink="http://www.w3.org/1999/xlink" x="0px" y="0px"
	 viewBox="0 0 452.01 623.62" enable-background="new 0 0 452.01 623.62" xml:space="preserve">
<path d="M443.32,483.889l-22.488-40.826c-18.631-33.823-61.153-46.137-94.974-27.508c-84.308,46.439-102.955,20.975-121.586-12.847
	l-66.694-121.081c-18.631-33.822-32.553-61.891,54.118-109.631c33.822-18.631,46.137-61.152,27.506-94.973l-22.49-40.826
	C178.083,2.374,135.562-9.941,101.74,8.689L37.523,44.063C14.326,56.84-5.517,82.523,1.395,108.088
	c70.788,261.828,87.72,292.564,276.779,502.468c17.722,19.677,50.226,16.458,73.421,3.681l64.217-35.374
	C449.635,560.231,461.951,517.711,443.32,483.889z"/>
</svg>
