<?xml version="1.0" encoding="utf-8"?>
<!-- Generator: Adobe Illustrator 18.1.0, SVG Export Plug-In . SVG Version: 6.00 Build 0)  -->
<svg version="1.1" id="Слой_1" xmlns="http://www.w3.org/2000/svg" xmlns:xlink="http://www.w3.org/1999/xlink" x="0px" y="0px"
	 viewBox="0 0 595.28 471.382" enable-background="new 0 0 595.28 471.382" xml:space="preserve">
<path fill="#C7362E" d="M239.949,182.046c-10.363,0-19.058-7.14-21.434-16.769c-0.784-3.177-3.787-5.307-7.059-5.307h-0.36
	c-4.823,0-8.313,4.563-7.117,9.236c4.105,16.037,18.653,27.892,35.97,27.892s31.864-11.855,35.97-27.892
	c1.196-4.673-2.294-9.236-7.117-9.236h-0.36c-3.272,0-6.276,2.13-7.059,5.307C259.007,174.906,250.312,182.046,239.949,182.046
	L239.949,182.046z"/>
<g>
	<g>
		<path fill="#C7362E" d="M192.305,143.21c-19.252,0-34.914-15.662-34.914-34.914s15.662-34.914,34.914-34.914
			s34.914,15.662,34.914,34.914S211.557,143.21,192.305,143.21z M192.305,86.212c-12.176,0-22.084,9.906-22.084,22.084
			s9.908,22.084,22.084,22.084c12.176,0,22.084-9.906,22.084-22.084S204.481,86.212,192.305,86.212z"/>
	</g>
	<g>
		<path fill="#C7362E" d="M287.594,143.21c-19.252,0-34.914-15.662-34.914-34.914s15.662-34.914,34.914-34.914
			s34.914,15.662,34.914,34.914S306.846,143.21,287.594,143.21z M287.594,86.212c-12.176,0-22.084,9.906-22.084,22.084
			s9.908,22.084,22.084,22.084s22.084-9.906,22.084-22.084S299.77,86.212,287.594,86.212z"/>
	</g>
	<g>
		<path fill="#C7362E" d="M287.593,96.47l-0.002,0v0c0,1.021,0.166,4.769,0.166,5.913c0,3.265-2.648,5.913-5.914,5.913
			c-2.471,0-4.582-1.517-5.467-3.669c-0.388,1.154-0.611,2.382-0.611,3.669c0,6.531,5.295,11.826,11.827,11.826
			c6.532,0,11.827-5.295,11.827-11.826C299.42,101.765,294.125,96.47,287.593,96.47z"/>
	</g>
	<g>
		<path fill="#C7362E" d="M192.306,96.47l-0.002,0v0c0,1.082,0.002,4.83,0.002,5.913c0,3.265-2.648,5.913-5.914,5.913
			c-2.383,0-4.423-1.417-5.36-3.447c-0.343,1.091-0.554,2.241-0.554,3.448c0,6.531,5.295,11.826,11.827,11.826
			c6.532,0,11.824-5.295,11.824-11.826C204.13,101.765,198.838,96.47,192.306,96.47z"/>
	</g>
</g>
<g>
	<path fill="#C7362E" d="M239.951,235.773c-65.004,0-117.888-52.884-117.888-117.887S174.946,0,239.951,0
		c65.001,0,117.885,52.884,117.885,117.887S304.952,235.773,239.951,235.773z M239.951,13.095
		c-57.782,0-104.793,47.009-104.793,104.791s47.011,104.791,104.793,104.791S344.74,175.669,344.74,117.887
		S297.733,13.095,239.951,13.095z"/>
</g>
<path fill="#C7362E" d="M432.071,348.038c-7.328-7.328-8.427-18.525-3.299-27.014c1.692-2.801,1.074-6.43-1.239-8.744l-0.254-0.254
	c-3.411-3.411-9.105-2.652-11.563,1.498c-8.437,14.243-6.533,32.912,5.712,45.157c12.245,12.245,30.914,14.149,45.157,5.712
	c4.15-2.458,4.909-8.152,1.498-11.563l-0.254-0.254c-2.314-2.314-5.944-2.931-8.744-1.239
	C450.596,356.465,439.398,355.365,432.071,348.038L432.071,348.038z"/>
<g>
	<g>
		<path fill="#C7362E" d="M425.842,286.887c-13.613-13.613-13.613-35.763,0-49.376c13.613-13.613,35.763-13.613,49.376,0
			s13.613,35.763,0,49.376C461.605,300.5,439.456,300.5,425.842,286.887z M466.146,246.583c-8.61-8.61-22.62-8.611-31.231,0
			c-8.611,8.611-8.61,22.622,0,31.231c8.61,8.61,22.62,8.611,31.231,0C474.757,269.204,474.756,255.193,466.146,246.583z"/>
	</g>
	<g>
		<path fill="#C7362E" d="M493.222,354.266c-13.613-13.613-13.613-35.763,0-49.376c13.613-13.613,35.763-13.613,49.376,0
			s13.613,35.763,0,49.376C528.985,367.88,506.835,367.88,493.222,354.266z M533.526,313.963c-8.61-8.61-22.62-8.611-31.231,0
			c-8.611,8.611-8.61,22.622,0,31.231c8.61,8.61,22.62,8.611,31.231,0C542.136,336.583,542.135,322.572,533.526,313.963z"/>
	</g>
	<g>
		<path fill="#C7362E" d="M526.271,321.216l-0.001-0.001l0,0c-0.722,0.722-3.255,3.489-4.064,4.298
			c-2.309,2.309-6.053,2.309-8.363-0.001c-1.747-1.747-2.167-4.313-1.271-6.46c-1.09,0.541-2.117,1.252-3.027,2.163
			c-4.618,4.618-4.618,12.106,0.001,16.725c4.619,4.619,12.107,4.619,16.725,0.001C530.891,333.323,530.891,325.835,526.271,321.216
			z"/>
	</g>
	<g>
		<path fill="#C7362E" d="M458.893,253.838l-0.001-0.001l0,0c-0.765,0.765-3.414,3.416-4.18,4.182
			c-2.309,2.309-6.053,2.309-8.363-0.001c-1.685-1.685-2.126-4.13-1.352-6.228c-1.014,0.529-1.976,1.193-2.83,2.047
			c-4.618,4.618-4.618,12.106,0.001,16.725c4.619,4.619,12.105,4.617,16.723-0.001C463.51,265.942,463.513,258.457,458.893,253.838z
			"/>
	</g>
</g>
<g>
	<path fill="#C7362E" d="M394.081,386.029c-45.965-45.965-45.965-120.754-0.001-166.718s120.753-45.964,166.718,0.001
		c45.963,45.963,45.963,120.752-0.001,166.716C514.833,431.992,440.044,431.992,394.081,386.029z M551.538,228.573
		c-40.858-40.858-107.34-40.859-148.198-0.001s-40.857,107.34,0.001,148.198s107.338,40.857,148.196-0.001
		S592.396,269.431,551.538,228.573z"/>
</g>
<path fill="#C7362E" d="M163.049,398.917c7.328-7.328,8.427-18.525,3.299-27.014c-1.692-2.801-1.074-6.43,1.239-8.744l0.254-0.254
	c3.411-3.411,9.105-2.652,11.563,1.498c8.437,14.243,6.533,32.912-5.712,45.157c-12.245,12.245-30.914,14.149-45.157,5.712
	c-4.15-2.458-4.909-8.152-1.498-11.563l0.254-0.254c2.314-2.314,5.944-2.931,8.744-1.239
	C144.524,407.344,155.722,406.244,163.049,398.917L163.049,398.917z"/>
<g>
	<g>
		<path fill="#C7362E" d="M119.901,337.766c-13.613-13.613-13.613-35.763,0-49.376c13.613-13.613,35.763-13.613,49.376,0
			c13.613,13.613,13.613,35.763,0,49.376C155.664,351.379,133.515,351.379,119.901,337.766z M128.974,328.693
			c8.611,8.611,22.622,8.61,31.231,0c8.61-8.61,8.611-22.62,0-31.231c-8.611-8.611-22.622-8.61-31.231,0
			C120.364,306.072,120.363,320.083,128.974,328.693z"/>
	</g>
	<g>
		<path fill="#C7362E" d="M52.522,405.145c-13.613-13.613-13.613-35.763,0-49.376c13.613-13.613,35.763-13.613,49.376,0
			c13.613,13.613,13.613,35.763,0,49.376S66.135,418.759,52.522,405.145z M61.594,396.073c8.611,8.611,22.622,8.61,31.231,0
			c8.61-8.61,8.611-22.62,0-31.231c-8.611-8.611-22.622-8.61-31.231,0C52.985,373.451,52.984,387.462,61.594,396.073z"/>
	</g>
	<g>
		<path fill="#C7362E" d="M68.849,372.095l0.001-0.001l0,0c0.722,0.722,3.255,3.489,4.064,4.298
			c2.309,2.309,6.053,2.309,8.363-0.001c1.747-1.747,2.167-4.313,1.271-6.46c1.09,0.541,2.117,1.252,3.027,2.163
			c4.618,4.618,4.618,12.106-0.001,16.725c-4.619,4.619-12.107,4.619-16.725,0.001C64.229,384.202,64.229,376.714,68.849,372.095z"
			/>
	</g>
	<g>
		<path fill="#C7362E" d="M136.227,304.717l0.001-0.001l0,0c0.765,0.765,3.414,3.416,4.18,4.182
			c2.309,2.309,6.053,2.309,8.363-0.001c1.685-1.685,2.126-4.13,1.352-6.228c1.014,0.529,1.976,1.193,2.83,2.047
			c4.618,4.618,4.618,12.106-0.001,16.725s-12.105,4.617-16.723-0.001C131.61,316.821,131.607,309.336,136.227,304.717z"/>
	</g>
</g>
<g>
	<path fill="#C7362E" d="M34.323,436.907c-45.964-45.964-45.964-120.753-0.001-166.716c45.965-45.965,120.754-45.965,166.718-0.001
		s45.964,120.753-0.001,166.718C155.076,482.871,80.287,482.871,34.323,436.907z M43.583,427.647
		c40.858,40.858,107.338,40.859,148.196,0.001s40.859-107.34,0.001-148.198s-107.34-40.857-148.198,0.001
		S2.725,386.789,43.583,427.647z"/>
</g>
</svg>
