<?xml version="1.0" encoding="utf-8"?>
<!-- Generator: Adobe Illustrator 18.1.0, SVG Export Plug-In . SVG Version: 6.00 Build 0)  -->
<svg version="1.1" id="Слой_1" xmlns="http://www.w3.org/2000/svg" xmlns:xlink="http://www.w3.org/1999/xlink" x="0px" y="0px"
	 viewBox="0 0 335.509 367.554" enable-background="new 0 0 335.509 367.554" xml:space="preserve">
<polygon fill="#cb4e1e" points="54.521,72.231 72.413,64.573 90.309,72.231 88.552,52.847 101.356,38.196 82.386,33.869 
	72.413,17.153 62.436,33.869 53.033,36.013 43.623,38.38 56.274,52.847 "/>
<polygon fill="#cb4e1e" points="5.49,110.248 14.503,106.391 23.517,110.248 22.632,100.484 29.082,93.104 19.526,90.925 
	14.503,82.504 9.477,90.925 4.741,92.005 0,93.197 6.373,100.484 "/>
<polygon fill="#cb4e1e" points="262.941,110.248 271.954,106.391 280.968,110.248 280.083,100.484 286.533,93.104 276.977,90.925 
	271.954,82.504 266.928,90.925 262.192,92.005 257.451,93.197 263.824,100.484 "/>
<polygon fill="#cb4e1e" points="124.293,56.084 142.189,48.403 160.089,56.084 158.32,36.685 171.155,22.03 152.158,17.727 
	142.189,0.987 132.22,17.727 113.219,22.034 126.062,36.681 "/>
<polygon fill="#cb4e1e" points="196.005,69.724 213.921,62.008 231.832,69.72 230.04,50.293 242.91,35.642 223.886,31.347 
	213.917,14.583 203.96,31.347 184.935,35.642 197.802,50.293 "/>
<g>
	<path fill="#cb4e1e" d="M169.133,272.446c0-26.555,10.346-51.466,29.067-70.079c3.274-3.274,6.746-6.275,10.371-9.025v-26.876
		c0-3.237-2.632-5.869-5.865-5.869h-3.885c-3.237,0-5.869,2.632-5.869,5.869v29.275h-11.715v-29.275
		c0-9.692,7.888-17.583,17.583-17.583h3.885c9.692,0,17.58,7.892,17.58,17.583V185.7c7.383-4.105,15.241-7.249,23.433-9.333v-39.199
		h15.619v-11.714h-15.619h-19.528V94.219h7.833V82.504h-7.833H60.187h-7.833v11.714h7.833v31.235H40.663H25.043v11.714h15.619
		V355.84H13.329v11.714H118.76v-89.757h50.522C169.188,276.022,169.133,274.239,169.133,272.446z M103.144,324.601H91.43V295.33
		c0-3.233-2.632-5.865-5.869-5.865h-3.885c-3.237,0-5.869,2.632-5.869,5.865v29.271H64.092V295.33c0-9.692,7.888-17.58,17.584-17.58
		h3.885c9.696,0,17.583,7.888,17.583,17.58V324.601z M103.144,258.218H91.43v-29.271c0-3.233-2.632-5.865-5.869-5.865h-3.885
		c-3.237,0-5.869,2.632-5.869,5.865v29.271H64.092v-29.271c0-9.692,7.888-17.58,17.584-17.58h3.885
		c9.696,0,17.583,7.888,17.583,17.58V258.218z M103.144,195.741H91.43v-29.275c0-3.237-2.632-5.869-5.869-5.869h-3.885
		c-3.237,0-5.869,2.632-5.869,5.869v29.275H64.092v-29.275c0-9.692,7.888-17.583,17.584-17.583h3.885
		c9.696,0,17.583,7.892,17.583,17.583V195.741z M122.661,166.466c0-9.692,7.888-17.583,17.584-17.583h3.885
		c9.696,0,17.58,7.892,17.58,17.583v29.275h-11.711v-29.275c0-3.237-2.632-5.869-5.869-5.869h-3.885
		c-3.237,0-5.869,2.632-5.869,5.869v29.275h-11.715V166.466z M149.998,258.218v-29.271c0-3.233-2.632-5.865-5.869-5.865h-3.885
		c-3.237,0-5.869,2.632-5.869,5.865v29.271h-11.715v-29.271c0-9.692,7.888-17.58,17.584-17.58h3.885
		c9.696,0,17.58,7.888,17.58,17.58v29.271H149.998z"/>
	<path fill="#cb4e1e" d="M198.266,342.626c-16.736-16.639-26.751-38.238-28.743-61.544v86.473h52.785
		C220.217,363.639,198.266,342.626,198.266,342.626z"/>
</g>
<path fill="#cb4e1e" d="M315.795,224.895c-12.161-12.161-28.987-19.714-47.535-19.714c-18.546,0-35.372,7.552-47.535,19.714
	c-12.216,12.161-19.712,28.987-19.712,47.534c0,18.603,7.496,35.429,19.712,47.59c0.003,0.002,0.005,0.004,0.005,0.004l47.529,47.53
	l47.535-47.534c12.216-12.161,19.714-28.987,19.714-47.59C335.508,253.882,328.011,237.056,315.795,224.895z M245.503,249.671
	c5.823-5.822,13.878-9.438,22.757-9.438c8.88,0,16.936,3.616,22.758,9.438c5.849,5.823,9.438,13.878,9.438,22.758
	c0,8.906-3.589,16.962-9.438,22.784c-5.822,5.822-13.878,9.411-22.758,9.411c-8.879,0-16.934-3.589-22.757-9.411
	c-5.849-5.822-9.438-13.878-9.438-22.784C236.065,263.549,239.654,255.494,245.503,249.671z"/>
</svg>
