<?xml version="1.0" encoding="utf-8"?>
<!-- Generator: Adobe Illustrator 18.1.0, SVG Export Plug-In . SVG Version: 6.00 Build 0)  -->
<svg version="1.1" id="Слой_1" xmlns="http://www.w3.org/2000/svg" xmlns:xlink="http://www.w3.org/1999/xlink" x="0px" y="0px"
	 viewBox="0 0 314.79 187.013" enable-background="new 0 0 314.79 187.013" xml:space="preserve">
<g>
	<path d="M11.726,49.877c2.89,0,5.786-1.058,8.046-3.196l3.609-3.402C37.225,30.228,56.008,23.791,74.99,25.59
		c6.655,0.6,12.183-4.113,12.794-10.561c0.624-6.448-4.101-12.177-10.552-12.794C51.488-0.187,26.043,8.527,7.296,26.214
		l-3.609,3.402c-4.718,4.443-4.934,11.868-0.492,16.58C5.503,48.642,8.609,49.877,11.726,49.877z"/>
</g>
<g>
	<path d="M239.929,23.459l4.958,0.15c19.029,0.561,36.884,9.302,49.006,23.985c2.32,2.806,5.684,4.26,9.053,4.26
		c2.626,0,5.27-0.881,7.458-2.686c5-4.122,5.708-11.511,1.583-16.511c-16.427-19.896-40.625-31.74-66.399-32.495l-4.946-0.147
		c-6.199-0.315-11.895,4.889-12.087,11.367S233.46,23.264,239.929,23.459z"/>
</g>
<g>
	<path d="M75.766,187.013c-34.138,0-61.91-27.772-61.91-61.91s27.772-61.91,61.91-61.91s61.91,27.772,61.91,61.91
		S109.904,187.013,75.766,187.013z M75.766,85.944c-21.593,0-39.159,17.566-39.159,39.159s17.566,39.159,39.159,39.159
		s39.159-17.566,39.159-39.159S97.359,85.944,75.766,85.944z"/>
</g>
<g>
	<path d="M244.733,187.013c-34.138,0-61.91-27.772-61.91-61.91s27.772-61.91,61.91-61.91s61.91,27.772,61.91,61.91
		S278.87,187.013,244.733,187.013z M244.733,85.944c-21.593,0-39.159,17.566-39.159,39.159s17.566,39.159,39.159,39.159
		s39.159-17.566,39.159-39.159S266.326,85.944,244.733,85.944z"/>
</g>
<g>
	<path d="M244.732,104.133l-0.003,0v0c0,1.81,0.294,8.456,0.294,10.485c0,5.79-4.695,10.485-10.486,10.485
		c-4.381,0-8.125-2.691-9.694-6.505c-0.688,2.045-1.083,4.224-1.083,6.507c0,11.58,9.389,20.969,20.972,20.969
		s20.972-9.389,20.972-20.969C265.704,113.522,256.315,104.133,244.732,104.133z"/>
</g>
<g>
	<path d="M75.769,104.133l-0.003,0v0c0,1.919,0.003,8.565,0.003,10.485c0,5.79-4.695,10.485-10.486,10.485
		c-4.226,0-7.844-2.513-9.504-6.113c-0.609,1.934-0.982,3.974-0.982,6.114c0,11.58,9.389,20.969,20.972,20.969
		s20.966-9.389,20.966-20.969C96.735,113.522,87.352,104.133,75.769,104.133z"/>
</g>
</svg>
