<?xml version="1.0" encoding="utf-8"?>
<!-- Generator: Adobe Illustrator 18.1.0, SVG Export Plug-In . SVG Version: 6.00 Build 0)  -->
<svg version="1.1" id="Слой_1" xmlns="http://www.w3.org/2000/svg" xmlns:xlink="http://www.w3.org/1999/xlink" x="0px" y="0px"
	 viewBox="0 0 657.411 566.93" enable-background="new 0 0 657.411 566.93" xml:space="preserve">
<path fill="#C7362E" d="M222.44,206.303c-11.545,2.979-23.285-2.477-28.7-12.521c-1.787-3.314-5.745-4.824-9.391-3.883l-0.401,0.103
	c-5.374,1.387-7.95,7.473-5.274,12.335c9.184,16.687,28.8,25.713,48.093,20.735c19.293-4.978,32.093-22.368,32.057-41.415
	c-0.011-5.55-5.21-9.63-10.584-8.244l-0.401,0.103c-3.646,0.941-6.379,4.177-6.34,7.942
	C241.62,192.869,233.985,203.324,222.44,206.303L222.44,206.303z"/>
<g>
	<path fill="#C7362E" d="M158.194,176.731c-21.449,5.534-43.401-7.413-48.935-28.862c-5.534-21.449,7.413-43.401,28.862-48.935
		c21.449-5.534,43.401,7.413,48.935,28.862S179.643,171.196,158.194,176.731z M141.809,113.228
		c-13.565,3.5-21.756,17.385-18.256,30.952c3.501,13.567,17.387,21.756,30.952,18.256s21.756-17.385,18.256-30.952
		C169.261,117.917,155.375,109.728,141.809,113.228z"/>
</g>
<g>
	<path fill="#C7362E" d="M264.358,149.338c-21.449,5.534-43.401-7.413-48.935-28.862c-5.534-21.449,7.413-43.401,28.862-48.935
		c21.449-5.534,43.401,7.413,48.935,28.862S285.807,143.804,264.358,149.338z M247.973,85.836
		c-13.565,3.5-21.756,17.385-18.256,30.952s17.387,21.756,30.952,18.256c13.565-3.5,21.756-17.385,18.256-30.952
		S261.538,82.336,247.973,85.836z"/>
</g>
<g>
	<linearGradient id="SVGID_1_" gradientUnits="userSpaceOnUse" x1="240.7334" y1="110.4407" x2="267.9324" y2="110.4407">
		<stop  offset="0" style="stop-color:#C7362E"/>
		<stop  offset="1" style="stop-color:#E7B141"/>
	</linearGradient>
	<path fill="url(#SVGID_1_)" d="M250.921,97.265l-0.002,0.001l0,0c0.293,1.137,1.556,5.265,1.885,6.54
		c0.939,3.638-1.25,7.349-4.889,8.288c-2.753,0.71-5.541-0.373-7.145-2.516c-0.101,1.397,0.004,2.83,0.374,4.264
		c1.877,7.276,9.299,11.653,16.576,9.775c7.278-1.878,11.655-9.299,9.778-16.575C265.62,99.764,258.198,95.387,250.921,97.265z"/>
</g>
<g>
	<linearGradient id="SVGID_2_" gradientUnits="userSpaceOnUse" x1="134.5875" y1="137.8325" x2="161.7677" y2="137.8325">
		<stop  offset="0" style="stop-color:#C7362E"/>
		<stop  offset="1" style="stop-color:#E7B141"/>
	</linearGradient>
	<path fill="url(#SVGID_2_)" d="M144.76,124.656l-0.002,0.001l0,0c0.311,1.206,1.39,5.381,1.702,6.587
		c0.939,3.638-1.25,7.349-4.889,8.288c-2.655,0.685-5.336-0.307-6.962-2.3c-0.069,1.314,0.027,2.656,0.374,4.001
		c1.877,7.276,9.299,11.653,16.576,9.775c7.278-1.878,11.651-9.298,9.774-16.574C159.455,127.157,152.037,122.779,144.76,124.656z"
		/>
</g>
<g>
	<path fill="#C7362E" d="M237.886,266.16c-72.423,18.687-146.544-25.03-165.23-97.451S97.687,22.167,170.11,3.481
		c72.419-18.686,146.54,25.031,165.226,97.452C354.022,173.353,310.305,247.475,237.886,266.16z M173.874,18.071
		c-64.376,16.61-103.238,82.498-86.628,146.874s82.499,103.236,146.876,86.626s103.235-82.497,86.624-146.873
		C304.136,40.321,238.25,1.46,173.874,18.071z"/>
</g>
<path fill="#C7362E" d="M484.203,336.009c-10.27-6.057-14.714-18.216-11.44-29.148c1.08-3.607-0.651-7.473-3.894-9.386l-0.356-0.21
	c-4.78-2.819-10.906-0.337-12.452,4.993c-5.305,18.293,2.183,38.546,19.345,48.668c17.162,10.122,38.51,6.877,51.952-6.617
	c3.917-3.932,3.125-10.494-1.655-13.313l-0.356-0.21c-3.243-1.913-7.464-1.557-10.098,1.133
	C507.265,340.072,494.474,342.066,484.203,336.009L484.203,336.009z"/>
<g>
	<path fill="#C7362E" d="M459.685,269.67c-19.08-11.253-25.447-35.931-14.194-55.011c11.253-19.08,35.931-25.447,55.011-14.194
		c19.08,11.253,25.447,35.931,14.194,55.011C503.443,274.556,478.765,280.923,459.685,269.67z M493.003,213.181
		c-12.067-7.117-27.677-3.091-34.795,8.978c-7.118,12.069-3.089,27.678,8.978,34.795c12.067,7.117,27.677,3.091,34.795-8.978
		C509.099,235.907,505.07,220.298,493.003,213.181z"/>
</g>
<g>
	<path fill="#C7362E" d="M554.124,325.369c-19.08-11.253-25.447-35.931-14.194-55.011s35.931-25.447,55.011-14.194
		c19.08,11.253,25.447,35.931,14.194,55.011C597.881,330.255,573.204,336.623,554.124,325.369z M587.441,268.88
		c-12.067-7.117-27.677-3.091-34.795,8.978c-7.118,12.069-3.089,27.678,8.978,34.795c12.067,7.117,27.677,3.091,34.795-8.978
		C603.537,291.607,599.508,275.997,587.441,268.88z"/>
</g>
<g>
	<linearGradient id="SVGID_3_" gradientUnits="userSpaceOnUse" x1="560.9203" y1="291.7111" x2="588.1413" y2="291.7111">
		<stop  offset="0" style="stop-color:#C7362E"/>
		<stop  offset="1" style="stop-color:#E7B141"/>
	</linearGradient>
	<path fill="url(#SVGID_3_)" d="M581.444,279.046l-0.002-0.001l0,0c-0.597,1.011-2.623,4.823-3.292,5.957
		c-1.909,3.236-6.08,4.313-9.317,2.403c-2.449-1.444-3.654-4.182-3.273-6.831c-1.059,0.916-1.998,2.004-2.75,3.28
		c-3.817,6.472-1.665,14.815,4.809,18.633s14.817,1.666,18.634-4.807C590.07,291.207,587.918,282.864,581.444,279.046z"/>
</g>
<g>
	<linearGradient id="SVGID_4_" gradientUnits="userSpaceOnUse" x1="466.4843" y1="236.0125" x2="493.7027" y2="236.0125">
		<stop  offset="0" style="stop-color:#C7362E"/>
		<stop  offset="1" style="stop-color:#E7B141"/>
	</linearGradient>
	<path fill="url(#SVGID_4_)" d="M487.008,223.348l-0.002-0.001l0,0c-0.633,1.072-2.822,4.788-3.455,5.861
		c-1.909,3.236-6.08,4.313-9.317,2.403c-2.362-1.393-3.556-3.99-3.297-6.549c-0.978,0.88-1.859,1.897-2.564,3.094
		c-3.817,6.472-1.665,14.815,4.809,18.633s14.813,1.664,18.631-4.809C495.631,235.507,493.482,227.166,487.008,223.348z"/>
</g>
<g>
	<path fill="#C7362E" d="M452.8,389.257c-64.424-37.997-85.923-121.321-47.927-185.743s121.32-85.922,185.744-47.924
		c64.421,37.995,85.92,121.319,47.924,185.742C600.545,405.753,517.221,427.252,452.8,389.257z M582.962,168.567
		c-57.266-33.775-131.335-14.665-165.111,42.601s-14.663,131.335,42.603,165.11s131.332,14.663,165.108-42.603
		C659.338,276.41,640.228,202.343,582.962,168.567z"/>
</g>
<path fill="#C7362E" d="M199.107,470.029c6.057-10.27,4.064-23.061-4.091-31.045c-2.69-2.634-3.046-6.855-1.133-10.098l0.21-0.356
	c2.819-4.78,9.381-5.572,13.313-1.655c13.494,13.443,16.74,34.79,6.617,51.952s-30.375,24.65-48.668,19.345
	c-5.33-1.546-7.813-7.672-4.993-12.452l0.21-0.356c1.913-3.243,5.779-4.975,9.386-3.894
	C180.891,484.743,193.05,480.299,199.107,470.029L199.107,470.029z"/>
<g>
	<path fill="#C7362E" d="M133.456,414.303c-19.08-11.253-25.447-35.931-14.194-55.011s35.931-25.447,55.011-14.194
		c19.08,11.253,25.447,35.931,14.194,55.011S152.536,425.556,133.456,414.303z M140.956,401.587
		c12.069,7.118,27.678,3.089,34.795-8.978c7.117-12.067,3.091-27.677-8.978-34.795c-12.069-7.118-27.678-3.089-34.795,8.978
		C124.861,378.858,128.888,394.469,140.956,401.587z"/>
</g>
<g>
	<path fill="#C7362E" d="M77.757,508.741c-19.08-11.253-25.447-35.931-14.194-55.011s35.931-25.447,55.011-14.194
		s25.447,35.931,14.194,55.011C121.514,513.627,96.837,519.994,77.757,508.741z M85.257,496.025
		c12.069,7.118,27.678,3.089,34.795-8.978s3.091-27.677-8.978-34.795s-27.678-3.089-34.795,8.978
		C69.162,473.297,73.188,488.907,85.257,496.025z"/>
</g>
<g>
	<linearGradient id="SVGID_5_" gradientUnits="userSpaceOnUse" x1="84.5565" y1="474.313" x2="111.7765" y2="474.313">
		<stop  offset="0" style="stop-color:#C7362E"/>
		<stop  offset="1" style="stop-color:#E7B141"/>
	</linearGradient>
	<path fill="url(#SVGID_5_)" d="M86.446,467.225l0.001-0.001l0,0c1.011,0.597,4.629,2.952,5.763,3.621
		c3.236,1.909,7.408,0.832,9.317-2.405c1.444-2.449,1.175-5.428-0.44-7.562c1.37,0.29,2.718,0.787,3.994,1.539
		c6.472,3.817,8.625,12.16,4.807,18.634s-12.161,8.627-18.633,4.809C84.78,482.042,82.627,473.699,86.446,467.225z"/>
</g>
<g>
	<linearGradient id="SVGID_6_" gradientUnits="userSpaceOnUse" x1="140.2553" y1="379.9119" x2="167.4748" y2="379.9119">
		<stop  offset="0" style="stop-color:#C7362E"/>
		<stop  offset="1" style="stop-color:#E7B141"/>
	</linearGradient>
	<path fill="url(#SVGID_6_)" d="M142.144,372.789l0.001-0.001l0,0c1.072,0.632,4.786,2.825,5.859,3.458
		c3.236,1.909,7.408,0.832,9.317-2.405c1.393-2.362,1.181-5.212-0.283-7.327c1.282,0.297,2.545,0.761,3.741,1.467
		c6.472,3.817,8.625,12.16,4.807,18.634s-12.159,8.623-18.631,4.806C140.48,387.602,138.326,379.263,142.144,372.789z"/>
</g>
<g>
	<path fill="#C7362E" d="M66.612,549.359C2.189,511.363-19.31,428.039,18.685,363.618c37.997-64.424,121.321-85.923,185.743-47.927
		s85.922,121.32,47.924,185.744C214.358,565.856,131.034,587.355,66.612,549.359z M74.266,536.38
		c57.266,33.775,131.333,14.666,165.108-42.6s14.665-131.335-42.601-165.111s-131.335-14.663-165.11,42.603
		S17,502.605,74.266,536.38z"/>
</g>
</svg>
