<?xml version="1.0" encoding="utf-8"?>
<!-- Generator: Adobe Illustrator 18.1.0, SVG Export Plug-In . SVG Version: 6.00 Build 0)  -->
<svg version="1.1" id="Слой_1" xmlns="http://www.w3.org/2000/svg" xmlns:xlink="http://www.w3.org/1999/xlink" x="0px" y="0px"
	 viewBox="0 0 595.28 367.554" enable-background="new 0 0 595.28 367.554" xml:space="preserve">
<g>
	<g>
		<path fill="#C7362E" d="M489.362,337.079c1.155,0,2.329-0.073,3.513-0.222c12.041-1.517,21.765-11.241,23.283-23.282
			c2.077-16.487-10.719-30.528-26.796-30.528c-1.154,0-2.328,0.072-3.512,0.222c-12.041,1.517-21.765,11.24-23.281,23.281
			C460.489,323.039,473.286,337.079,489.362,337.079z M473.616,307.943c0.884-7.012,6.615-12.743,13.628-13.627
			c0.707-0.09,1.42-0.134,2.12-0.134c4.556,0,8.9,1.962,11.917,5.384c3.059,3.467,4.418,7.949,3.829,12.617
			c-0.884,7.012-6.615,12.744-13.626,13.628c-0.709,0.089-1.421,0.134-2.121,0.134c-4.557,0-8.901-1.963-11.919-5.385
			C474.387,317.094,473.027,312.613,473.616,307.943z"/>
		<circle fill="#C7362E" cx="466.245" cy="115.463" r="4.976"/>
		<circle fill="#C7362E" cx="506.343" cy="115.462" r="4.977"/>
		<path fill="#C7362E" d="M472.031,151.105c4.616,2.262,9.635,3.4,14.661,3.4c4.368,0,8.737-0.858,12.855-2.58l1.797-0.751
			c1.417-0.593,2.089-2.222,1.495-3.641c-0.593-1.42-2.227-2.087-3.642-1.497l-1.797,0.752c-7.382,3.087-15.742,2.835-22.923-0.682
			c-1.382-0.677-3.046-0.103-3.723,1.275C470.079,148.763,470.649,150.43,472.031,151.105z"/>
		<path fill="#C7362E" d="M451.047,103.327c0.686,0,1.373-0.251,1.909-0.758l0.857-0.807c3.285-3.097,7.743-4.625,12.248-4.198
			c1.579,0.142,2.891-0.976,3.036-2.506c0.148-1.53-0.973-2.89-2.504-3.036c-6.11-0.575-12.148,1.493-16.597,5.691l-0.857,0.807
			c-1.12,1.054-1.171,2.816-0.117,3.935C449.57,103.034,450.307,103.327,451.047,103.327z"/>
		<path fill="#C7362E" d="M505.203,97.057l1.177,0.036c4.516,0.133,8.753,2.207,11.63,5.692c0.551,0.666,1.349,1.011,2.148,1.011
			c0.623,0,1.251-0.209,1.77-0.637c1.187-0.978,1.355-2.732,0.376-3.918c-3.898-4.722-9.641-7.532-15.758-7.712l-1.174-0.035
			c-1.471-0.075-2.823,1.16-2.868,2.698C502.459,95.728,503.668,97.011,505.203,97.057z"/>
		<path fill="#C7362E" d="M532.362,206.864c-3.971-0.166-8.074-0.336-12.282-0.649v-24.199c7.081-7.774,10.957-17.885,10.957-28.692
			c0.07-1,1.17-4.32,1.83-5.719c1.663-1.988,2.279-5.129,3.009-10.379c1.547-11.173,4.008-21.705,7.315-31.308
			c2.215-6.255,3.348-12.909,3.348-19.73c0-6.225-1.009-12.344-3.085-18.708c-0.32-0.981-0.894-1.86-1.665-2.545
			c-1.844-1.643-4.251-3.277-6.891-4.84c0.427-0.339,0.811-0.743,1.135-1.204c1.387-1.968,1.421-4.586,0.085-6.59
			c-9.376-14.066-24.452-23.653-41.362-26.303c-0.299-0.047-0.6-0.07-0.902-0.07c-0.433,0-0.864,0.048-1.288,0.144
			c-3.57,0.808-8.516,2.591-12.901,4.175c-0.299-0.728-0.744-1.399-1.325-1.964c-1.1-1.073-2.565-1.655-4.069-1.655
			c-0.41,0-0.822,0.043-1.231,0.131c-27.923,6.031-48.189,30.976-48.189,59.313c0,6.894,1.133,13.588,3.365,19.894
			c3.48,10.102,5.939,20.614,7.29,31.196c0.827,5.967,1.485,8.819,3.079,10.622c0.599,1.251,1.601,4.466,1.652,5.578
			c0,10.628,3.894,20.748,11.01,28.681l-0.773,24.525c-6.085,1.294-22.071,1.41-28.546,1.457c-5.064,0.037-7.776,0.064-9.274,0.234
			c-41.513,4.571-41.314,37.835-41.104,73.051l0.034,8.619v22.262c0,7.712,6.275,13.987,13.988,13.987h25.992v17.949
			c0,12.918,10.51,23.428,23.428,23.428h108.747c12.918,0,23.428-10.51,23.428-23.428v-17.949h13.521
			c7.712,0,13.986-6.275,13.986-13.987v-22.262C594.677,214.882,571.135,208.483,532.362,206.864z M466.519,46.863
			c1.936,1.622,4.5,2.617,7.221,2.617c2.773,0,5.232-0.889,11.145-3.035c2.878-1.098,6.699-2.459,9.366-3.244
			c2.564,0.524,5.075,1.256,7.428,2.198l-1.046,7.901c-1.151,8.424,5.286,11.407,11.563,14.336
			c3.977,1.831,11.563,5.337,16.064,8.267c0.837,3.401,1.255,6.854,1.255,10.255c0,4.866-0.784,9.628-2.353,14.232
			c-3.768,10.884-6.488,22.5-8.11,34.586c-0.314,2.04-0.524,3.192-0.629,3.82c-2.877,4.761-4.288,11.773-4.288,14.546
			c0,6.854-2.669,13.342-7.484,18.26l-1.309,1.308L501,174.792c-9.733,4.238-20.877,4.238-30.609,0l-4.396-1.884l-1.255-1.308
			c-4.815-4.918-7.483-11.406-7.483-18.26c0-2.773-1.464-9.785-4.29-14.546c-0.157-0.68-0.418-1.988-0.68-4.342
			c-1.413-10.674-4.029-21.766-8.321-34.795c-1.411-4.343-2.144-8.895-2.144-13.5C441.876,69.31,451.764,54.136,466.519,46.863z
			 M511.727,54.763c-0.028,0.016,0.084,0.08,0.091,0.108C511.827,54.849,511.676,54.772,511.727,54.763L511.727,54.763z
			 M512.08,55.174c1.862,1.112,8.932,4.101,15.577,7.592C520.935,59.241,513.833,56.231,512.08,55.174z M527.546,145.273
			c-0.43,0.939-0.901,2.219-1.34,3.593C526.641,147.484,527.108,146.208,527.546,145.273z M508.849,220.052l-1.642,4.479
			c-1.242,10.266-9.884,9.354-20.224,9.489c-0.181,0.002-0.363,0.004-0.545,0.007c-10.392,0.137-19.271,1.226-20.733-9.063
			l-2.168-6.168c2.407-2.093,3.715-4.971,3.768-8.843l0.891-29.405l0.051-0.628c5.546,2.407,11.511,3.61,17.424,3.61
			c5.964,0,11.929-1.203,17.475-3.61v28.569C503.145,213.197,505.341,217.383,508.849,220.052z M428.743,273.263
			c0-0.523,0.418-0.941,0.94-0.941h30.085c2.302,0,4.448-1.308,5.495-3.401l5.441-10.936c0.105-0.157,0.314-0.314,0.524-0.314
			h36.208c0.209,0,0.418,0.157,0.524,0.314l5.441,10.936c1.047,2.093,3.14,3.401,5.441,3.401h30.138
			c0.524,0,0.942,0.418,0.942,0.941v72.572c-0.366,1.256-1.098,2.355-2.04,3.192H430.887c-1.1-0.89-1.831-2.093-2.144-3.506V273.263
			z M517.296,176.034c2.681-3.436,4.724-7.324,6.061-11.576C522.03,168.718,519.988,172.609,517.296,176.034z M537.68,104.021
			c-3.613,10.49-6.06,21.447-7.576,32.403c-0.47,3.376-0.942,5.848-1.47,6.958c0.502-1.125,0.996-3.547,1.457-6.942
			c1.464-10.988,3.926-21.923,7.588-32.441c1.935-5.598,2.981-11.563,2.981-17.842c0-3.837-0.545-7.517-1.31-11.12
			c0.791,3.605,1.362,7.283,1.362,11.151C540.711,92.482,539.662,98.427,537.68,104.021z M526.543,54.661
			c1.575,0.221,3.146,0.468,4.697,0.834c0.008,0.014,0.023,0.024,0.031,0.038C529.718,55.146,528.135,54.887,526.543,54.661z
			 M519.2,54.174c0.157-0.001,0.322-0.038,0.479-0.038c0.007,0,0.016,0.001,0.024,0.001C519.535,54.137,519.365,54.172,519.2,54.174
			z M493.855,31.756c15.359,2.407,28.526,10.95,36.94,23.204c-8.444-12.199-21.614-20.848-36.965-23.166
			c-6.121,1.308-18.312,6.541-20.091,6.541c-0.051,0-0.064-0.033-0.102-0.051h0.054C475.556,38.283,487.679,33.155,493.855,31.756z
			 M473.576,38.252c-0.009-0.011-0.046-0.011-0.046-0.023c0-0.576,0.314-3.296,0.68-5.755c0.021-0.005,0.041-0.014,0.063-0.019
			C473.812,34.88,473.58,37.634,473.576,38.252z M449.326,45.206c-11.371,10.123-18.595,24.806-18.595,40.899
			c-0.044,5.384,0.895,10.55,2.345,15.461c-1.475-4.915-2.395-10.087-2.395-15.494C430.681,70.023,437.92,55.339,449.326,45.206z
			 M441.289,136.424c-0.427-3.333-1.162-6.644-1.801-9.964c0.637,3.322,1.364,6.63,1.811,9.98c0.576,4.238,1.151,7.064,1.78,7.586
			c0.145,0.117,0.364,0.571,0.572,0.972c-0.221-0.417-0.45-0.874-0.615-0.998C442.453,143.534,441.871,140.62,441.289,136.424z
			 M446.067,153.324c0-1.208-0.515-3.324-1.144-5.242c0.647,1.93,1.189,4.064,1.189,5.257c0,10.15,4.081,19.307,10.674,26.057
			c0.023,0.054,0.044,0.109,0.065,0.163c-0.02-0.042-0.043-0.084-0.063-0.126C450.146,172.673,446.067,163.465,446.067,153.324z
			 M406.459,215.17c-22.924,5.153-27.883,22.008-28.867,45.105C378.574,237.168,383.525,220.297,406.459,215.17z M377.504,262.332
			c0.007-0.22,0.007-0.452,0.014-0.672C377.511,261.88,377.511,262.112,377.504,262.332z M543.742,361.727H434.995
			c-9.675,0-17.6-7.926-17.6-17.6v-23.72h0.046v23.755c0,9.627,7.848,17.528,17.58,17.528h108.727c9.679,0,17.582-7.9,17.582-17.528
			v-23.755h0.013v23.72C561.342,353.801,553.415,361.727,543.742,361.727z"/>
	</g>
	<circle fill="#C7362E" cx="236.472" cy="115.462" r="4.977"/>
	<circle fill="#C7362E" cx="276.57" cy="115.462" r="4.977"/>
	<path fill="#C7362E" d="M242.257,142.423c4.616,2.262,9.635,3.4,14.661,3.4c4.368,0,8.739-0.858,12.857-2.58l1.796-0.751
		c1.417-0.593,2.089-2.222,1.497-3.641c-0.595-1.42-2.228-2.087-3.642-1.497l-1.798,0.752c-7.382,3.087-15.742,2.835-22.921-0.682
		c-1.383-0.677-3.048-0.103-3.725,1.275C240.305,140.08,240.877,141.747,242.257,142.423z"/>
	<path fill="#C7362E" d="M224.039,101.761c3.287-3.097,7.743-4.625,12.248-4.198c1.579,0.142,2.891-0.976,3.036-2.506
		c0.148-1.53-0.973-2.89-2.504-3.036c-6.11-0.575-12.148,1.493-16.596,5.691l-0.857,0.807c-1.121,1.054-1.172,2.816-0.117,3.935
		c0.546,0.581,1.283,0.874,2.023,0.874c0.686,0,1.374-0.251,1.909-0.758L224.039,101.761z"/>
	<path fill="#C7362E" d="M275.431,97.057l1.175,0.036c4.516,0.133,8.753,2.207,11.63,5.692c0.552,0.666,1.349,1.011,2.148,1.011
		c0.623,0,1.252-0.209,1.77-0.637c1.187-0.978,1.355-2.732,0.376-3.918c-3.898-4.722-9.641-7.532-15.756-7.712l-1.175-0.035
		c-1.471-0.075-2.823,1.16-2.868,2.698C272.685,95.728,273.895,97.011,275.431,97.057z"/>
	<path fill="#C7362E" d="M132.706,148.836V91.277c-6.373-10.226-22.634-28.487-51.039-11.553C4.705,125.601,0,18.469,0,18.469
		s40.349,22.365,69.516-3.885c24.688-22.216,54.586-9.616,63.193-5.218V0l10.696,0v148.836H132.706z"/>
	<path fill="#C7362E" d="M167.778,325.997h-52.019c-1.348,0-2.441-1.093-2.441-2.441V204.858c0-1.287,1.043-2.33,2.33-2.33h52.241
		c1.287,0,2.33,1.043,2.33,2.33v118.698C170.219,324.904,169.126,325.997,167.778,325.997z"/>
	<path fill="#C7362E" d="M302.117,206.871c-3.964-0.117-8.045-0.349-12.239-0.699v-24.127c7.108-7.809,10.956-17.949,10.956-28.672
		c0.117-1.049,1.167-4.313,1.864-5.712c1.633-2.098,2.217-5.129,3.031-10.49c1.517-11.073,3.964-21.679,7.228-31.237
		c2.214-6.295,3.381-12.938,3.381-19.698c0-6.295-1.05-12.355-3.031-18.766c-0.35-0.932-0.933-1.865-1.75-2.564
		c-1.747-1.632-4.194-3.264-6.875-4.778c0.464-0.35,0.814-0.816,1.164-1.283c1.4-1.865,1.4-4.545,0.117-6.527
		c-9.442-14.103-24.475-23.661-41.378-26.342h-0.931c-0.467,0-0.817,0-1.283,0.117c-3.614,0.816-8.508,2.565-12.936,4.196
		c-0.233-0.815-0.7-1.399-1.283-1.981c-1.05-1.049-2.564-1.632-4.081-1.632c-0.347,0-0.814,0-1.164,0.117
		c-27.975,5.944-48.256,30.888-48.256,59.328c0,6.206,0.95,12.222,2.763,17.964c3.193,10.112,6.266,20.316,7.659,30.829
		c0.993,7.492,1.506,10.909,3.334,12.866c0.581,1.282,1.631,4.429,1.631,5.595c0,10.606,3.964,20.747,11.072,28.672l-0.814,24.477
		c-6.061,1.399-22.031,1.515-28.559,1.515c-5.011,0-7.808,0-9.322,0.233c-2.814,0.308-5.401,0.773-7.843,1.337
		c5.498,4.97,9.018,12.086,9.018,20.082v68.192c0,15.535,12.583,28.134,28.118,28.154l138.829,0.181
		c7.669-0.028,13.938-6.301,13.938-13.977v-22.262C364.473,214.913,340.929,208.503,302.117,206.871z M200.594,86.118
		c0,1.515,0,3.147,0.117,4.662c-0.117-1.515-0.233-3.03-0.233-4.662c0-10.607,3.147-20.514,8.508-29.022
		C203.742,65.604,200.594,75.511,200.594,86.118z M301.067,55.464c0,0,0,0,0,0.117c-0.467-0.117-1.05-0.233-1.517-0.35
		C300.017,55.23,300.601,55.347,301.067,55.464z M277.056,224.587c-1.281,10.257-9.906,9.324-20.281,9.441h-0.583
		c-10.372,0.117-19.231,1.282-20.631-9.092l-2.214-6.177c2.447-2.098,3.731-4.896,3.731-8.858l0.933-29.372v-0.583
		c5.594,2.331,11.539,3.613,17.483,3.613c5.942,0,11.886-1.282,17.483-3.613v28.556c0,4.662,2.214,8.858,5.711,11.539
		L277.056,224.587z M288.245,138.802c-2.914,4.779-4.311,11.772-4.311,14.57c0,6.876-2.681,13.287-7.461,18.183l-1.281,1.399
		l-4.431,1.865c-9.672,4.196-20.864,4.196-30.536,0l-4.431-1.865l-1.281-1.399c-4.781-4.896-7.461-11.306-7.461-18.183
		c0-2.798-1.397-9.791-4.311-14.57c-0.117-0.7-0.35-1.982-0.7-4.313c-1.4-10.723-3.964-21.796-8.275-34.85
		c-1.4-4.313-2.097-8.858-2.097-13.52c0-9.031,8.318-8.143,13.273-15.266c4.254-6.116,26.616,26.79,73.094,5.009
		c0.817,3.497,1.281,6.876,1.281,10.257c0,4.895-0.814,9.674-2.331,14.22c-3.728,10.956-6.525,22.495-8.158,34.618
		C288.595,137.053,288.362,138.219,288.245,138.802z"/>
	<path fill="#C7362E" d="M159.807,153.219c-1.4-9.095-9.19-16.079-18.676-16.079h-5.158c-10.475,0-18.966,8.492-18.966,18.967
		v23.893c0,4.08,1.315,7.836,3.506,10.929c1.4,9.094,9.19,16.079,18.676,16.079h5.158c10.476,0,18.967-8.492,18.967-18.967v-23.893
		C163.314,160.068,161.999,156.312,159.807,153.219z M142.419,190.912h-2.783c-5.114,0-9.314-3.767-10.071-8.671
		c-1.181-1.668-1.889-3.694-1.889-5.894v-12.884c0-5.649,4.579-10.228,10.227-10.228h2.782c12.22,0,10.217,12.891,10.217,12.891
		c-0.182,4.189-5.592-1.151-10.583-0.503c-3.668,0.477-3.715,6.311,0,5.828c5.327-0.692,8.833,1.309,12.327,4.402v4.83
		C152.646,186.332,148.067,190.912,142.419,190.912z"/>
</g>
</svg>
