<?xml version="1.0" encoding="utf-8"?>
<!-- Generator: Adobe Illustrator 18.1.0, SVG Export Plug-In . SVG Version: 6.00 Build 0)  -->
<svg version="1.1" id="Слой_1" xmlns="http://www.w3.org/2000/svg" xmlns:xlink="http://www.w3.org/1999/xlink" x="0px" y="0px"
	 viewBox="0 0 885.172 566.93" enable-background="new 0 0 885.172 566.93" xml:space="preserve">
<linearGradient id="SVGID_1_" gradientUnits="userSpaceOnUse" x1="292.0418" y1="376.8164" x2="590.295" y2="204.6198">
	<stop  offset="0" style="stop-color:#C7362E"/>
	<stop  offset="1" style="stop-color:#E7B141"/>
</linearGradient>
<circle fill="url(#SVGID_1_)" cx="441.168" cy="290.718" r="172.168"/>
<g>
	<linearGradient id="SVGID_2_" gradientUnits="userSpaceOnUse" x1="770.9059" y1="278.2581" x2="885.1716" y2="278.2581">
		<stop  offset="0.0722" style="stop-color:#C20B19"/>
		<stop  offset="0.2821" style="stop-color:#C31A1A"/>
		<stop  offset="0.5225" style="stop-color:#C52E1B"/>
		<stop  offset="0.7769" style="stop-color:#C9451D"/>
		<stop  offset="0.9072" style="stop-color:#CC541F"/>
	</linearGradient>
	<path fill="url(#SVGID_2_)" d="M885.135,513.765l-24.25-342.302L852.49,15.702c0-7.461-6.529-13.058-13.991-13.058
		c-20.52,0-39.174,14.923-41.972,36.376l-25.183,166.954c-3.731,27.049,16.789,51.299,43.837,51.299h9.327l-17.722,256.493
		c-1.865,21.453,15.856,40.107,37.308,40.107h3.731C869.279,553.872,886.067,535.218,885.135,513.765z"/>
	<linearGradient id="SVGID_3_" gradientUnits="userSpaceOnUse" x1="3.791129e-004" y1="277.6103" x2="111.9246" y2="277.6103">
		<stop  offset="0.0722" style="stop-color:#C20B19"/>
		<stop  offset="0.2821" style="stop-color:#C31A1A"/>
		<stop  offset="0.5225" style="stop-color:#C52E1B"/>
		<stop  offset="0.7769" style="stop-color:#C9451D"/>
		<stop  offset="0.9072" style="stop-color:#CC541F"/>
	</linearGradient>
	<path fill="url(#SVGID_3_)" d="M110.992,138.82l-2.798-126.847c0-5.596-3.731-10.259-8.395-11.193
		c-7.461-1.866-13.058,3.731-13.058,10.259c0,0-1.866,93.27-2.798,120.319c0,3.731-3.731,7.461-7.462,7.461l0,0
		c-3.731,0-7.461-2.798-7.461-7.461c-0.932-27.049-2.798-120.319-2.798-120.319c0-6.529-6.529-12.125-13.058-10.259
		c-4.664,0.932-8.395,5.596-8.395,11.193l-2.798,119.386c0,3.731-3.731,7.461-7.462,7.461l0,0c-3.731,0-7.461-2.798-7.461-7.461
		c-0.932-27.049-2.798-120.319-2.798-120.319c0-6.529-6.529-12.125-13.058-10.259C6.529,1.712,2.798,6.376,2.798,11.972L0,138.82
		l0,0l0,0v16.789c0,16.789,5.596,32.645,15.856,42.904l21.452,21.452l-20.52,294.734c-1.866,21.453,15.856,40.107,37.308,40.107
		h3.731c21.452,0,39.174-18.654,37.308-40.107l-20.52-295.667l21.452-20.52c10.259-10.259,15.856-26.116,15.856-42.904
		L110.992,138.82L110.992,138.82L110.992,138.82z"/>
	<linearGradient id="SVGID_4_" gradientUnits="userSpaceOnUse" x1="163.2238" y1="288.9847" x2="719.1138" y2="288.9847">
		<stop  offset="0.0722" style="stop-color:#C20B19"/>
		<stop  offset="0.2821" style="stop-color:#C31A1A"/>
		<stop  offset="0.5225" style="stop-color:#C52E1B"/>
		<stop  offset="0.7769" style="stop-color:#C9451D"/>
		<stop  offset="0.9072" style="stop-color:#CC541F"/>
	</linearGradient>
	<path fill="url(#SVGID_4_)" d="M441.169,11.039c-152.963,0-277.945,124.982-277.945,277.945
		c0,152.963,124.982,277.946,277.945,277.946c152.963,0,277.945-124.982,277.945-277.945
		C718.181,135.089,594.131,11.039,441.169,11.039z M441.169,514.699c-124.982,0-225.714-101.665-225.714-225.714
		S317.12,63.271,441.169,63.271s225.714,101.665,225.714,225.714S565.218,514.699,441.169,514.699z"/>
	<linearGradient id="SVGID_5_" gradientUnits="userSpaceOnUse" x1="251.8304" y1="288.0519" x2="630.5071" y2="288.0519">
		<stop  offset="0.0722" style="stop-color:#C20B19"/>
		<stop  offset="0.2821" style="stop-color:#C31A1A"/>
		<stop  offset="0.5225" style="stop-color:#C52E1B"/>
		<stop  offset="0.7769" style="stop-color:#C9451D"/>
		<stop  offset="0.9072" style="stop-color:#CC541F"/>
	</linearGradient>
	<path fill="url(#SVGID_5_)" d="M441.169,98.714c-104.463,0-189.338,84.876-189.338,189.338S336.706,477.39,441.169,477.39
		s189.338-84.876,189.338-189.338S545.631,98.714,441.169,98.714z M441.169,445.679c-86.741,0-157.627-70.885-157.627-157.627
		s70.885-157.627,157.627-157.627s157.627,70.885,157.627,157.627S527.91,445.679,441.169,445.679z"/>
</g>
</svg>
