<?xml version="1.0" encoding="utf-8"?>
<!-- Generator: Adobe Illustrator 18.1.0, SVG Export Plug-In . SVG Version: 6.00 Build 0)  -->
<svg version="1.1" id="Слой_1" xmlns="http://www.w3.org/2000/svg" xmlns:xlink="http://www.w3.org/1999/xlink" x="0px" y="0px"
	 viewBox="0 0 518.893 566.93" enable-background="new 0 0 518.893 566.93" xml:space="preserve">
<linearGradient id="SVGID_1_" gradientUnits="userSpaceOnUse" x1="67.6307" y1="67.5937" x2="156.9203" y2="67.5937">
	<stop  offset="0" style="stop-color:#C7362E"/>
	<stop  offset="1" style="stop-color:#E7B141"/>
</linearGradient>
<polygon fill="url(#SVGID_1_)" points="84.486,110.185 112.158,98.342 139.835,110.185 137.118,80.207 156.92,57.548 
	127.582,50.856 112.158,25.002 96.728,50.856 82.185,54.172 67.631,57.831 87.198,80.207 "/>
<linearGradient id="SVGID_2_" gradientUnits="userSpaceOnUse" x1="0.1647" y1="147.5287" x2="45.142" y2="147.5287">
	<stop  offset="0" style="stop-color:#C7362E"/>
	<stop  offset="1" style="stop-color:#E7B141"/>
</linearGradient>
<polygon fill="url(#SVGID_2_)" points="8.655,168.983 22.594,163.017 36.536,168.983 35.167,153.882 45.142,142.468 30.364,139.098 
	22.594,126.074 14.822,139.098 7.496,140.768 0.165,142.611 10.021,153.882 "/>
<linearGradient id="SVGID_3_" gradientUnits="userSpaceOnUse" x1="398.336" y1="147.5287" x2="443.3133" y2="147.5287">
	<stop  offset="0" style="stop-color:#C7362E"/>
	<stop  offset="1" style="stop-color:#E7B141"/>
</linearGradient>
<polygon fill="url(#SVGID_3_)" points="406.826,168.983 420.765,163.017 434.707,168.983 433.338,153.882 443.313,142.468 
	428.535,139.098 420.765,126.074 412.993,139.098 405.667,140.768 398.336,142.611 408.192,153.882 "/>
<linearGradient id="SVGID_4_" gradientUnits="userSpaceOnUse" x1="175.2674" y1="42.6065" x2="264.871" y2="42.6065">
	<stop  offset="0" style="stop-color:#C7362E"/>
	<stop  offset="1" style="stop-color:#E7B141"/>
</linearGradient>
<polygon fill="url(#SVGID_4_)" points="192.395,85.213 220.072,73.334 247.756,85.213 245.02,55.21 264.871,32.545 235.49,25.89 
	220.072,0 204.654,25.89 175.267,32.551 195.13,55.204 "/>
<linearGradient id="SVGID_5_" gradientUnits="userSpaceOnUse" x1="286.1833" y1="63.6682" x2="375.8474" y2="63.6682">
	<stop  offset="0" style="stop-color:#C7362E"/>
	<stop  offset="1" style="stop-color:#E7B141"/>
</linearGradient>
<polygon fill="url(#SVGID_5_)" points="303.305,106.308 331.012,94.375 358.714,106.302 355.942,76.257 375.847,53.598 
	346.424,46.955 331.006,21.028 315.606,46.955 286.183,53.598 306.083,76.257 "/>
<g>
	<path fill="#C7362E" d="M261.743,419.837c0-41.07,16.002-79.598,44.955-108.383c5.064-5.064,10.434-9.705,16.04-13.958v-41.567
		c0-5.007-4.07-9.077-9.071-9.077h-6.009c-5.007,0-9.077,4.07-9.077,9.077v45.276h-18.118v-45.276
		c0-14.989,12.199-27.194,27.194-27.194h6.009c14.99,0,27.189,12.205,27.189,27.194v29.747
		c11.418-6.349,23.572-11.211,36.241-14.435v-60.625h24.157v-18.118h-24.157h-30.202v-48.307h12.115v-18.118h-12.115H93.249H81.134
		v18.118h12.115v48.307H63.053H38.896v18.118h24.157v338.195H20.779v18.117h163.058V428.113h78.137
		C261.83,425.366,261.743,422.609,261.743,419.837z M159.686,500.499h-18.118v-45.27c0-5.001-4.07-9.071-9.077-9.071h-6.009
		c-5.007,0-9.077,4.071-9.077,9.071v45.27H99.288v-45.27c0-14.99,12.199-27.189,27.195-27.189h6.009
		c14.995,0,27.194,12.199,27.194,27.189V500.499z M159.686,397.832h-18.118v-45.27c0-5-4.07-9.071-9.077-9.071h-6.009
		c-5.007,0-9.077,4.07-9.077,9.071v45.27H99.288v-45.27c0-14.989,12.199-27.189,27.195-27.189h6.009
		c14.995,0,27.194,12.199,27.194,27.189V397.832z M159.686,301.205h-18.118v-45.276c0-5.007-4.07-9.077-9.077-9.077h-6.009
		c-5.007,0-9.077,4.07-9.077,9.077v45.276H99.288v-45.276c0-14.989,12.199-27.194,27.195-27.194h6.009
		c14.995,0,27.194,12.205,27.194,27.194V301.205z M189.87,255.929c0-14.989,12.2-27.194,27.195-27.194h6.009
		c14.996,0,27.189,12.205,27.189,27.194v45.276h-18.112v-45.276c0-5.007-4.07-9.077-9.077-9.077h-6.009
		c-5.007,0-9.077,4.07-9.077,9.077v45.276H189.87V255.929z M232.151,397.832v-45.27c0-5-4.07-9.071-9.077-9.071h-6.009
		c-5.007,0-9.077,4.07-9.077,9.071v45.27H189.87v-45.27c0-14.989,12.2-27.189,27.195-27.189h6.009
		c14.996,0,27.189,12.199,27.189,27.189v45.27H232.151z"/>
	<path fill="#C7362E" d="M306.8,528.376c-25.883-25.733-41.372-59.139-44.454-95.184V566.93h81.637
		C340.751,560.875,306.8,528.376,306.8,528.376z"/>
</g>
<linearGradient id="SVGID_6_" gradientUnits="userSpaceOnUse" x1="311.05" y1="441.3666" x2="519.0586" y2="441.3666">
	<stop  offset="0" style="stop-color:#C7362E"/>
	<stop  offset="1" style="stop-color:#E7B141"/>
</linearGradient>
<path fill="url(#SVGID_6_)" d="M488.57,346.294c-18.808-18.808-44.831-30.489-73.516-30.489c-28.684,0-54.706,11.681-73.516,30.489
	c-18.894,18.808-30.487,44.831-30.487,73.516c0,28.771,11.593,54.793,30.487,73.602c0.004,0.004,0.008,0.007,0.008,0.007
	l73.508,73.509l73.516-73.516c18.894-18.808,30.489-44.831,30.489-73.602C519.059,391.125,507.464,365.103,488.57,346.294z
	 M379.857,384.613c9.006-9.005,21.463-14.597,35.196-14.597c13.734,0,26.193,5.592,35.197,14.597
	c9.045,9.005,14.597,21.463,14.597,35.197c0,13.775-5.551,26.234-14.597,35.238c-9.005,9.004-21.463,14.556-35.197,14.556
	c-13.733,0-26.191-5.551-35.196-14.556c-9.046-9.005-14.597-21.463-14.597-35.238C365.261,406.076,370.811,393.618,379.857,384.613z
	"/>
</svg>
