<?xml version="1.0" encoding="utf-8"?>
<!-- Generator: Adobe Illustrator 18.1.0, SVG Export Plug-In . SVG Version: 6.00 Build 0)  -->
<svg version="1.1" id="Слой_1" xmlns="http://www.w3.org/2000/svg" xmlns:xlink="http://www.w3.org/1999/xlink" x="0px" y="0px"
	 viewBox="0 0 595.28 595.28" enable-background="new 0 0 595.28 595.28" xml:space="preserve">
<path fill="#020305" d="M530.109,65.274C489.78,24.944,434.065,0,372.524,0c-109.581-0.001-200.49,79.156-219.159,183.367
	c-2.3,12.839-3.7,25.992-3.7,39.492c0,50.103,6.307,81.461,34.214,118.682c0.457,0.61,4.565,5.008,9.754,10.515L29.726,494.485
	c-36.611,36.611-34.873,52.674-19.501,68.046c1.754,1.754,3.647,3.492,5.603,5.292c3.973,3.632,8.101,7.76,11.733,11.733
	c1.793,1.947,3.538,3.848,5.285,5.595c15.379,15.38,31.443,17.118,68.255-19.71l141.99-163.418c4.523,4.346,8.032,7.686,8.53,8.062
	c37.347,28.246,70.47,35.634,120.904,35.634c13.5,0,26.654-1.4,39.492-3.7c104.211-18.669,183.368-109.579,183.368-219.16
	C595.384,161.318,570.438,105.603,530.109,65.274z M412.016,395.023c-12.715,2.907-25.896,4.586-39.492,4.586
	c-30.995,0-60.094-8.029-85.421-22.044c-5.119-2.832-10.008-6.012-14.787-9.338c-19.484-19.484-44.332-45.728-45.161-45.161
	c-3.326-4.779-6.505-9.668-9.338-14.789c-14.015-25.327-22.044-54.424-22.044-85.419c0-13.596,1.68-26.777,4.586-39.492
	c17.961-78.576,88.144-137.258,172.164-137.258c47.596,0,87.659,14.721,127.23,54.245c30.606,31.778,49.521,74.9,49.521,122.505
	C549.275,306.88,490.593,377.063,412.016,395.023z"/>
</svg>
