<?xml version="1.0" encoding="utf-8"?>
<!-- Generator: Adobe Illustrator 18.1.0, SVG Export Plug-In . SVG Version: 6.00 Build 0)  -->
<svg version="1.1" id="Слой_1" xmlns="http://www.w3.org/2000/svg" xmlns:xlink="http://www.w3.org/1999/xlink" x="0px" y="0px"
	 viewBox="0 0 594.584 595.28" enable-background="new 0 0 594.584 595.28" xml:space="preserve">
<g>
	<g>
		<path d="M175.654,348.4c-28.412-37.893-34.832-69.818-34.832-120.824c0-125.303,101.578-226.881,226.881-226.881
			s226.881,101.578,226.881,226.881S493.006,454.457,367.703,454.457c-51.345,0-85.065-7.522-123.086-36.277
			c-2.561-1.937-44.382,43.249-54.956,53.822L80.133,581.531c-18.332,18.331-48.053,18.331-66.384,0
			c-18.331-18.332-18.331-48.053,0-66.384l109.529-109.529C134.048,394.848,177.769,351.221,175.654,348.4z M187.763,227.577
			c0,99.378,80.562,179.94,179.94,179.94s179.94-80.562,179.94-179.94s-80.562-179.94-179.94-179.94
			S187.763,128.198,187.763,227.577z"/>
	</g>
</g>
<path d="M503.958,193.811H403.095V92.948c0-6.318-5.122-11.44-11.44-11.44h-42.719c-6.318,0-11.44,5.122-11.44,11.44v100.863
	H236.631c-6.318,0-11.44,5.122-11.44,11.44v42.719c0,6.318,5.122,11.44,11.44,11.44h100.864v100.863
	c0,6.319,5.122,11.44,11.44,11.44h42.719c6.318,0,11.44-5.122,11.44-11.44V259.411h100.863c6.319,0,11.44-5.122,11.44-11.44v-42.719
	C515.398,198.934,510.277,193.811,503.958,193.811z"/>
</svg>
