<?xml version="1.0" encoding="utf-8"?>
<!-- Generator: Adobe Illustrator 18.1.0, SVG Export Plug-In . SVG Version: 6.00 Build 0)  -->
<svg version="1.1" id="Слой_1" xmlns="http://www.w3.org/2000/svg" xmlns:xlink="http://www.w3.org/1999/xlink" x="0px" y="0px"
	 viewBox="0 0 573.474 566.93" enable-background="new 0 0 573.474 566.93" xml:space="preserve">
<linearGradient id="SVGID_1_" gradientUnits="userSpaceOnUse" x1="173.005" y1="127.8208" x2="420.2828" y2="127.8208">
	<stop  offset="0" style="stop-color:#C7362E"/>
	<stop  offset="1" style="stop-color:#E7B141"/>
</linearGradient>
<polygon fill="url(#SVGID_1_)" points="420.283,63.054 395.288,181.741 201.457,192.588 173.005,63.054 "/>
<linearGradient id="SVGID_2_" gradientUnits="userSpaceOnUse" x1="90.9046" y1="122.8409" x2="430.5209" y2="122.8409">
	<stop  offset="0.0722" style="stop-color:#C20B19"/>
	<stop  offset="0.2821" style="stop-color:#C31A1A"/>
	<stop  offset="0.5225" style="stop-color:#C52E1B"/>
	<stop  offset="0.7769" style="stop-color:#C9451D"/>
	<stop  offset="0.9072" style="stop-color:#CC541F"/>
</linearGradient>
<path fill="url(#SVGID_2_)" d="M427.255,57.836c-3.801-6.055-9.715-9.011-15.769-9.011H183.227l-6.761-29.149
	c-1.549-6.055-5.915-10.42-11.969-11.265l-56.889-8.167C99.442-1.305,92.683,4.75,91.134,12.212
	c-1.41,8.167,3.802,15.631,11.969,16.476l47.172,6.759l43.372,198.97c1.547,6.759,7.603,11.265,14.222,11.265h181.225
	c7.464,0,14.222-6.055,14.222-14.222c0-7.463-6.054-14.222-14.222-14.222H219.133l-1.549-9.716l170.666-9.716
	c8.308,0,15.771-5.21,18.728-13.518v-1.409L429.51,75.016C431.621,69.102,430.213,63.047,427.255,57.836z M386.843,176.12
	l-173.624,9.716l-25.486-116.03h221.5L386.843,176.12z"/>
<linearGradient id="SVGID_3_" gradientUnits="userSpaceOnUse" x1="324.3271" y1="282.354" x2="372.2249" y2="282.354">
	<stop  offset="0.0722" style="stop-color:#C20B19"/>
	<stop  offset="0.2821" style="stop-color:#C31A1A"/>
	<stop  offset="0.5225" style="stop-color:#C52E1B"/>
	<stop  offset="0.7769" style="stop-color:#C9451D"/>
	<stop  offset="0.9072" style="stop-color:#CC541F"/>
</linearGradient>
<circle fill="url(#SVGID_3_)" cx="348.276" cy="282.354" r="23.949"/>
<linearGradient id="SVGID_4_" gradientUnits="userSpaceOnUse" x1="214.6532" y1="282.354" x2="262.551" y2="282.354">
	<stop  offset="0.0722" style="stop-color:#C20B19"/>
	<stop  offset="0.2821" style="stop-color:#C31A1A"/>
	<stop  offset="0.5225" style="stop-color:#C52E1B"/>
	<stop  offset="0.7769" style="stop-color:#C9451D"/>
	<stop  offset="0.9072" style="stop-color:#CC541F"/>
</linearGradient>
<circle fill="url(#SVGID_4_)" cx="238.602" cy="282.354" r="23.949"/>
<linearGradient id="SVGID_5_" gradientUnits="userSpaceOnUse" x1="607.2414" y1="-322.5041" x2="785.68" y2="-322.5041" gradientTransform="matrix(0.7071 -0.7071 0.7071 0.7071 204.7969 1088.2233)">
	<stop  offset="0.0722" style="stop-color:#C20B19"/>
	<stop  offset="0.2821" style="stop-color:#C31A1A"/>
	<stop  offset="0.5225" style="stop-color:#C52E1B"/>
	<stop  offset="0.7769" style="stop-color:#C9451D"/>
	<stop  offset="0.9072" style="stop-color:#CC541F"/>
</linearGradient>
<path fill="url(#SVGID_5_)" d="M506.947,281.681c-3.662-0.838-6.957,0.262-9.207,2.511l-84.803,84.803l-13.341-8.318
	c-2.825-1.674-6.069-1.674-8.632,0.262l-24.17,18.101c-3.609,2.459-3.871,7.219-1.674,10.567c2.511,3.558,7.22,4.395,10.568,1.674
	l20.037-15.014l90.035,57.808c3.086,1.936,7.01,1.361,9.469-1.099l67.329-67.329c2.773-2.773,3.034-7.533,0-10.568
	c-2.773-2.773-7.533-3.035-10.568,0l-63.145,63.145l-4.185-3.034l59.797-67.016c3.086-3.086,3.924-7.795,1.936-11.98l-0.523-0.523
	l-31.703-48.445C512.755,284.245,509.982,282.518,506.947,281.681z M535.879,340.64l-60.896,68.115l-52.577-33.639l82.292-82.292
	L535.879,340.64z"/>
<linearGradient id="SVGID_6_" gradientUnits="userSpaceOnUse" x1="729.8845" y1="-238.694" x2="755.0505" y2="-238.694" gradientTransform="matrix(0.7071 -0.7071 0.7071 0.7071 204.7969 1088.2233)">
	<stop  offset="0.0722" style="stop-color:#C20B19"/>
	<stop  offset="0.2821" style="stop-color:#C31A1A"/>
	<stop  offset="0.5225" style="stop-color:#C52E1B"/>
	<stop  offset="0.7769" style="stop-color:#C9451D"/>
	<stop  offset="0.9072" style="stop-color:#CC541F"/>
</linearGradient>
<circle fill="url(#SVGID_6_)" cx="561.019" cy="394.437" r="12.583"/>
<linearGradient id="SVGID_7_" gradientUnits="userSpaceOnUse" x1="672.2604" y1="-238.694" x2="697.4265" y2="-238.694" gradientTransform="matrix(0.7071 -0.7071 0.7071 0.7071 204.7969 1088.2233)">
	<stop  offset="0.0722" style="stop-color:#C20B19"/>
	<stop  offset="0.2821" style="stop-color:#C31A1A"/>
	<stop  offset="0.5225" style="stop-color:#C52E1B"/>
	<stop  offset="0.7769" style="stop-color:#C9451D"/>
	<stop  offset="0.9072" style="stop-color:#CC541F"/>
</linearGradient>
<circle fill="url(#SVGID_7_)" cx="520.272" cy="435.184" r="12.583"/>
<linearGradient id="SVGID_8_" gradientUnits="userSpaceOnUse" x1="72.0302" y1="-81.8058" x2="306.8613" y2="-81.8058" gradientTransform="matrix(0.922 -0.3873 0.3873 0.922 -4.9091 591.0308)">
	<stop  offset="0.0722" style="stop-color:#C20B19"/>
	<stop  offset="0.2821" style="stop-color:#C31A1A"/>
	<stop  offset="0.5225" style="stop-color:#C52E1B"/>
	<stop  offset="0.7769" style="stop-color:#C9451D"/>
	<stop  offset="0.9072" style="stop-color:#CC541F"/>
</linearGradient>
<path fill="url(#SVGID_8_)" d="M226.829,356.197c-4.044-2.842-8.607-3.143-12.466-1.522L68.849,415.803l-12.116-16.772
	c-2.609-3.445-6.561-5.059-10.647-3.976L7.633,405.084c-5.621,1.2-8.308,6.87-7.297,12.042c1.289,5.584,6.61,8.946,12.042,7.298
	L44.26,416.1l80.934,115.227c2.796,3.894,7.863,5.145,12.083,3.373l115.53-48.533c4.758-1.999,7.445-7.669,5.258-12.875
	c-1.999-4.757-7.668-7.445-12.875-5.258l-108.349,45.516l-3.589-5.779l106.197-51.899c5.296-2.225,8.659-7.545,8.319-13.633
	l-0.377-0.898l-14.522-74.796C232.629,362.209,230.11,358.727,226.829,356.197z M232.743,442.424l-108.083,52.691L77.34,427.972
	l141.205-59.318L232.743,442.424z"/>
<linearGradient id="SVGID_9_" gradientUnits="userSpaceOnUse" x1="233.4324" y1="28.4911" x2="266.5518" y2="28.4911" gradientTransform="matrix(0.922 -0.3873 0.3873 0.922 -4.9091 591.0308)">
	<stop  offset="0.0722" style="stop-color:#C20B19"/>
	<stop  offset="0.2821" style="stop-color:#C31A1A"/>
	<stop  offset="0.5225" style="stop-color:#C52E1B"/>
	<stop  offset="0.7769" style="stop-color:#C9451D"/>
	<stop  offset="0.9072" style="stop-color:#CC541F"/>
</linearGradient>
<circle fill="url(#SVGID_9_)" cx="236.607" cy="520.477" r="16.56"/>
<linearGradient id="SVGID_10_" gradientUnits="userSpaceOnUse" x1="157.5974" y1="28.4911" x2="190.7168" y2="28.4911" gradientTransform="matrix(0.922 -0.3873 0.3873 0.922 -4.9091 591.0308)">
	<stop  offset="0.0722" style="stop-color:#C20B19"/>
	<stop  offset="0.2821" style="stop-color:#C31A1A"/>
	<stop  offset="0.5225" style="stop-color:#C52E1B"/>
	<stop  offset="0.7769" style="stop-color:#C9451D"/>
	<stop  offset="0.9072" style="stop-color:#CC541F"/>
</linearGradient>
<circle fill="url(#SVGID_10_)" cx="166.69" cy="549.847" r="16.56"/>
</svg>
