<?xml version="1.0" encoding="utf-8"?>
<!-- Generator: Adobe Illustrator 18.1.0, SVG Export Plug-In . SVG Version: 6.00 Build 0)  -->
<svg version="1.1" id="Слой_1" xmlns="http://www.w3.org/2000/svg" xmlns:xlink="http://www.w3.org/1999/xlink" x="0px" y="0px"
	 viewBox="0 0 370.324 566.93" enable-background="new 0 0 370.324 566.93" xml:space="preserve">
<g>
	<path fill="#020305" d="M195.584,516.355c1.917,0,3.865-0.12,5.83-0.368c19.982-2.518,36.118-18.654,38.638-38.637
		c3.447-27.361-17.789-50.662-44.468-50.661c-1.915,0-3.863,0.119-5.827,0.368c-19.982,2.517-36.119,18.653-38.635,38.635
		C147.669,493.055,168.905,516.355,195.584,516.355z M169.453,468.004c1.466-11.637,10.977-21.148,22.615-22.614
		c1.174-0.149,2.356-0.223,3.518-0.223c7.56,0,14.769,3.256,19.777,8.935c5.077,5.753,7.331,13.191,6.354,20.939
		c-1.466,11.637-10.977,21.149-22.613,22.616c-1.176,0.148-2.359,0.223-3.52,0.223c-7.563,0-14.771-3.257-19.779-8.936
		C170.733,483.189,168.475,475.753,169.453,468.004z"/>
	<circle fill="#020305" cx="157.221" cy="148.583" r="8.258"/>
	<circle fill="#020305" cx="223.764" cy="148.582" r="8.259"/>
	<path fill="#020305" d="M166.823,207.732c7.66,3.754,15.99,5.642,24.329,5.642c7.249,0,14.5-1.424,21.333-4.281l2.982-1.246
		c2.352-0.983,3.466-3.688,2.482-6.042c-0.985-2.356-3.695-3.463-6.045-2.484l-2.982,1.248c-12.25,5.123-26.124,4.705-38.041-1.132
		c-2.293-1.123-5.055-0.171-6.179,2.116C163.583,203.844,164.53,206.611,166.823,207.732z"/>
	<path fill="#020305" d="M136.591,125.845c5.452-5.14,12.849-7.675,20.325-6.967c2.621,0.236,4.798-1.62,5.039-4.159
		c0.246-2.539-1.615-4.795-4.156-5.039c-10.139-0.954-20.16,2.478-27.543,9.443l-1.421,1.34c-1.858,1.75-1.943,4.674-0.194,6.53
		c0.909,0.963,2.132,1.45,3.36,1.45c1.138,0,2.278-0.417,3.169-1.259L136.591,125.845z"/>
	<path fill="#020305" d="M221.873,118.039l1.953,0.059c7.494,0.221,14.526,3.663,19.3,9.446c0.914,1.105,2.238,1.678,3.565,1.678
		c1.034,0,2.075-0.347,2.937-1.058c1.969-1.623,2.248-4.533,0.623-6.503c-6.47-7.836-15.999-12.5-26.15-12.797l-1.948-0.058
		c-2.441-0.124-4.685,1.926-4.76,4.477C217.318,115.833,219.325,117.962,221.873,118.039z"/>
	<path fill="#020305" d="M266.943,300.263c-6.59-0.275-13.399-0.557-20.381-1.077v-40.158
		c11.751-12.901,18.183-29.681,18.183-47.614c0.116-1.66,1.941-7.168,3.036-9.491c2.76-3.299,3.783-8.512,4.994-17.223
		c2.567-18.541,6.651-36.019,12.139-51.956c3.676-10.38,5.556-21.423,5.556-32.742c0-10.33-1.674-20.485-5.119-31.046
		c-0.531-1.628-1.483-3.086-2.763-4.224c-3.06-2.726-7.055-5.438-11.435-8.033c0.708-0.563,1.346-1.233,1.884-1.998
		c2.302-3.267,2.359-7.611,0.142-10.936C257.618,20.424,232.6,4.515,204.537,0.117C204.042,0.039,203.541,0,203.04,0
		c-0.718,0-1.433,0.079-2.137,0.238c-5.924,1.341-14.131,4.3-21.409,6.929c-0.496-1.208-1.235-2.321-2.198-3.26
		c-1.825-1.78-4.257-2.747-6.753-2.747c-0.68,0-1.365,0.071-2.042,0.217c-46.338,10.009-79.97,51.405-79.97,98.43
		c0,11.441,1.879,22.549,5.584,33.015c5.775,16.764,9.855,34.208,12.098,51.771c1.372,9.902,2.465,14.636,5.11,17.627
		c0.994,2.075,2.656,7.412,2.741,9.257c0,17.638,6.463,34.432,18.271,47.596l-1.282,40.699c-10.099,2.148-36.626,2.34-47.372,2.418
		c-8.403,0.061-12.904,0.106-15.39,0.388c-68.891,7.586-68.561,62.787-68.211,121.227l0.057,14.303v36.944
		c0,12.799,10.413,23.211,23.213,23.211h43.133v29.787c0,21.438,17.442,38.879,38.879,38.879h180.465
		c21.437,0,38.879-17.441,38.879-38.879v-29.787h22.438c12.797,0,23.21-10.413,23.21-23.211v-36.944
		C370.354,313.569,331.286,302.95,266.943,300.263z M10.101,388.899c1.629-38.346,9.846-66.345,47.905-74.852
		C19.964,322.599,11.735,350.569,10.101,388.899z M241.94,249.1c4.448-5.702,7.839-12.154,10.058-19.21
		C249.796,236.96,246.408,243.417,241.94,249.1z M256.726,204.014c0.723-2.293,1.497-4.409,2.224-5.962
		C258.237,199.611,257.456,201.734,256.726,204.014z M275.766,129.559c3.211-9.29,4.947-19.189,4.947-29.609
		c0-6.368-0.904-12.475-2.175-18.454c1.313,5.982,2.26,12.086,2.26,18.506c0,10.445-1.74,20.309-5.029,29.593
		c-5.995,17.409-10.056,35.591-12.573,53.773c-0.779,5.602-1.563,9.706-2.439,11.546c0.834-1.867,1.653-5.886,2.418-11.52
		C265.604,165.159,269.689,147.012,275.766,129.559z M265.132,49.131c-2.576-0.643-5.204-1.073-7.846-1.449
		c2.614,0.366,5.221,0.777,7.794,1.385C265.094,49.089,265.117,49.107,265.132,49.131z M259.134,61.133
		c-4.86-2.549-9.839-4.935-14.152-6.962C249.307,56.201,254.288,58.586,259.134,61.133z M245.1,46.874
		c0.26-0.002,0.534-0.063,0.796-0.063c0,0,0.026,0.002,0.04,0.002C245.657,46.813,245.373,46.87,245.1,46.874z M203.04,9.671
		c25.489,3.995,47.339,18.171,61.303,38.507C250.33,27.934,228.475,13.581,203,9.734c-10.158,2.171-30.388,10.854-33.342,10.854
		c-0.085,0-0.106-0.054-0.17-0.085h0.09C172.674,20.503,192.791,11.992,203.04,9.671z M235.831,49.864
		c-1.123-0.549-1.995-0.998-2.546-1.33C233.856,48.875,234.727,49.324,235.831,49.864z M232.762,47.944
		c-0.056-0.042-0.11-0.084-0.063-0.092C232.673,47.867,232.715,47.904,232.762,47.944z M170.44,10.864
		c0.035-0.008,0.068-0.024,0.104-0.032c-0.765,4.023-1.15,8.595-1.157,9.621c-0.014-0.018-0.076-0.019-0.076-0.038
		C169.311,19.459,169.833,14.945,170.44,10.864z M98.286,99.864c-0.073,8.935,1.485,17.508,3.891,25.657
		c-2.448-8.157-3.974-16.739-3.974-25.713c0-26.633,12.013-51.001,30.94-67.816C110.273,48.791,98.286,73.158,98.286,99.864z
		 M118.707,195.94c-0.968-0.773-1.934-5.609-2.899-12.572c-0.153-1.198-0.34-2.393-0.534-3.588c0.199,1.202,0.39,2.406,0.551,3.614
		c0.956,7.033,1.91,11.722,2.954,12.59c0.241,0.195,0.604,0.947,0.949,1.613C119.361,196.905,118.981,196.146,118.707,195.94z
		 M116.693,99.95c0.087-27.958,16.497-53.139,40.983-65.209c3.214,2.692,7.468,4.342,11.983,4.342c4.602,0,8.682-1.476,18.495-5.036
		c4.777-1.823,11.116-4.081,15.543-5.383c4.255,0.869,8.422,2.084,12.328,3.647l-1.735,13.111
		c-1.91,13.979,8.772,18.929,19.189,23.791c6.599,3.039,19.189,8.857,26.657,13.719c1.388,5.644,2.083,11.375,2.083,17.018
		c0,8.075-1.301,15.978-3.905,23.617c-6.252,18.062-10.767,37.338-13.459,57.395c-0.522,3.386-0.869,5.297-1.044,6.339
		c-4.774,7.902-7.117,19.537-7.117,24.139c0,11.375-4.43,22.142-12.42,30.303l-2.172,2.171l-7.204,3.126
		c-16.153,7.033-34.645,7.033-50.795,0l-7.296-3.126l-2.083-2.171c-7.99-8.161-12.417-18.928-12.417-30.303
		c0-4.602-2.43-16.238-7.119-24.139c-0.26-1.129-0.694-3.3-1.129-7.206c-2.345-17.713-6.687-36.121-13.808-57.742
		C117.909,115.145,116.693,107.592,116.693,99.95z M227.922,322.148l-2.725,7.433c-2.061,17.036-16.403,15.523-33.561,15.746
		c-0.3,0.004-0.602,0.007-0.904,0.012c-17.246,0.228-31.979,2.035-34.407-15.041l-3.598-10.236
		c3.995-3.473,6.165-8.249,6.252-14.675l1.478-48.798l0.085-1.042c9.204,3.995,19.102,5.991,28.915,5.991
		c9.898,0,19.796-1.996,29-5.991v47.41C218.456,310.772,222.102,317.719,227.922,322.148z M123.736,211.414
		c0-2.005-0.855-5.516-1.898-8.699c1.074,3.203,1.974,6.743,1.974,8.724c0,16.844,6.772,32.04,17.713,43.241
		c0.038,0.09,0.073,0.181,0.109,0.27c-0.033-0.07-0.071-0.139-0.104-0.209C130.506,243.523,123.736,228.242,123.736,211.414z
		 M94.987,410.453c0-0.868,0.694-1.562,1.561-1.562h49.927c3.82,0,7.381-2.171,9.119-5.644l9.029-18.148
		c0.175-0.261,0.522-0.521,0.869-0.521h60.087c0.347,0,0.694,0.26,0.869,0.521l9.029,18.148c1.738,3.473,5.211,5.644,9.029,5.644
		h50.014c0.869,0,1.563,0.694,1.563,1.562v120.433c-0.607,2.084-1.823,3.908-3.386,5.297H98.545
		c-1.825-1.477-3.039-3.473-3.558-5.818V410.453z M315.035,528.051c0,16.055-13.154,29.208-29.207,29.208H105.362
		c-16.056,0-29.207-13.153-29.207-29.208v-39.364h0.076v39.421c0,15.977,13.024,29.087,29.174,29.087h180.432
		c16.063,0,29.177-13.11,29.177-29.087v-39.421h0.021V528.051z"/>
</g>
</svg>
