<?xml version="1.0" standalone="no"?>
<!DOCTYPE svg PUBLIC "-//W3C//DTD SVG 1.1//EN" "http://www.w3.org/Graphics/SVG/1.1/DTD/svg11.dtd" >
<svg xmlns="http://www.w3.org/2000/svg">
<metadata>
<json>
<![CDATA[
{
	"fontFamily": "Qiankun",
	"description": "Font generated by IcoMoon.",
	"majorVersion": 1,
	"minorVersion": 0,
	"version": "Version 1.0",
	"fontId": "Qiankun",
	"psName": "Qiankun",
	"subFamily": "Regular",
	"fullName": "Qiankun"
}
]]>
</json>
</metadata>
<defs>
<font id="Qiankun" horiz-adv-x="1024">
<font-face units-per-em="1024" ascent="960" descent="-64" />
<missing-glyph horiz-adv-x="1024" />
<glyph unicode="&#x20;" horiz-adv-x="512" d="" />
<glyph unicode="&#xe900;" glyph-name="adress" data-tags="adress" horiz-adv-x="854" d="M726.871 835.676c-76.692 76.694-182.805 124.324-299.776 124.324-116.963 0-223.076-47.63-299.778-124.324-77.042-76.694-124.316-182.805-124.316-299.775 0-117.318 47.272-223.43 124.316-300.126 0.016-0.015 0.034-0.028 0.034-0.028l299.744-299.747 299.776 299.775c77.044 76.694 124.324 182.808 124.324 300.126 0 116.97-47.28 223.081-124.324 299.775zM283.575 679.424c36.722 36.717 87.522 59.52 143.52 59.52 56.001 0 106.806-22.803 143.523-59.52 36.885-36.719 59.52-87.522 59.52-143.521 0-56.169-22.635-106.973-59.52-143.69-36.717-36.717-87.522-59.354-143.523-59.354-55.998 0-106.797 22.635-143.52 59.354-36.888 36.717-59.52 87.522-59.52 143.69 0 56 22.632 106.802 59.52 143.521z" />
<glyph unicode="&#xe901;" glyph-name="arrow" data-tags="arrow" horiz-adv-x="1004" d="M113.57-64c-37.715 0-74.637 18.792-96.175 53.095-33.331 53.095-17.329 123.124 35.722 156.452l506.63 318.178-501.799 281.751c-54.648 30.668-74.059 99.81-43.392 154.455 30.626 54.738 99.944 74.149 154.458 43.392l834.824-468.691-829.993-521.254c-18.748-11.789-39.622-17.376-60.277-17.376z" />
<glyph unicode="&#xe902;" glyph-name="close" data-tags="close" horiz-adv-x="1026" d="M1005.882 52.614l-395.401 395.401 395.368 395.368c26.684 26.684 26.668 69.941 0 96.609s-69.925 26.684-96.609 0l-395.368-395.368-395.368 395.368c-26.668 26.668-69.925 26.684-96.606 0-26.684-26.684-26.668-69.941 0-96.609l395.368-395.368-395.368-395.368c-26.684-26.681-26.668-69.938 0-96.606s69.925-26.684 96.606 0l395.368 395.365 395.401-395.401c26.668-26.668 69.925-26.681 96.606 0 26.688 26.684 26.671 69.941 0.003 96.609z" />
<glyph unicode="&#xe903;" glyph-name="e-mail" data-tags="e-mail" horiz-adv-x="1366" d="M1365.526 872.578l-0.32 0.617c-5.056 48.62-46.811 86.805-96.942 86.805h-1171.62c-49.809 0-90.992-38.185-95.751-86.805l-0.892-0.617 0.892-0.276-0.892-9.242v-830.417c0-52.783 43.837-96.643 96.643-96.643h1171.623c53.082 0 97.263 43.86 97.263 96.643v830.417l-0.32 9.242 0.318 0.276zM1085.138 823.683l-402.386-322.442-402.958 322.442h805.343zM1228.592 72.613h-1091.682v690.806l491.868-393.597c7.497-6.001 15.941-10.707 24.987-13.931v0c18.747-6.678 39.222-6.681 57.97-0.005l0.013 0.005c9.051 3.223 17.501 7.933 25.003 13.936l491.839 393.592v-690.806z" />
<glyph unicode="&#xe904;" glyph-name="feedback" data-tags="feedback" horiz-adv-x="1203" d="M1135.148 639.764h-355.23v252.343c0 37.436-30.457 67.895-67.895 67.895h-644.144c-37.429 0-67.879-30.459-67.879-67.895v-453.487c0-37.429 30.45-67.879 67.879-67.879h21.512v-82.874c0-11.984 6.621-22.781 17.189-28.137 10.414-5.351 23.369-4.382 32.887 2.407l151.722 108.62h131.952v-252.35c0-37.429 30.443-67.888 67.865-67.888h420.835l151.752-108.634c5.395-3.853 11.757-5.886 18.406-5.886 4.933 0 9.893 1.182 14.479 3.501 10.599 5.446 17.173 16.234 17.173 28.153v82.867h21.496c37.429 0 67.879 30.457 67.879 67.888v453.475c0 37.429-30.45 67.879-67.879 67.879zM1050.336 82.158v-52.931l-109.039 78.029c-5.564 4.294-12.234 6.568-19.294 6.568h-430.999c-2.518 0-4.565 2.056-4.565 4.579v453.482c0 2.518 2.047 4.565 4.565 4.565h644.144c2.525 0 4.572-2.047 4.572-4.565v-453.48c0-2.525-2.047-4.579-4.572-4.579h-53.15c-17.46 0-31.662-14.209-31.662-31.669zM262.617 428.153l-109.91-78.697v52.931c0 17.46-14.202 31.669-31.655 31.669h-53.157c-2.518 0-4.565 2.047-4.565 4.565v453.487c0 2.525 2.047 4.579 4.565 4.579h644.144c2.532 0 4.595-2.056 4.595-4.579v-252.343h-104.695c5.27 8.385 8.369 18.272 8.369 28.887 0 30.054-24.446 54.501-54.501 54.501s-54.501-24.446-54.501-54.501c0-10.617 3.099-20.501 8.369-28.887h-28.653c-37.429 0-67.879-30.45-67.879-67.879v-137.83h-142.109c-6.653 0-13.015-2.040-18.417-5.902zM207.874 723.152c-30.054 0-54.501-24.446-54.501-54.501s24.446-54.501 54.501-54.501 54.501 24.446 54.501 54.501-24.446 54.501-54.501 54.501zM385.723 614.15c30.054 0 54.501 24.446 54.501 54.501s-24.446 54.501-54.501 54.501-54.501-24.446-54.501-54.501 24.449-54.501 54.501-54.501zM637.229 407.009c-30.054 0-54.501-24.446-54.501-54.501s24.446-54.501 54.501-54.501c30.054 0 54.501 24.446 54.501 54.501s-24.446 54.501-54.501 54.501zM815.081 407.009c-30.054 0-54.501-24.446-54.501-54.501s24.446-54.501 54.501-54.501c30.054 0 54.501 24.446 54.501 54.501s-24.449 54.501-54.501 54.501zM995.16 407.009c-30.054 0-54.501-24.446-54.501-54.501s24.446-54.501 54.501-54.501c30.054 0 54.501 24.446 54.501 54.501s-24.446 54.501-54.501 54.501z" />
<glyph unicode="&#xe905;" horiz-adv-x="2110" d="M853.729 301.48c-70.806 130.885-208.129 188.818-208.129 188.818s4.293 23.601 118.012-49.35c82.786-53.106 163.177-118.807 214.922-205.209 29.542 64.713 46.133 136.578 46.133 212.361 0 280.157-225.001 507.627-504.139 511.9-154.837-118.242-182.052-332.224-22.978-443.953 180.235-126.595 203.839-251.041 143.761-390.512-36.755-85.323-127.295-148.944-192.069-185.496 20.766-2.564 41.87-4.036 63.329-4.036 11.516 0 22.904 0.518 34.227 1.265 100.135 71.798 159.022 165.298 186.774 265.514 38.622 139.468-160.924 289.663-160.924 289.663s8.583 15.021 40.767-4.293c32.184-19.311 218.857-158.779 214.567-315.413-1.922-70.163-26.663-125.191-53.393-164.625 47.046 28.077 89.146 63.516 124.856 104.679-3.512 61.865-15.157 132.197-45.717 188.686z" />
<glyph unicode="&#xe906;" horiz-adv-x="2110" d="M598.398 254.275c60.078 190.963-203.839 255.334-278.935 426.989-43.298 98.968 3.265 195.006 50.47 258.653-34.948-10.119-68.394-23.757-99.83-40.689-83.449-269.077 148.058-383.181 148.058-383.181 8.583-2.145-21.456 0-21.456 0-183.385 82.208-232.762 224.859-246.078 294.319-17.548-17.532-33.825-36.335-48.691-56.252 70.586-146.467 251.856-242.36 251.856-242.36l-25.749-2.145c-104.506 34.836-201.972 116.154-266.986 180.204-38.629-72.004-60.586-154.286-60.586-241.714 0-218.147 136.46-404.315 328.631-478.109 95.869 60.674 231.585 164.415 269.297 284.284z" />
<glyph unicode="&#xe907;" horiz-adv-x="2110" d="M1593.827 806.299l48.2-11.685c-5.105-11.929-10.346-23.364-15.705-34.319h117.951v-44.553h-141.677c-9.006-15.086-18.384-28.841-28.117-41.254h142.408v-42.357c-52.338-39.678-87.885-71.324-106.624-94.938-9.006-9.98-13.634-19.352-13.874-28.111 0-9.98 9.855-14.974 29.576-14.974h35.056c23.608 0 36.142 9.744 37.601 29.214 2.933 19.717 4.868 35.784 5.849 48.2 18.249-6.817 33.835-11.804 46.738-14.967-3.17-23.861-7.308-44.915-12.413-63.174-6.817-27.262-29.711-40.889-68.651-40.889h-44.553c-50.135 0-75.215 18.621-75.215 55.866 0 14.358 5.241 28.72 15.705 43.085 15.823 22.15 43.213 48.318 82.153 78.506h-90.919v44.539h10.599c-8.275 7.548-16.686 14.72-25.201 21.541v-133.27h-47.469v-21.913h48.927v-43.815h-48.927v-52.947h-47.469v52.947h-55.135v43.815h55.135v21.913h-47.456v152.256h47.456v21.182h-55.494v43.815h55.494v24.829h47.469v-24.829h54.777v-43.815h-54.777v-21.182h47.469c16.801 25.567 33.828 55.991 51.113 91.285zM1502.549 677.773h-62.071v-21.903h62.071v21.903zM1502.549 599.639v22.268h-62.071v-22.268h62.071z" />
<glyph unicode="&#xe908;" horiz-adv-x="2110" d="M1769.085 482.798l-9.497 54.398c13.634 3.654 27.032 7.182 40.175 10.589v127.799h-36.156v46.001h36.156v82.526h46.725v-82.526h35.056v-46.004h-35.056v-115.018c12.907 3.654 25.32 7.301 37.259 10.955-1.475-24.582-1.949-41.745-1.475-51.482-38.7-12.413-76.436-24.826-113.187-37.239zM1977.211 445.552v93.836h-41.261v-17.528h-44.536v227.112h85.8v56.597h46.011v-56.594h85.8v-226.385h-44.536v16.797h-41.261v-93.836h-46.018zM1935.95 664.264h41.261v42.357h-41.261v-42.357zM1935.95 581.745h41.261v42.357h-41.261v-42.357zM2064.483 706.618h-41.261v-42.357h41.261v42.357zM2023.222 581.745h41.261v42.357h-41.261v-42.357z" />
<glyph unicode="&#xe909;" horiz-adv-x="2110" d="M1432.237 84.338c-1.577 10.224-3.461 19.978-5.663 29.258-4.087-12.974-9.128-24.382-15.099-34.211-7.078 14.159-13.523 25.719-19.342 34.684 4.953 10.224 8.925 21.392 11.909 33.5 2.991 12.108 4.933 24.085 5.839 35.922 0.903 11.831 1.441 33.277 1.597 64.344h-16.513v28.317h30.902c-3.694 10.062-7.626 19.66-11.79 28.777l32.316 9.676c6.925-14.629 11.8-25.871 14.629-33.74l-14.744-4.713h36.924v-17.812c12.744 17.85 23.669 36.528 32.796 56.025l29.721-4.713c-2.28-5.589-4.598-11.012-6.952-16.283h86.227v-28.777h-100.5c-5.349-9.838-10.934-18.956-16.753-27.373 34.133 2.913 66.297 8.262 96.498 16.043l13.918-27.603c-14.947-2.906-29.728-5.501-44.357-7.781 1.336-12.744 3.579-24.575 6.733-35.51 9.588 7.155 18.831 14.592 27.718 22.295l19.342-22.65c-11.242-8.492-23.554-17.102-36.924-25.834 9.206-18.475 21.987-33.693 38.338-45.646-8.965-7.869-17.85-16.121-26.653-24.775-15.099 13.445-27.133 29.596-36.095 48.427-8.972 18.831-15.265 45.514-18.881 80.042l-16.987-2.010v-85.878c12.744 5.349 23.669 10.146 32.796 14.399 0-11.012 0.47-21.784 1.414-32.326-29.884-11.638-48.839-20.766-56.861-27.363l-18.401 25.709c6.763 3.935 10.224 9.828 10.38 17.697v102.395c-7.944 7.155-16.080 14.159-24.42 20.996h-35.029l-0.24-25.949h45.301c0-16.513-0.318-36.058-0.944-58.63l-0.944-30.317c0-13.052-1.675-23.256-5.021-30.614-3.336-7.348-7.761-12.186-13.262-14.504-5.521-2.331-16.496-3.495-32.922-3.495zM1427.399 116.424l15.928-0.71c6.205 0 9.723 4.31 10.552 12.917 0.825 8.617 1.56 30.577 2.182 65.884h-16.743c-1.428-30.279-5.4-56.306-11.919-78.090z" />
<glyph unicode="&#xe90a;" horiz-adv-x="2110" d="M1697.413 252.56l27.603-17.697c-6.925-10.146-14.466-20.093-22.65-29.846v-122.332h-32.786v86.937c-7.243-6.993-14.791-13.878-22.65-20.641-3.146 8.81-7.473 19.737-12.974 32.796 24.217 20.922 45.368 44.516 63.458 70.783zM1693.644 313.893c10.062-6.915 19.497-13.678 28.307-20.285-16.513-19.189-38.453-39.712-65.826-61.574-5.819 8.8-12.812 18.083-20.996 27.833 26.429 20.13 45.926 38.145 58.515 54.026zM1728.328 229.669h140.848v-30.672h-36.809v-75.962c0-12.582-2.933-22.197-8.789-28.845-5.856-6.645-14.148-10.319-24.89-11.033-10.735-0.704-26.632-1.174-47.716-1.414-2.202 10.38-5.109 21.392-8.722 33.030 16.351-1.096 29.247-1.644 38.693-1.644 11.476 0 17.217 6.049 17.217 18.157v67.711h-69.829v30.672zM1736.106 297.146h122.677v-30.672h-122.677v30.672z" />
<glyph unicode="&#xe90b;" horiz-adv-x="2110" d="M1926.737 314.363c6.763-8.174 14.389-18.553 22.88-31.132l-24.179-12.985h35.74v-26.179c-6.523-14.399-14.071-28.124-22.64-41.173v-10.146l12.974 11.445c9.118-8.174 19.112-17.927 29.961-29.258l-23.354-19.101c-7.318 9.513-13.851 17.609-19.582 24.295v-98.853h-32.086v80.685c-6.695-7.155-13.763-14.071-21.236-20.756-3.309 15.099-6.455 27.911-9.436 38.453 20.918 18.245 36.961 38.057 48.129 59.449h-44.83v31.142h39.992c-7.473 12.031-14.196 22.102-20.17 30.202l27.837 13.912zM1956.465 119.723h62.758v96.498h-47.185v30.672h47.185v63.942h33.97v-63.942h48.599v-30.672h-48.599v-96.498h57.091v-30.662h-153.822v30.662z" />
<glyph unicode="&#xe90c;" glyph-name="LOGO_mini" data-tags="LOGO_mini" d="M853.262 301.48c-70.806 130.885-208.129 188.818-208.129 188.818s4.293 23.601 118.012-49.35c82.786-53.106 163.177-118.807 214.922-205.209 29.542 64.713 46.133 136.578 46.133 212.361 0 280.157-225.001 507.627-504.139 511.9-154.837-118.242-182.052-332.224-22.978-443.953 180.235-126.595 203.839-251.041 143.761-390.512-36.755-85.323-127.295-148.944-192.069-185.496 20.766-2.564 41.87-4.036 63.329-4.036 11.516 0 22.904 0.518 34.227 1.265 100.135 71.798 159.022 165.298 186.774 265.514 38.622 139.468-160.924 289.663-160.924 289.663s8.583 15.021 40.767-4.293c32.184-19.311 218.857-158.779 214.567-315.413-1.922-70.163-26.663-125.191-53.393-164.625 47.046 28.077 89.146 63.516 124.856 104.679-3.515 61.865-15.157 132.197-45.717 188.686zM597.927 254.275c60.078 190.963-203.839 255.334-278.935 426.989-43.298 98.968 3.265 195.006 50.47 258.653-34.948-10.119-68.394-23.757-99.83-40.689-83.446-269.073 148.064-383.177 148.064-383.177 8.583-2.145-21.456 0-21.456 0-183.385 82.208-232.762 224.859-246.078 294.319-17.548-17.532-33.825-36.335-48.691-56.252 70.586-146.467 251.856-242.36 251.856-242.36l-25.749-2.145c-104.506 34.836-201.972 116.154-266.986 180.204-38.632-72.007-60.593-154.289-60.593-241.717 0-218.147 136.46-404.315 328.631-478.109 95.869 60.674 231.585 164.415 269.297 284.284z" />
<glyph unicode="&#xe90d;" glyph-name="look" data-tags="look" horiz-adv-x="1724" d="M64.206 686.896c15.824 0 31.682 5.793 44.056 17.5l19.761 18.628c75.804 71.461 178.651 106.708 282.588 96.857 36.44-3.285 66.709 22.521 70.054 57.827 3.417 35.306-22.455 66.676-57.778 70.054-140.963 13.262-280.288-34.452-382.938-131.298l-19.761-18.628c-25.834-24.328-27.016-64.984-2.694-90.785 12.638-13.393 29.645-20.156 46.712-20.156zM1313.744 831.549l27.148-0.821c104.194-3.072 201.96-50.934 268.335-131.331 12.703-15.364 31.123-23.326 49.57-23.326 14.379 0 28.856 4.824 40.837 14.707 27.378 22.57 31.254 63.029 8.668 90.407-89.947 108.942-222.444 173.794-363.571 177.928l-27.082 0.805c-33.943 1.725-65.132-26.77-66.183-62.241s26.858-65.061 62.279-66.128zM414.861-64c-186.925 0-338.992 152.067-338.992 338.992s152.067 338.992 338.992 338.992 338.992-152.067 338.992-338.992-152.067-338.992-338.992-338.992zM414.861 489.409c-118.234 0-214.417-96.184-214.417-214.417s96.184-214.417 214.417-214.417 214.417 96.184 214.417 214.417-96.184 214.417-214.417 214.417zM1340.049-64c-186.925 0-338.992 152.067-338.992 338.992s152.067 338.992 338.992 338.992 338.992-152.067 338.992-338.992-152.073-338.992-338.992-338.992zM1340.049 489.409c-118.234 0-214.417-96.184-214.417-214.417s96.184-214.417 214.417-214.417 214.417 96.184 214.417 214.417-96.184 214.417-214.417 214.417zM1340.044 389.814h-0.016c0-9.911 1.61-46.301 1.61-57.411 0-31.703-25.708-57.411-57.417-57.411-23.988 0-44.489 14.735-53.080 35.618-3.767-11.198-5.93-23.129-5.93-35.629 0-63.407 51.41-114.817 114.833-114.817s114.833 51.41 114.833 114.817c0 63.423-51.41 114.833-114.833 114.833zM414.877 389.814h-0.016c0-10.508 0.016-46.898 0.016-57.411 0-31.703-25.708-57.411-57.417-57.411-23.14 0-42.95 13.76-52.040 33.472-3.335-10.59-5.377-21.76-5.377-33.478 0-63.407 51.41-114.817 114.833-114.817s114.8 51.41 114.8 114.817c0 63.418-51.377 114.828-114.8 114.828z" />
<glyph unicode="&#xe90e;" glyph-name="menu_burger" data-tags="menu_burger" horiz-adv-x="1075" d="M1009.525 828.837h-943.942c-36.223 0-65.583 29.37-65.583 65.583 0 36.22 29.36 65.58 65.583 65.58h943.942c36.223 0 65.58-29.36 65.58-65.58 0-36.213-29.357-65.583-65.58-65.583zM1009.525-63.997h-943.942c-36.223 0-65.583 29.367-65.583 65.58s29.36 65.58 65.58 65.58h943.942c36.223 0 65.58-29.37 65.58-65.58 0.003-36.213-29.354-65.58-65.577-65.58zM1009.525 379.85h-943.942c-36.223 0-65.583 29.367-65.583 65.58s29.36 65.58 65.58 65.58h943.942c36.223 0 65.58-29.37 65.58-65.58s-29.354-65.58-65.577-65.58z" />
<glyph unicode="&#xe90f;" glyph-name="phone" data-tags="phone" horiz-adv-x="742" d="M727.943 165.442l-36.926 67.037c-30.593 55.538-100.415 75.758-155.95 45.169-138.436-76.254-169.055-34.441-199.647 21.095l-109.513 198.818c-30.593 55.537-53.453 101.627 88.863 180.017 55.537 30.593 75.758 100.413 45.166 155.948l-36.929 67.037c-30.589 55.538-100.41 75.76-155.946 45.169l-105.446-58.085c-38.090-20.98-70.673-63.152-59.323-105.131 116.236-429.928 144.038-480.398 454.478-825.065 29.1-32.31 82.472-27.024 120.559-6.044l105.446 58.085c55.538 30.594 75.761 100.413 45.169 155.95z" />
<glyph unicode="&#xe910;" horiz-adv-x="1761" d="M1544.208-64.002h-1544.208l72.553 341.334h1544.208z" />
<glyph unicode="&#xe911;" horiz-adv-x="1761" d="M1616.761 277.332h-1544.208l72.553 341.334h1544.208z" />
<glyph unicode="&#xe912;" horiz-adv-x="1761" d="M1689.313 618.666h-1544.208l72.553 341.336h1544.208z" />
<glyph unicode="&#xe913;" glyph-name="send_messege" data-tags="send_messege" horiz-adv-x="1659" d="M1391.985 950.076l-0.287 0.096c-16.369 13.763-41.115 13.091-56.893-2.146l-368.719-356.113c-15.677-15.138-17.029-39.673-3.75-56.422l-0.092-0.466 0.364 0.185 2.529-3.179 252.403-261.338c16.043-16.611 43.172-17.089 59.789-1.040l368.719 356.113c16.704 16.133 17.278 43.366 1.234 59.977l-255.295 264.333zM1318.605 849.466l-28.627-223.779-224.819-21.002 253.446 244.781zM1592.039 656.699l-343.561-331.813-209.968 217.401 280.746 26.226 18.040 8.183 8.811 17.75 35.965 279.655 209.968-217.401zM953.263 560.566c0 0-158.464-24.335-106.159-119.192 16.767-30.41 33.337-104.392-10.791-183.458-25.177-45.26-68.597-76.237-128.992-92.077-4.949-1.413-133.52-40.311-228.285-34.514-12.306-1.977-129.416-25.317-235.215-188.963-2.688-4.101-7.213-6.365-11.882-6.365-1.84 0-3.537 0.284-5.373 0.989-8.205 3.393-80.055 33.946-86.56 75.954-1.272 7.494-0.708 17.679 5.797 28.429-37.623 20.368-105.231 62.516-102.967 100.987 0.564 8.77 4.669 20.084 19.376 29.421-28.289 42.572-73.69 118.245-59.547 147.379 4.101 8.489 12.022 13.578 22.348 14.143 2.688 0.14 5.517-0.568 8.062-1.977 2.121-1.276 206.361-118.813 401.549-27.724-66.476 30.269-225.032 116.124-216.971 243.7-10.042 27.865-75.81 224.041 27.017 342.145 3.393 3.961 8.77 5.657 14.003 4.525 5.093-1.272 9.194-5.373 10.466-10.466 0.284-1.556 40.027-158.837 162.23-193.775 0.568-0.14 1.272-0.424 1.84-0.705 7.637-3.393 171.851-77.934 253.462-182.741 9.618 33.522 29.561 83.875 65.912 103.678 20.227 11.174 42.716 11.598 66.62 1.413 5.233-1.697 31.258-11.598 47.665-36.631-0.003 0 87.246-8.518 86.397-14.175z" />
<glyph unicode="&#xe914;" horiz-adv-x="1448" d="M586.017 347.425c-48.602 89.843-142.864 129.608-142.864 129.608s2.947 16.201 81.006-33.876c56.827-36.453 112.007-81.551 147.528-140.86 20.278 44.421 31.667 93.751 31.667 145.77 0 192.306-154.445 348.445-346.052 351.38-106.284-81.164-124.964-228.045-15.773-304.738 123.717-86.898 139.919-172.319 98.681-268.055-25.228-58.568-87.378-102.238-131.839-127.327 14.254-1.76 28.741-2.771 43.471-2.771 7.904 0 15.723 0.356 23.494 0.869 68.734 49.284 109.157 113.464 128.206 182.255 26.512 95.734-110.461 198.831-110.461 198.831s5.892 10.311 27.984-2.947c22.093-13.256 150.228-108.988 147.283-216.506-1.319-48.162-18.301-85.934-36.651-113.002 32.293 19.273 61.193 43.598 85.704 71.853-2.413 42.465-10.407 90.742-31.385 129.517z" />
<glyph unicode="&#xe915;" horiz-adv-x="1448" d="M410.753 315.023c41.238 131.081-139.919 175.268-191.467 293.094-29.72 67.934 2.241 133.856 34.643 177.545-23.99-6.946-46.948-16.307-68.526-27.931-57.281-184.699 101.629-263.024 101.629-263.024 5.892-1.472-14.728 0-14.728 0-125.879 56.429-159.772 154.348-168.913 202.027-12.045-12.035-23.218-24.941-33.422-38.613 48.453-100.539 172.88-166.36 172.88-166.36l-17.675-1.472c-71.736 23.912-138.638 79.731-183.265 123.696-26.515-49.425-41.586-105.904-41.586-165.917 0-149.74 93.668-277.53 225.578-328.185 65.806 41.648 158.965 112.859 184.851 195.139z" />
<glyph unicode="&#xe916;" horiz-adv-x="1448" d="M1094.036 693.944l33.086-8.021c-3.504-8.188-7.101-16.037-10.78-23.556h80.965v-30.582h-97.25c-6.182-10.356-12.619-19.798-19.301-28.318h97.752v-29.075c-35.926-27.236-60.326-48.959-73.189-65.168-6.182-6.852-9.358-13.283-9.523-19.295 0-6.85 6.766-10.278 20.302-10.278h24.064c16.204 0 24.809 6.688 25.81 20.052 2.013 13.535 3.342 24.563 4.015 33.086 12.526-4.679 23.224-8.102 32.082-10.273-2.176-16.38-5.016-30.831-8.52-43.364-4.679-18.712-20.395-28.067-47.123-28.067h-30.582c-34.414 0-51.628 12.781-51.628 38.348 0 9.855 3.597 19.713 10.78 29.574 10.861 15.203 29.663 33.167 56.392 53.889h-62.409v30.573h7.276c-5.68 5.181-11.453 10.104-17.298 14.785v-91.478h-32.584v-15.041h33.585v-30.076h-33.585v-36.344h-32.584v36.344h-37.846v30.076h37.846v15.041h-32.575v104.512h32.575v14.539h-38.097v30.076h38.092v17.044h32.584v-17.044h37.6v-30.076h-37.6v-14.539h32.584c11.532 17.546 23.221 38.431 35.085 62.657zM1031.381 605.722h-42.608v-15.035h42.608v15.035zM1031.381 552.088v15.286h-42.608v-15.286h42.608z" />
<glyph unicode="&#xe917;" horiz-adv-x="1448" d="M1214.337 471.885l-6.518 37.34c9.36 2.508 18.554 4.93 27.577 7.268v87.723h-24.819v31.578h24.819v56.648h32.073v-56.648h24.064v-31.578h-24.064v-78.95c8.859 2.508 17.379 5.011 25.576 7.519-1.013-16.873-1.338-28.655-1.013-35.338-26.565-8.52-52.468-17.040-77.695-25.562zM1357.199 446.319v64.411h-28.323v-12.031h-30.57v155.895h58.896v38.849h31.583v-38.847h58.896v-155.396h-30.57v11.53h-28.323v-64.411h-31.59zM1328.876 596.448h28.323v29.075h-28.323v-29.075zM1328.876 539.805h28.323v29.075h-28.323v-29.075zM1417.105 625.521h-28.323v-29.075h28.323v29.075zM1388.782 539.805h28.323v29.075h-28.323v-29.075z" />
<glyph unicode="&#xe918;" horiz-adv-x="1448" d="M983.118 198.375c-1.082 7.018-2.376 13.713-3.888 20.083-2.806-8.905-6.265-16.736-10.364-23.482-4.858 9.719-9.282 17.654-13.276 23.808 3.399 7.018 6.126 14.684 8.174 22.996 2.052 8.312 3.385 16.533 4.008 24.657 0.619 8.121 0.989 22.843 1.096 44.168h-11.334v19.438h21.212c-2.536 6.907-5.235 13.495-8.094 19.753l22.182 6.642c4.753-10.041 8.1-17.758 10.041-23.161l-10.12-3.236h25.345v-12.227c8.747 12.253 16.247 25.074 22.512 38.457l20.402-3.236c-1.565-3.836-3.157-7.559-4.772-11.178h59.189v-19.753h-68.985c-3.671-6.754-7.505-13.012-11.5-18.79 23.429 1.999 45.508 5.671 66.238 11.013l9.554-18.948c-10.259-1.995-20.405-3.776-30.448-5.341 0.917-8.747 2.456-16.868 4.62-24.375 6.581 4.911 12.926 10.017 19.027 15.305l13.276-15.547c-7.717-5.83-16.168-11.739-25.345-17.734 6.318-12.681 15.093-23.128 26.316-31.332-6.155-5.401-12.253-11.066-18.294-17.006-10.364 9.229-18.625 20.316-24.776 33.241-6.158 12.926-10.478 31.242-12.96 54.943l-11.66-1.38v-58.949c8.749 3.671 16.247 6.965 22.512 9.884 0-7.559 0.323-14.954 0.97-22.189-20.513-7.989-33.525-14.254-39.031-18.783l-12.631 17.648c4.643 2.701 7.018 6.747 7.125 12.148v70.286c-5.453 4.911-11.039 9.719-16.762 14.412h-24.045l-0.165-17.813h31.096c0-11.334-0.218-24.75-0.649-40.246l-0.649-20.809c0-8.959-1.149-15.963-3.446-21.014-2.29-5.044-5.327-8.365-9.103-9.955-3.793-1.6-11.326-2.398-22.6-2.398zM979.796 220.399l10.934-0.489c4.259 0 6.674 2.959 7.244 8.866 0.566 5.914 1.070 20.988 1.498 45.224h-11.493c-0.981-20.782-3.707-38.648-8.183-53.601z" />
<glyph unicode="&#xe919;" horiz-adv-x="1448" d="M1165.139 313.845l18.948-12.148c-4.753-6.965-9.931-13.793-15.547-20.488v-83.972h-22.505v59.675c-4.971-4.799-10.153-9.526-15.547-14.168-2.159 6.046-5.13 13.548-8.905 22.512 16.622 14.362 31.141 30.558 43.557 48.587zM1162.553 355.945c6.907-4.746 13.383-9.389 19.431-13.925-11.334-13.172-26.395-27.258-45.184-42.265-3.994 6.040-8.794 12.413-14.412 19.106 18.139 13.818 31.523 26.185 40.165 37.084zM1186.361 298.133h96.68v-21.054h-25.266v-52.143c0-8.637-2.013-15.236-6.033-19.799-4.020-4.56-9.712-7.082-17.085-7.572-7.369-0.483-18.281-0.805-32.753-0.97-1.512 7.125-3.507 14.684-5.986 22.672 11.224-0.752 20.076-1.128 26.56-1.128 7.877 0 11.818 4.153 11.818 12.463v46.478h-47.932v21.054h-0.003zM1191.699 344.451h84.209v-21.054h-84.209v21.054z" />
<glyph unicode="&#xe91a;" horiz-adv-x="1448" d="M1322.553 356.269c4.643-5.611 9.877-12.735 15.705-21.37l-16.596-8.912h24.533v-17.969c-4.478-9.884-9.659-19.306-15.54-28.263v-6.965l8.905 7.856c6.258-5.611 13.118-12.306 20.567-20.083l-16.031-13.111c-5.023 6.53-9.508 12.088-13.442 16.676v-67.855h-22.024v55.385c-4.596-4.911-9.447-9.659-14.577-14.247-2.271 10.364-4.431 19.16-6.477 26.395 14.359 12.525 25.371 26.123 33.036 40.807h-30.774v21.377h27.451c-5.13 8.259-9.745 15.172-13.846 20.732l19.108 9.549zM1342.959 222.664h43.079v66.238h-32.39v21.054h32.39v43.891h23.317v-43.891h33.36v-21.054h-33.36v-66.238h39.188v-21.047h-105.588v21.047h0.003z" />
<glyph unicode="&#xe91b;" horiz-adv-x="495" d="M412.464 640.967c-34.229 63.271-100.609 91.275-100.609 91.275s2.075 11.41 57.047-23.856c40.019-25.672 78.88-57.432 103.893-99.199 14.281 31.282 22.301 66.021 22.301 102.655 0 135.426-108.765 245.386-243.701 247.451-74.849-57.159-88.004-160.596-11.107-214.605 87.126-61.196 98.535-121.353 69.493-188.773-17.768-41.245-61.535-71.999-92.846-89.669 10.037-1.239 20.24-1.952 30.613-1.952 5.567 0 11.071 0.249 16.547 0.611 48.406 34.707 76.872 79.905 90.286 128.349 18.669 67.418-77.791 140.024-77.791 140.024s4.149 7.261 19.707-2.075c15.557-9.336 105.796-76.754 103.721-152.47-0.929-33.917-12.889-60.517-25.81-79.58 22.743 13.572 43.094 30.702 60.355 50.601-1.698 29.906-7.326 63.905-22.098 91.212z" />
<glyph unicode="&#xe91c;" horiz-adv-x="495" d="M289.036 618.148c29.042 92.311-98.535 123.428-134.838 206.405-20.931 47.842 1.579 94.265 24.398 125.033-16.894-4.892-33.062-11.484-48.258-19.67-40.337-130.069 71.574-185.228 71.574-185.228 4.149-1.037-10.373 0-10.373 0-88.649 39.738-112.518 108.698-118.953 142.274-8.482-8.475-16.35-17.563-23.537-27.191 34.122-70.802 121.747-117.156 121.747-117.156l-12.447-1.037c-50.519 16.839-97.633 56.149-129.060 87.111-18.673-34.807-29.288-74.581-29.288-116.845 0-105.452 65.964-195.446 158.859-231.117 46.342 29.328 111.947 79.477 130.178 137.422z" />
<glyph unicode="&#xe91d;" horiz-adv-x="495" d="M171.468 286.915l23.298-5.649c-2.468-5.768-5.001-11.293-7.591-16.59h57.018v-21.537h-68.488c-4.354-7.292-8.887-13.942-13.593-19.942h68.839v-20.476c-25.299-19.18-42.482-34.478-51.542-45.893-4.354-4.825-6.592-9.354-6.707-13.59 0-4.825 4.763-7.239 14.298-7.239h16.946c11.412 0 17.47 4.71 18.176 14.121 1.417 9.53 2.353 17.298 2.828 23.298 8.821-3.296 16.356-5.706 22.595-7.235-1.533-11.534-3.533-21.712-6.002-30.539-3.296-13.178-14.362-19.767-33.186-19.767h-21.537c-24.234 0-36.36 9.002-36.36 27.005 0 6.939 2.532 13.884 7.591 20.828 7.648 10.707 20.888 23.357 39.713 37.949h-43.951v21.533h5.123c-4.001 3.649-8.066 7.116-12.182 10.412v-64.421h-22.947v-10.591h23.651v-21.181h-23.651v-25.595h-22.946v25.598h-26.653v21.181h26.653v10.591h-22.932v73.599h22.939v10.239h-26.825v21.181h26.825v12.002h22.946v-12.002h26.479v-21.181h-26.479v-10.239h22.947c8.124 12.358 16.356 27.066 24.709 44.127zM127.345 224.785h-30.005v-10.588h30.005v10.588zM127.345 187.017v10.765h-30.005v-10.765h30.005z" />
<glyph unicode="&#xe91e;" horiz-adv-x="495" d="M256.189 130.536l-4.591 26.297c6.592 1.767 13.067 3.471 19.421 5.119v61.778h-17.477v22.237h17.477v39.891h22.586v-39.891h16.946v-22.237h-16.946v-55.6c6.239 1.767 12.239 3.53 18.010 5.296-0.712-11.883-0.943-20.18-0.712-24.886-18.709-6.002-36.948-12.004-54.714-18.004zM356.797 112.532v45.36h-19.946v-8.472h-21.528v109.787h41.476v27.358h22.242v-27.358h41.476v-109.434h-21.532v8.119h-19.946v-45.36h-22.242zM336.851 218.255h19.946v20.476h-19.946v-20.476zM336.851 178.367h19.946v20.476h-19.946v-20.476zM398.985 238.731h-19.946v-20.476h19.946v20.476zM379.039 178.367h19.946v20.476h-19.946v-20.476z" />
<glyph unicode="&#xe91f;" horiz-adv-x="495" d="M93.357-62.079c-0.762 4.942-1.674 9.657-2.739 14.143-1.977-6.272-4.412-11.787-7.299-16.538-3.421 6.845-6.537 12.432-9.349 16.765 2.395 4.942 4.314 10.34 5.756 16.194 1.447 5.854 2.386 11.642 2.823 17.365 0.437 5.718 0.697 16.087 0.772 31.105h-7.983v13.688h14.938c-1.786 4.863-3.686 9.504-5.701 13.911l15.621 4.677c3.348-7.072 5.704-12.508 7.072-16.309l-7.127-2.278h17.849v-8.611c6.16 8.629 11.443 17.658 15.855 27.083l14.367-2.278c-1.103-2.701-2.222-5.324-3.361-7.872h41.682v-13.911h-48.58c-2.585-4.756-5.286-9.163-8.099-13.232 16.5 1.409 32.047 3.994 46.647 7.755l6.728-13.344c-7.225-1.404-14.371-2.659-21.442-3.762 0.647-6.16 1.729-11.88 3.255-17.166 4.636 3.459 9.103 7.053 13.399 10.777l9.349-10.949c-5.436-4.106-11.386-8.267-17.849-12.489 4.45-8.931 10.629-16.287 18.532-22.065-4.333-3.803-8.629-7.793-12.883-11.976-7.299 6.501-13.117 14.307-17.45 23.41-4.338 9.103-7.378 22.001-9.127 38.692l-8.211-0.972v-41.514c6.16 2.585 11.443 4.904 15.855 6.96 0-5.324 0.227-10.531 0.683-15.626-14.446-5.625-23.61-10.037-27.487-13.227l-8.893 12.428c3.268 1.901 4.942 4.751 5.016 8.555v49.497c-3.841 3.459-7.774 6.843-11.804 10.149h-16.934l-0.117-12.544h21.898c0-7.983-0.153-17.431-0.456-28.342l-0.456-14.654c0-6.31-0.808-11.241-2.427-14.799-1.614-3.552-3.752-5.89-6.411-7.012-2.666-1.125-7.971-1.688-15.912-1.688zM91.017-46.568l7.7-0.344c2.998 0 4.701 2.083 5.1 6.244 0.399 4.166 0.753 14.78 1.056 31.848h-8.095c-0.688-14.637-2.608-27.219-5.761-37.748z" />
<glyph unicode="&#xe920;" horiz-adv-x="495" d="M221.543 19.239l13.344-8.555c-3.348-4.904-6.993-9.712-10.949-14.427v-59.135h-15.85v42.026c-3.501-3.38-7.151-6.709-10.949-9.977-1.521 4.259-3.612 9.54-6.272 15.855 11.708 10.111 21.931 21.516 30.676 34.213zM219.721 48.888c4.863-3.342 9.425-6.611 13.682-9.805-7.983-9.275-18.588-19.197-31.82-29.765-2.813 4.254-6.193 8.74-10.149 13.455 12.776 9.729 22.201 18.437 28.287 26.114zM236.486 8.173h68.085v-14.826h-17.794v-36.721c0-6.081-1.417-10.731-4.249-13.944s-6.84-4.989-12.033-5.333c-5.188-0.339-12.874-0.568-23.066-0.683-1.065 5.016-2.468 10.34-4.216 15.965 7.904-0.53 14.138-0.795 18.704-0.795 5.546 0 8.322 2.924 8.322 8.778v32.732h-33.754v14.826zM240.248 40.793h59.302v-14.826h-59.302v14.826z" />
<glyph unicode="&#xe921;" horiz-adv-x="495" d="M332.397 49.115c3.268-3.951 6.955-8.969 11.061-15.050l-11.689-6.277h17.278v-12.656c-3.151-6.96-6.802-13.595-10.944-19.904v-4.904l6.272 5.532c4.407-3.951 9.237-8.666 14.482-14.143l-11.288-9.234c-3.538 4.598-6.695 8.513-9.466 11.744v-47.785h-15.511v39.004c-3.236-3.459-6.654-6.802-10.266-10.034-1.6 7.299-3.12 13.493-4.56 18.588 10.113 8.819 17.868 18.398 23.266 28.738h-21.671v15.055h19.332c-3.612 5.816-6.862 10.684-9.75 14.599l13.455 6.728zM346.768-44.973h30.337v46.647h-22.81v14.826h22.81v30.909h16.421v-30.909h23.493v-14.826h-23.493v-46.647h27.599v-14.821h-74.357v14.821z" />
<glyph unicode="&#xe922;" horiz-adv-x="495" d="M412.464 640.967c-34.229 63.271-100.609 91.275-100.609 91.275s2.075 11.41 57.047-23.856c40.019-25.672 78.88-57.432 103.893-99.199 14.281 31.282 22.301 66.021 22.301 102.655 0 135.426-108.765 245.386-243.701 247.451-74.849-57.159-88.004-160.596-11.107-214.605 87.126-61.196 98.535-121.353 69.493-188.773-17.768-41.245-61.535-71.999-92.846-89.669 10.037-1.239 20.24-1.952 30.613-1.952 5.567 0 11.071 0.249 16.547 0.611 48.406 34.707 76.872 79.905 90.286 128.349 18.669 67.418-77.791 140.024-77.791 140.024s4.149 7.261 19.707-2.075c15.557-9.336 105.796-76.754 103.721-152.47-0.929-33.917-12.889-60.517-25.81-79.58 22.743 13.572 43.094 30.702 60.355 50.601-1.698 29.906-7.326 63.905-22.098 91.212z" />
<glyph unicode="&#xe923;" horiz-adv-x="495" d="M289.036 618.148c29.042 92.311-98.535 123.428-134.838 206.405-20.931 47.842 1.579 94.265 24.398 125.033-16.894-4.892-33.062-11.484-48.258-19.67-40.337-130.069 71.574-185.228 71.574-185.228 4.149-1.037-10.373 0-10.373 0-88.649 39.738-112.518 108.698-118.953 142.274-8.482-8.475-16.35-17.563-23.537-27.191 34.122-70.802 121.747-117.156 121.747-117.156l-12.447-1.037c-50.519 16.839-97.633 56.149-129.060 87.111-18.673-34.807-29.288-74.581-29.288-116.845 0-105.452 65.964-195.446 158.859-231.117 46.342 29.328 111.947 79.477 130.178 137.422z" />
<glyph unicode="&#xe924;" horiz-adv-x="495" d="M171.468 286.915l23.298-5.649c-2.468-5.768-5.001-11.293-7.591-16.59h57.018v-21.537h-68.488c-4.354-7.292-8.887-13.942-13.593-19.942h68.839v-20.476c-25.299-19.18-42.482-34.478-51.542-45.893-4.354-4.825-6.592-9.354-6.707-13.59 0-4.825 4.763-7.239 14.298-7.239h16.946c11.412 0 17.47 4.71 18.176 14.121 1.417 9.53 2.353 17.298 2.828 23.298 8.821-3.296 16.356-5.706 22.595-7.235-1.533-11.534-3.533-21.712-6.002-30.539-3.296-13.178-14.362-19.767-33.186-19.767h-21.537c-24.234 0-36.36 9.002-36.36 27.005 0 6.939 2.532 13.884 7.591 20.828 7.648 10.707 20.888 23.357 39.713 37.949h-43.951v21.533h5.123c-4.001 3.649-8.066 7.116-12.182 10.412v-64.421h-22.947v-10.591h23.651v-21.181h-23.651v-25.595h-22.946v25.598h-26.653v21.181h26.653v10.591h-22.932v73.599h22.939v10.239h-26.825v21.181h26.825v12.002h22.946v-12.002h26.479v-21.181h-26.479v-10.239h22.947c8.124 12.358 16.356 27.066 24.709 44.127zM127.345 224.785h-30.005v-10.588h30.005v10.588zM127.345 187.017v10.765h-30.005v-10.765h30.005z" />
<glyph unicode="&#xe925;" horiz-adv-x="495" d="M256.189 130.536l-4.591 26.297c6.592 1.767 13.067 3.471 19.421 5.119v61.778h-17.477v22.237h17.477v39.891h22.586v-39.891h16.946v-22.237h-16.946v-55.6c6.239 1.767 12.239 3.53 18.010 5.296-0.712-11.883-0.943-20.18-0.712-24.886-18.709-6.002-36.948-12.004-54.714-18.004zM356.797 112.532v45.36h-19.946v-8.472h-21.528v109.787h41.476v27.358h22.242v-27.358h41.476v-109.434h-21.532v8.119h-19.946v-45.36h-22.242zM336.851 218.255h19.946v20.476h-19.946v-20.476zM336.851 178.367h19.946v20.476h-19.946v-20.476zM398.985 238.731h-19.946v-20.476h19.946v20.476zM379.039 178.367h19.946v20.476h-19.946v-20.476z" />
<glyph unicode="&#xe926;" horiz-adv-x="495" d="M93.357-62.079c-0.762 4.942-1.674 9.657-2.739 14.143-1.977-6.272-4.412-11.787-7.299-16.538-3.421 6.845-6.537 12.432-9.349 16.765 2.395 4.942 4.314 10.34 5.756 16.194 1.447 5.854 2.386 11.642 2.823 17.365 0.437 5.718 0.697 16.087 0.772 31.105h-7.983v13.688h14.938c-1.786 4.863-3.686 9.504-5.701 13.911l15.621 4.677c3.348-7.072 5.704-12.508 7.072-16.309l-7.127-2.278h17.849v-8.611c6.16 8.629 11.443 17.658 15.855 27.083l14.367-2.278c-1.103-2.701-2.222-5.324-3.361-7.872h41.682v-13.911h-48.58c-2.585-4.756-5.286-9.163-8.099-13.232 16.5 1.409 32.047 3.994 46.647 7.755l6.728-13.344c-7.225-1.404-14.371-2.659-21.442-3.762 0.647-6.16 1.729-11.88 3.255-17.166 4.636 3.459 9.103 7.053 13.399 10.777l9.349-10.949c-5.436-4.106-11.386-8.267-17.849-12.489 4.45-8.931 10.629-16.287 18.532-22.065-4.333-3.803-8.629-7.793-12.883-11.976-7.299 6.501-13.117 14.307-17.45 23.41-4.338 9.103-7.378 22.001-9.127 38.692l-8.211-0.972v-41.514c6.16 2.585 11.443 4.904 15.855 6.96 0-5.324 0.227-10.531 0.683-15.626-14.446-5.625-23.61-10.037-27.487-13.227l-8.893 12.428c3.268 1.901 4.942 4.751 5.016 8.555v49.497c-3.841 3.459-7.774 6.843-11.804 10.149h-16.934l-0.117-12.544h21.898c0-7.983-0.153-17.431-0.456-28.342l-0.456-14.654c0-6.31-0.808-11.241-2.427-14.799-1.614-3.552-3.752-5.89-6.411-7.012-2.666-1.125-7.971-1.688-15.912-1.688zM91.017-46.568l7.7-0.344c2.998 0 4.701 2.083 5.1 6.244 0.399 4.166 0.753 14.78 1.056 31.848h-8.095c-0.688-14.637-2.608-27.219-5.761-37.748z" />
<glyph unicode="&#xe927;" horiz-adv-x="495" d="M221.543 19.239l13.344-8.555c-3.348-4.904-6.993-9.712-10.949-14.427v-59.135h-15.85v42.026c-3.501-3.38-7.151-6.709-10.949-9.977-1.521 4.259-3.612 9.54-6.272 15.855 11.708 10.111 21.931 21.516 30.676 34.213zM219.721 48.888c4.863-3.342 9.425-6.611 13.682-9.805-7.983-9.275-18.588-19.197-31.82-29.765-2.813 4.254-6.193 8.74-10.149 13.455 12.776 9.729 22.201 18.437 28.287 26.114zM236.486 8.173h68.085v-14.826h-17.794v-36.721c0-6.081-1.417-10.731-4.249-13.944s-6.84-4.989-12.033-5.333c-5.188-0.339-12.874-0.568-23.066-0.683-1.065 5.016-2.468 10.34-4.216 15.965 7.904-0.53 14.138-0.795 18.704-0.795 5.546 0 8.322 2.924 8.322 8.778v32.732h-33.754v14.826zM240.248 40.793h59.302v-14.826h-59.302v14.826z" />
<glyph unicode="&#xe928;" horiz-adv-x="495" d="M332.397 49.115c3.268-3.951 6.955-8.969 11.061-15.050l-11.689-6.277h17.278v-12.656c-3.151-6.96-6.802-13.595-10.944-19.904v-4.904l6.272 5.532c4.407-3.951 9.237-8.666 14.482-14.143l-11.288-9.234c-3.538 4.598-6.695 8.513-9.466 11.744v-47.785h-15.511v39.004c-3.236-3.459-6.654-6.802-10.266-10.034-1.6 7.299-3.12 13.493-4.56 18.588 10.113 8.819 17.868 18.398 23.266 28.738h-21.671v15.055h19.332c-3.612 5.816-6.862 10.684-9.75 14.599l13.455 6.728zM346.768-44.973h30.337v46.647h-22.81v14.826h22.81v30.909h16.421v-30.909h23.493v-14.826h-23.493v-46.647h27.599v-14.821h-74.357v14.821z" />
<glyph unicode="&#xe929;" glyph-name="order" data-tags="order" horiz-adv-x="1021" d="M990.035 842.7c-14.771 3.384-29.706 6.050-44.574 9.012-28.001 5.58-56.006 11.147-84.011 16.71-24.616 4.891-49.232 9.776-73.85 14.649-21.353 4.227-42.714 8.413-64.064 12.659-23.534 4.681-47.056 9.42-70.587 14.113-26.938 5.372-53.88 10.725-80.822 16.082-24.523 4.875-49.046 9.743-73.569 14.613-25.8 5.124-51.596 10.259-77.399 15.365-7.417 1.467-14.82 3.803-22.289 4.073-16.975 0.614-32.151-9.827-38.259-25.696-3.415-8.875-6.578-17.847-9.84-26.78-16.715-45.79-33.429-91.582-50.139-137.375-22.676-62.137-45.358-124.272-68.020-186.415-21.183-58.088-42.315-116.194-63.549-174.263-2.57-7.029-3.261-14.092-1.904-21.399 3.334-17.94 17.998-30.702 37.036-32.242 16.688-1.35 33.399 9.95 39.293 26.427 5.895 16.483 11.871 32.937 17.88 49.378 21.368 58.48 42.773 116.946 64.148 175.424 19.815 54.21 39.608 108.429 59.416 162.643 12.203 33.401 24.41 66.8 36.63 100.196 1.897 5.183 1.92 5.094 7.497 3.962 31.963-6.482 63.928-12.967 95.906-19.373 45.031-9.021 90.082-17.949 135.113-26.968 32.095-6.428 64.172-12.962 96.262-19.418 24.619-4.954 49.246-9.865 73.871-14.792 27.714-5.544 55.432-11.080 83.146-16.629 5.157-1.032 10.304-2.114 15.736-3.232-2.475-7.956-4.739-15.496-7.163-22.984-14.414-44.531-28.55-89.154-43.377-133.548-19.731-59.082-39.496-118.16-60.19-176.909-22.514-63.911-45.904-127.517-69.315-191.105-12.931-35.118-27.157-69.74-43.134-103.606-12.27-26.008-25.509-51.486-42.812-74.605-10.087-13.478-21.54-25.653-35.759-34.865-25.397-16.454-53.379-20.923-82.914-16.844-29.044 4.012-50.147 19.879-64.442 45.030-13.971 24.583-19.092 51.637-20.777 79.441-0.65 10.722-0.182 21.516-0.071 32.278 0.022 2.147-0.485 3.158-2.62 4.010-27.312 10.908-54.572 21.945-81.84 32.962-46.533 18.802-93.059 37.616-139.592 56.419-32.789 13.249-65.581 26.489-98.37 39.737-42.023 16.978-84.044 33.96-126.073 50.921-0.54 0.218-1.178 0.193-1.968 0.31-0.11-0.972-0.114-1.729-0.289-2.444-4.825-19.657-7.402-39.644-8.188-59.83-0.865-22.234 1.171-44.202 6.895-65.799 12.69-47.889 40.557-84.352 82.984-109.535 10.268-6.095 21.601-10.414 32.517-15.391 29.252-13.335 58.54-26.594 87.821-39.866 35.975-16.304 71.963-32.581 107.937-48.888 35.288-15.996 70.511-32.137 105.871-47.969 16.082-7.201 32.255-14.262 48.701-20.572 16.81-6.449 34.32-10.615 52.301-12.293 8.508-0.793 17.071-1.079 25.617-1.357 2.078-0.067 4.177 1.113 6.284 1.185 16.849 0.568 33.477 2.721 49.887 6.587 44.486 10.476 81.233 33.449 110.611 68.371 18.599 22.108 33.852 46.411 47.204 71.951 23.515 44.976 42.241 92.041 59.825 139.536 24.363 65.799 48.532 131.683 71.744 197.895 23.689 67.573 46.394 135.493 69.016 203.434 18.361 55.143 35.983 110.531 53.89 165.824 7.541 23.291-5.321 46.308-29.271 51.795zM515.007 541.156c-20.462-1.595-36.596-18.79-36.073-40.425 0.406-16.805 10.942-30.761 26.895-36.305 9.508-3.305 19.098-6.365 28.662-9.506 48.233-15.84 96.467-31.677 144.707-47.5 25.808-8.465 52.328 10.588 52.27 37.528-0.040 17.888-11.075 32.72-28.61 38.371-58.021 18.693-116.031 37.419-174.103 55.956-4.359 1.392-9.229 2.233-13.748 1.88zM633.651 324.925c-56.596 18.157-113.094 36.62-169.629 54.966-5.981 1.94-12.146 2.62-18.293 1.34-25.81-5.372-39.281-34.172-26.864-57.413 5.749-10.762 15.145-16.66 26.589-20.408 54.009-17.694 107.906-35.729 161.879-53.536 6.026-1.989 12.272-3.313 17.362-4.665 4.614 0.731 7.961 1.072 11.221 1.81 26.427 5.986 38.842 38.973 23.113 60.943-6.387 8.916-15.129 13.676-25.378 16.965zM619.125 614.747c38.918-10.858 77.832-21.728 116.771-32.51 8.408-2.327 16.913-4.306 25.373-6.446 0.079 0.227 0.158 0.452 0.237 0.679 2.468 0.299 4.954 0.492 7.402 0.913 18.428 3.169 31.263 19.282 32.427 35.842 1.474 20.954-12.244 37.053-29.675 41.794-26.787 7.287-53.608 14.453-80.393 21.747-31.686 8.629-63.35 17.334-95.024 26.011-5.613 1.538-11.219 1.942-17.004 0.764-17.945-3.654-30.85-18.645-31.562-37.929-0.645-17.445 10.581-33.205 27.48-38.429 14.548-4.498 29.297-8.345 43.968-12.437zM495.531 732.046c-9.248 7.022-20.314 8.641-32.572 9.681-3.212-0.274-7.457-0.327-11.587-1.044-17.563-3.050-30.334-17.716-31.992-34.354-2.143-21.494 11.095-36.454 25.954-41.739 4.314-1.534 9.062-1.835 13.602-2.754 7.369-1.491 14.756-2.732 22.218-0.726 15.97 4.29 26.443 14.475 29.916 30.551 3.556 16.459-2.133 30.207-15.539 40.385zM373.961 563.776c-14.967-16.208-12.492-43.578 4.989-57.018 10.861-8.352 23.988-9.203 35.218-11.694 12.685 0.416 22.265 4.326 30.236 12.43 18.141 18.442 13.216 50.010-9.609 62.182-6.707 3.576-14.059 4.006-21.112 5.902-15.717 4.227-28.831-0.007-39.721-11.802zM332.422 424.409c-15.232-3.741-25.693-13.037-29.89-28.185-4.347-15.688-0.208-29.563 12.022-40.371 11.059-9.772 25.182-12.483 39.079-12.42 21.996 0.101 38.006 17.5 38.4 39.869-0.151 12.513-5.463 22.93-15.535 31.053-7.153 5.768-15.8 7.211-24.435 8.93-6.53 1.299-13.039 2.745-19.641 1.125z" />
<glyph unicode="&#xe92a;" glyph-name="arrow2" data-tags="arrow2" horiz-adv-x="1004" d="M113.57-64c-37.715 0-74.637 18.792-96.175 53.095-33.331 53.095-17.329 123.124 35.722 156.452l506.63 318.178-501.799 281.751c-54.648 30.668-74.059 99.81-43.392 154.455 30.626 54.738 99.944 74.149 154.458 43.392l834.824-468.691-829.993-521.254c-18.748-11.789-39.622-17.376-60.277-17.376z" />
<glyph unicode="&#xe92b;" glyph-name="Attraction" data-tags="Attraction" horiz-adv-x="462" d="M233.259 934.871c19.602 0 35.429-13.822 35.429-30.91 0-3.769 10.806-34.426 9.048-43.724-1.257-7.287-5.527-16.584-12.062-26.133 0.755-0.502 1.254-1.507 1.758-2.766 17.088-61.313 35.433-63.073 35.433-63.073 14.322-3.016 26.887-9.048 36.436-17.591 13.067-6.784 26.637-34.426 22.364-72.875-0.755-7.287 1.003-13.569 3.267-19.349-10.803-12.815-19.351-29.15-24.626-47.746-5.025 5.278-9.549 13.569-13.571 23.873-2.764-4.775-5.025-8.293-6.282-10.053 1.257-16.333 13.822-58.8 20.355-88.704 1.507 4.271 3.012 8.042 5.025 11.558-3.771 11.309-4.774 25.884-2.511 41.715 3.771 24.626 16.082 50.76 30.405 63.324 6.205 4.964 3.583 34.695 9.573 34.691 0.074 0 0.15-0.005 0.227-0.014 0.784-0.131 3.607-1.010 6.877-1.010 3.019 0 6.42 0.748 8.954 3.523 6.631 6.876 10.622 22.39 17.131 22.388 0.15 0 0.306-0.009 0.459-0.026 10.803-0.753 17.589-24.878 19.347-32.415 1.758-8.543-17.84-19.6-15.078-29.4 1.509-5.278 4.27-10.805 0-29.4-3.771-16.837 4.018-34.177 0.755-42.719-3.771-10.555-9.8-22.868-17.088-33.422 4.022-7.789 6.282-17.842 6.282-29.149 0-5.529-6.031-8.795-10.304-12.564-0.502 1.005-1.254 2.009-1.758 2.764-1.003-13.067-5.028-39.202-13.818-56.539-13.571-26.135-19.098-23.118-32.919-27.642-0.389-0.112-0.843-0.163-1.34-0.163-3.982 0-10.832 3.375-11.727 6.95l13.822 4.271c0 0 10.552 19.098 6.282 31.915-0.071 0.196-0.181 0.287-0.325 0.287-1.896 0-9.705-15.776-12.742-17.878-3.267-2.009-5.527-3.769-7.54-4.271 1.257 8.293 4.273 18.595 9.048 29.904 5.78 13.067 15.074 21.36 22.363 28.646-0.251 2.009 0.755 23.369 3.518 29.904-0.886 0.177-1.775 0.354-2.577 0.354-0.332 0-0.647-0.031-0.941-0.103-2.26-0.502-6.031-22.868-5.78-25.38-7.54-7.789-14.326-15.33-20.355-29.651-5.025-12.062-10.049-28.146-11.307-37.192 2.503-0.736 4.832-1.557 7.393-1.557 1.813 0 3.74 0.411 5.926 1.557 0 0 0.034 0.014 0.046 0.014 0.372 0-0.8-3.28-0.8-3.28l-15.58-7.036c1.254-4.271 9.298-15.831 12.815-16.082 1.313-0.107 2.623-0.163 3.932-0.163 7.982 0 15.939 2.088 23.708 7.701 11.307-32.164 27.644-70.36 55.282-105.039 1.257-1.507-6.533-3.518-8.539-17.591-0.502-5.025 5.276-17.84 4.27-24.122-0.236-1.727-2.921-2.204-6.58-2.204-4.516 0-10.519 0.728-15.224 0.728-3.69 0-6.587-0.447-7.344-2.042-6.53-12.817-1.889-36.802-3.998-36.802-0.083 0-0.175 0.036-0.279 0.114-10.301 6.784-17.338 11.811-21.105 19.602 0.251-34.426 0-77.397-0.755-116.85-1.257-84.181 13.32-106.295 15.576-112.828h8.044v-62.068h-275.409v62.068h49.504c-6.784 25.129 22.113 112.074 1.006 187.462-4.022 14.071 10.552 25.129 6.031 41.964-5.527 23.369-12.313 40.206-12.313 69.857 0 8.293 0.755 17.088 1.507 24.628-13.818 8.543 0.502 94.735-5.78 107.801-8.291 16.836-9.8 37.693-2.764 68.099 4.521 20.355 15.078 55.786 19.098 67.597 8.794 26.384 5.527 35.18 10.049 57.795-0.251 0-0.251 0-0.251 0.251-2.006-7.789-8.037-29.15-9.545-32.919-10.743-27.528-28.662-46.882-42.393-46.882-1.688 0-3.31 0.292-4.849 0.896-4.273 1.76-7.789 5.78-10.053 11.56-8.546 11.558-17.84 31.662-25.129 55.533-7.791 25.884-12.062 63.577-13.32 64.079-12.564 5.025-48.749 11.056-49.755 25.129-0.502 10.051 3.771 24.626 5.025 27.138 1.761 2.764 5.028 4.775 8.797 6.031-5.527 2.766-12.815 8.042-10.555 13.32 3.016 7.538 10.806 13.318 21.36 13.318s21.865-5.78 21.865-14.574c0-4.522-6.282-7.538-10.307-10.304 0.755-0.251 1.257-0.251 1.509-0.251 9.8-1.758 32.166-27.138 32.166-38.446 0-3.771 21.107-42.719 30.405-74.13 0.251-0.753 0.502-1.507 0.755-2.26 6.533 10.553 14.577 21.36 22.113 30.909-0.251 3.267 1.758 12.815 2.511 16.082 5.025 21.611 12.815 52.771 46.49 59.555 1.128 0.251 2.197 0.377 3.203 0.377 1.003 0 1.947-0.126 2.828-0.377 8.288 4.522 17.589 8.042 27.134 10.051l-7.034 32.668c-5.53-2.513-11.057-4.273-16.335-4.524-0.067-0.007-0.134-0.009-0.203-0.009-5.856 0-17.648 20.869-18.392 21.117-0.686 0.258-1.411 0.354-2.138 0.354-2.154 0-4.352-0.838-5.792-0.838-0.927 0-1.536 0.347-1.62 1.49-1.254 10.053-3.016 18.093-4.524 24.375-3.263 15.329-8.539 20.606-8.539 29.4 0 17.842 13.567 34.677 32.414 41.964 2.517 14.828 17.092 26.388 34.934 26.388zM218.813 425.114c1.046 0 3.545 24.738 30.024 75.529 9.298 17.591 21.36 35.182 32.163 47.242-9.798-19.351-19.098-52.017-24.878-89.459-3.516-23.118-5.527-43.975-6.282-61.817 0 0.251 0 0.251-0.251 0.251-0.752-79.91 5.279-147.003 1.761-197.009-7.791-106.045-36.184-158.814-60.307-176.656h15.828c22.617 22.617 47.242 79.406 54.53 179.42 2.009 27.389-0.502 81.166-2.764 135.946 0 1.256 0 3.518-0.251 7.538-0.251 6.784-0.502 13.571-0.755 20.606-0.502 20.104 0.755 50.508 7.288 90.212 9.798 58.299 27.893 104.284 42.718 104.284-2.26 3.518-4.521 5.78-7.288 6.282-0.231 0.026-0.463 0.038-0.7 0.038-2.073 0-4.304-0.97-6.337-2.551-13.818-6.282-33.921-30.155-50.257-61.064-22.614-41.964-28.896-67.597-24.373-78.653 0.045-0.091 0.088-0.139 0.132-0.139zM215.921 554.42c-10.559-5.278-23.623-19.853-34.179-35.182-17.087-24.373-22.363-49.002-11.809-54.781 1.426-0.783 3.074-1.154 4.903-1.154 11.668 0 30.583 15.224 45.356 36.083l39.706 48.499c-22.872-9.298-40.712-38.197-50.508-49.002-11.95-13.208-20.751-21.343-27.279-21.343-1.297 0-2.506 0.322-3.63 0.987-7.037 3.771-1.509 24.375 14.319 46.991 7.036 10.055 16.335 22.619 23.121 28.901zM308.896 23.197h14.073c-0.502 0.755-1.006 1.507-1.257 2.262-29.906 72.119 0.755 226.409 9.294 275.16 6.282 38.197 1.761 44.226-0.501 44.981-3.265-21.361-48.75-249.028-21.609-322.403zM233.259 960c-24.647 0-46.015-13.476-55.399-33.528-22.586-13.027-37.074-35.883-37.074-59.951 0-9.456 2.831-16.548 5.107-22.247 1.481-3.71 2.883-7.215 3.984-12.387 1.488-6.239 3.016-13.158 4.125-21.946 1.276-11.821 9.896-21.031 21.188-23.285 2.868-4.049 6.019-8.033 9.595-11.432-37.731-11.056-50.249-44.619-56.113-67.12-1.405 3.067-2.745 5.955-3.979 8.615-2.209 4.762-4.034 8.592-5.052 11.059-2.295 12.428-11.703 27.537-23.116 39.224 0.188 1.366 0.286 2.794 0.286 4.283 0 22.263-20.641 39.702-46.994 39.702-20.073 0-37.617-11.427-44.691-29.114-2.816-6.563-3.473-15.122 0.205-23.622-2.804-8.57-5.794-22.328-5.24-33.454 1.973-27.644 31.862-37.256 53.068-43.404 2.396-14.324 5.923-34.782 11.044-51.79 7.617-24.951 17.209-46.33 27.205-60.745 4.93-10.5 12.81-18.365 22.469-22.342 4.832-1.901 9.556-2.788 14.417-2.788 0.755 0 1.507 0.021 2.252 0.062-1.438-5.536-2.727-10.768-3.74-15.325-7.774-33.587-6.635-59.908 3.657-82.349 0.588-5.852-0.22-21.829-0.771-32.641-1.77-34.882-2.475-58.23 4.331-73.239-0.447-5.68-0.779-11.725-0.779-17.749 0-26.199 4.72-43.979 9.289-61.174 1.237-4.645 2.499-9.396 3.7-14.467 0.258-1.863-1.209-5.625-2.083-7.872-3.153-8.087-7.916-20.307-3.657-35.214 12.024-42.948 5.57-92.684 0.858-128.999-1.273-9.802-2.408-18.564-3.117-26.429h-24.088c-13.877 0-25.129-11.25-25.129-25.129v-62.068c0-13.879 11.252-25.129 25.129-25.129h275.411c13.877 0 25.129 11.25 25.129 25.129v62.065c0 10.34-6.246 19.222-15.169 23.078-4.101 13.17-9.208 38.942-8.455 89.375 0.451 23.558 0.729 48.613 0.822 72.678 5.455 0.848 10.614 3.48 14.46 7.461 7.932 8.204 7.617 17.505 7.34 25.712-0.036 1.118-0.095 2.782-0.12 4.657 0.365-0.007 0.724-0.009 1.073-0.009 26.849 0 30.933 19.937 31.478 23.933 1.325 8.229-0.951 16.531-2.96 23.856-0.203 0.731-0.408 1.447-0.599 2.133 11.737 11.837 9.435 26.577 2.228 35.218-23.902 29.999-38.531 63.63-47.813 88.773 3.442 4.653 6.92 10.375 10.614 17.489 8.243 16.251 12.537 36.51 14.675 50.385 5.702 4.865 14.033 13.698 14.033 27.537 0 9.305-1.194 18.215-3.497 26.378 5.073 8.85 9.497 18.379 12.841 27.742 3.642 9.513 2.181 19.605 0.896 28.511-0.896 6.188-1.822 12.587-0.795 17.171 3.714 16.175 3.349 26.092 1.779 33.79 0.196 0.224 0.392 0.447 0.587 0.673 6.031 7.015 16.123 18.755 12.803 34.894-5.424 23.293-17.009 50.663-42.215 52.42-0.58 0.040-1.622 0.086-2.205 0.086-17.128 0.003-25.846-13.196-30.792-22.098-4.282 25.356-15.607 46.143-31.745 56.192-11.613 9.75-26.142 16.891-42.346 20.825-2.623 2.883-9.963 12.748-18.074 39.513 3.92 7.282 7.473 15.75 8.966 24.401 2.044 10.803-1.417 24.466-6.936 44.037-0.743 2.623-1.405 4.892-1.81 6.514-1.445 29.715-28.027 53.481-60.493 53.481v0z" />
<glyph unicode="&#xe92c;" glyph-name="entertainment" data-tags="entertainment" horiz-adv-x="1293" d="M521.25 564.535c-22.512 0-41.4 15.51-46.562 36.428-1.703 6.902-8.227 11.529-15.335 11.529h-0.782c-10.477 0-18.059-9.912-15.461-20.064 8.917-34.838 40.521-60.591 78.139-60.591s69.219 25.753 78.139 60.591c2.598 10.151-4.983 20.064-15.461 20.064h-0.782c-7.108 0-13.634-4.627-15.335-11.529-5.161-20.917-24.050-36.428-46.562-36.428v0zM417.751 648.9c-41.822 0-75.845 34.023-75.845 75.845s34.023 75.845 75.845 75.845 75.845-34.023 75.845-75.845-34.023-75.845-75.845-75.845zM417.751 772.719c-26.45 0-47.974-21.519-47.974-47.974s21.524-47.974 47.974-47.974c26.45 0 47.974 21.519 47.974 47.974s-21.524 47.974-47.974 47.974zM624.751 648.9c-41.822 0-75.845 34.023-75.845 75.845s34.023 75.845 75.845 75.845 75.845-34.023 75.845-75.845-34.023-75.845-75.845-75.845zM624.751 772.719c-26.45 0-47.974-21.519-47.974-47.974s21.524-47.974 47.974-47.974 47.974 21.519 47.974 47.974-21.524 47.974-47.974 47.974zM624.749 750.435h-0.004c0-2.218 0.361-10.36 0.361-12.845 0-7.093-5.752-12.845-12.847-12.845-5.368 0-9.954 3.295-11.876 7.97-0.843-2.507-1.327-5.175-1.327-7.97 0-14.188 11.503-25.69 25.692-25.69s25.692 11.503 25.692 25.69c0.002 14.188-11.5 25.69-25.69 25.69zM417.753 750.435h-0.004c0-2.35 0.004-10.492 0.004-12.845 0-7.093-5.752-12.845-12.847-12.845-5.177 0-9.608 3.078-11.644 7.488-0.745-2.37-1.203-4.868-1.203-7.49 0-14.188 11.503-25.69 25.692-25.69s25.686 11.503 25.686 25.69c0.002 14.19-11.494 25.692-25.684 25.692zM521.254 447.822c-141.211 0-256.092 114.882-256.092 256.090s114.88 256.088 256.092 256.088c141.204 0 256.086-114.882 256.086-256.090s-114.882-256.088-256.086-256.088zM521.254 931.553c-125.522 0-227.646-102.119-227.646-227.641s102.124-227.641 227.646-227.641 227.637 102.117 227.637 227.639-102.115 227.643-227.637 227.643zM938.603 203.945c-15.919 15.919-18.306 40.243-7.167 58.683 3.676 6.085 2.333 13.968-2.692 18.995l-0.552 0.552c-7.41 7.41-19.779 5.761-25.119-3.254-18.328-30.941-14.192-71.496 12.408-98.096s67.156-30.736 98.096-12.408c9.015 5.34 10.664 17.709 3.254 25.119l-0.552 0.552c-5.027 5.027-12.912 6.367-18.995 2.692-18.441-11.14-42.767-8.75-58.683 7.167v0zM925.072 336.785c-29.572 29.572-29.572 77.689 0 107.261s77.689 29.572 107.261 0 29.572-77.689 0-107.261c-29.572-29.572-77.687-29.572-107.261 0zM1012.626 424.339c-18.704 18.704-49.138 18.706-67.844 0s-18.704-49.143 0-67.844c18.704-18.704 49.138-18.706 67.844 0 18.706 18.704 18.704 49.14 0 67.844zM1071.444 190.415c-29.572 29.572-29.572 77.689 0 107.261s77.689 29.572 107.261 0 29.572-77.689 0-107.261c-29.572-29.574-77.689-29.574-107.261 0zM1158.998 277.967c-18.704 18.704-49.138 18.706-67.844 0s-18.704-49.143 0-67.844c18.704-18.704 49.138-18.706 67.844 0 18.704 18.706 18.702 49.143 0 67.844zM1143.237 262.211l-0.002 0.002c-1.568-1.568-7.071-7.579-8.828-9.337-5.016-5.016-13.149-5.016-18.167 0.002-3.795 3.795-4.707 9.369-2.761 14.033-2.368-1.175-4.599-2.72-6.576-4.699-10.032-10.032-10.032-26.298 0.002-36.332s26.3-10.034 36.332-0.002c10.036 10.032 10.036 26.298 0 36.332zM996.87 408.579l-0.002 0.002c-1.662-1.662-7.416-7.421-9.080-9.085-5.016-5.016-13.149-5.016-18.167 0.002-3.66 3.66-4.618 8.972-2.937 13.529-2.203-1.149-4.293-2.592-6.148-4.447-10.032-10.032-10.032-26.298 0.002-36.332s26.296-10.030 36.328 0.002c10.034 10.034 10.041 26.294 0.004 36.328zM856.076 121.415c-99.851 99.851-99.851 262.318-0.002 362.167s262.316 99.849 362.167-0.002c99.847-99.847 99.847-262.314-0.002-362.163s-262.316-99.849-362.163-0.002zM1198.126 463.463c-88.757 88.757-233.179 88.759-321.936 0.002s-88.755-233.179 0.002-321.936 233.174-88.755 321.931 0.002 88.759 233.174 0.002 321.931zM354.197 93.418c15.919 15.919 18.306 40.243 7.167 58.683-3.676 6.085-2.333 13.968 2.692 18.995l0.552 0.552c7.41 7.41 19.779 5.761 25.119-3.254 18.328-30.941 14.192-71.496-12.408-98.096s-67.156-30.736-98.096-12.408c-9.015 5.34-10.664 17.709-3.254 25.119l0.552 0.552c5.027 5.027 12.912 6.367 18.995 2.692 18.441-11.14 42.767-8.75 58.683 7.167v0zM260.465 226.259c-29.572 29.572-29.572 77.689 0 107.261s77.689 29.572 107.261 0c29.572-29.572 29.572-77.689 0-107.261s-77.687-29.572-107.261 0zM280.175 245.968c18.706-18.706 49.143-18.704 67.844 0 18.704 18.704 18.706 49.138 0 67.844s-49.143 18.704-67.844 0c-18.704-18.704-18.706-49.14 0-67.844zM114.095 79.889c-29.572 29.572-29.572 77.689 0 107.261s77.689 29.572 107.261 0c29.572-29.572 29.572-77.689 0-107.261s-77.689-29.574-107.261 0zM133.803 99.596c18.706-18.706 49.143-18.704 67.844 0 18.704 18.704 18.706 49.138 0 67.844s-49.143 18.704-67.844 0c-18.702-18.702-18.704-49.138 0-67.844zM149.563 151.685l0.002 0.002c1.568-1.568 7.071-7.579 8.828-9.337 5.016-5.016 13.149-5.016 18.167 0.002 3.795 3.795 4.707 9.369 2.761 14.033 2.368-1.175 4.599-2.72 6.576-4.699 10.032-10.032 10.032-26.298-0.002-36.332s-26.3-10.034-36.332-0.002c-10.036 10.032-10.036 26.298 0 36.332zM295.931 298.052l0.002 0.002c1.662-1.662 7.416-7.421 9.080-9.085 5.016-5.016 13.149-5.016 18.167 0.002 3.66 3.66 4.618 8.972 2.937 13.529 2.203-1.149 4.293-2.592 6.148-4.447 10.032-10.032 10.032-26.298-0.002-36.332s-26.296-10.030-36.328 0.002c-10.034 10.034-10.041 26.294-0.004 36.328zM74.561 10.891c-99.849 99.849-99.849 262.316-0.002 362.163 99.851 99.851 262.318 99.851 362.167 0.002s99.849-262.316-0.002-362.167c-99.847-99.847-262.314-99.847-362.163 0.002zM94.677 31.007c88.757-88.757 233.174-88.759 321.931-0.002s88.759 233.179 0.002 321.936-233.179 88.755-321.936-0.002-88.755-233.174 0.002-321.931z" />
<glyph unicode="&#xe92d;" glyph-name="excursions" data-tags="excursions" horiz-adv-x="1658" d="M1363.355 20.903c3.218 0 6.489 0.203 9.787 0.618 33.546 4.226 60.637 31.317 64.866 64.863 5.786 45.933-29.863 85.051-74.653 85.051-3.215 0-6.486-0.201-9.784-0.618-33.546-4.226-60.637-31.314-64.861-64.861-5.795-45.938 29.857-85.053 74.645-85.053zM1319.487 102.075c2.463 19.535 18.429 35.502 37.967 37.965 1.97 0.251 3.956 0.373 5.906 0.373 12.693 0 24.795-5.466 33.201-15 8.522-9.659 12.308-22.146 10.668-35.151-2.463-19.535-18.429-35.505-37.962-37.967-1.975-0.248-3.959-0.373-5.909-0.373-12.696 0-24.798 5.469-33.206 15.003-8.517 9.656-12.306 22.14-10.665 35.151zM1312.815 638.322c0-7.656-6.207-13.863-13.863-13.863s-13.863 6.207-13.863 13.863c0 7.656 6.207 13.863 13.863 13.863s13.863-6.207 13.863-13.863zM1424.53 638.325c0-7.658-6.208-13.866-13.866-13.866s-13.866 6.208-13.866 13.866c0 7.658 6.208 13.866 13.866 13.866s13.866-6.208 13.866-13.866zM1315.071 539.024c12.86-6.302 26.843-9.472 40.845-9.472 12.169 0 24.341 2.39 35.814 7.188l5.006 2.092c3.948 1.652 5.82 6.19 4.165 10.144-1.652 3.956-6.204 5.814-10.147 4.171l-5.006-2.095c-20.566-8.6-43.857-7.898-63.863 1.9-3.85 1.886-8.486 0.287-10.372-3.552-1.881-3.85-0.293-8.494 3.558-10.375zM1256.61 672.133c1.911 0 3.825 0.699 5.318 2.112l2.388 2.248c9.152 8.628 21.572 12.885 34.123 11.696 4.399-0.396 8.054 2.719 8.458 6.982 0.412 4.263-2.711 8.051-6.976 8.458-17.022 1.602-33.844-4.159-46.239-15.855l-2.388-2.248c-3.12-2.936-3.262-7.845-0.326-10.963 1.527-1.613 3.58-2.429 5.642-2.429zM1407.488 689.601l3.279-0.1c12.582-0.371 24.386-6.149 32.401-15.858 1.535-1.855 3.758-2.817 5.984-2.817 1.736 0 3.485 0.582 4.931 1.775 3.307 2.725 3.775 7.611 1.048 10.915-10.86 13.155-26.86 20.984-43.902 21.486l-3.271 0.098c-4.098 0.209-7.865-3.232-7.99-7.517-0.125-4.279 3.243-7.854 7.519-7.982zM1483.153 383.68c-11.063 0.462-22.494 0.936-34.217 1.808v67.418c19.728 21.658 30.526 49.827 30.526 79.935 0.195 2.786 3.26 12.035 5.098 15.933 4.633 5.539 6.349 14.289 8.383 28.916 4.31 31.128 11.166 60.47 20.379 87.224 6.171 17.426 9.327 35.964 9.327 54.967 0 17.343-2.811 34.39-8.595 52.12-0.892 2.733-2.491 5.182-4.639 7.090-5.137 4.577-11.843 9.13-19.198 13.484 1.19 0.944 2.259 2.070 3.162 3.354 3.864 5.483 3.959 12.777 0.237 18.36-26.121 39.188-68.123 65.897-115.234 73.28-0.833 0.131-1.672 0.195-2.513 0.195-1.206 0-2.407-0.134-3.588-0.401-9.946-2.251-23.725-7.218-35.942-11.631-0.833 2.028-2.073 3.898-3.691 5.472-3.065 2.989-7.146 4.611-11.336 4.611-1.142 0-2.29-0.12-3.43-0.365-77.793-16.802-134.254-86.299-134.254-165.245 0-19.207 3.157-37.856 9.375-55.424 9.695-28.144 16.546-57.43 20.31-86.912 2.304-16.624 4.137-24.57 8.578-29.593 1.669-3.485 4.46-12.442 4.602-15.54 0-29.609 10.849-57.804 30.674-79.905l-2.154-68.326c-16.953-3.605-61.489-3.928-79.529-4.059-14.108-0.103-21.664-0.178-25.837-0.652-115.655-12.735-115.1-105.408-114.515-203.519l0.095-24.012v-62.022c0-21.486 17.482-38.968 38.97-38.968h72.413v-50.006c0-35.989 29.281-65.27 65.27-65.27h302.968c35.989 0 65.27 29.281 65.27 65.27v50.006h37.669c21.486 0 38.965 17.482 38.965 38.968v62.022c0.008 209.080-65.579 226.907-173.6 231.418zM1299.715 829.44c5.394-4.519 12.537-7.291 20.118-7.291 7.726 0 14.576 2.477 31.050 8.455 8.018 3.059 18.663 6.851 26.094 9.038 7.143-1.46 14.139-3.499 20.694-6.124l-2.914-22.012c-3.207-23.469 14.727-31.78 32.214-39.94 11.080-5.101 32.214-14.869 44.754-23.032 2.332-9.475 3.496-19.095 3.496-28.57 0-13.557-2.184-26.823-6.555-39.65-10.498-30.323-18.075-62.685-22.594-96.356-0.875-5.683-1.46-8.893-1.752-10.642-8.015-13.264-11.946-32.799-11.946-40.525 0-19.095-7.436-37.171-20.85-50.872l-3.647-3.644-12.097-5.243c-27.116-11.807-58.163-11.807-85.276 0l-12.247 5.249-3.496 3.644c-13.415 13.701-20.848 31.777-20.848 50.872 0 7.726-4.079 27.261-11.952 40.525-0.437 1.894-1.165 5.539-1.894 12.097-3.937 29.738-11.225 60.64-23.182 96.938-3.931 12.1-5.973 24.781-5.973 37.611 0.15 46.935 27.698 89.21 68.805 109.473zM1425.664 807.431c-0.078-0.045 0.234-0.223 0.254-0.301 0.025 0.061-0.396 0.276-0.254 0.301v0zM1426.647 806.286c5.188-3.098 24.884-11.425 43.397-21.151-18.727 9.821-38.513 18.206-43.397 21.151zM1469.735 555.272c-1.198-2.616-2.51-6.182-3.733-10.010 1.212 3.85 2.513 7.405 3.733 10.010zM1417.646 346.938l-4.575-12.478c-3.46-28.601-27.537-26.060-56.344-26.436-0.504-0.006-1.011-0.011-1.518-0.020-28.952-0.382-53.689-3.416-57.762 25.249l-6.040 17.184c6.706 5.831 10.35 13.849 10.498 24.636l2.482 81.922 0.142 1.75c15.451-6.706 32.069-10.057 48.543-10.057 16.616 0 33.234 3.352 48.685 10.057v-79.593c-0.003-13.116 6.115-24.779 15.888-32.214zM1194.472 198.693c0 1.457 1.165 2.622 2.619 2.622h83.816c6.413 0 12.392 3.644 15.309 9.475l15.159 30.468c0.293 0.437 0.875 0.875 1.46 0.875h100.875c0.582 0 1.165-0.437 1.46-0.875l15.159-30.468c2.917-5.831 8.748-9.475 15.159-9.475h83.964c1.46 0 2.624-1.165 2.624-2.622v-202.185c-1.020-3.499-3.059-6.561-5.683-8.893h-325.946c-3.065 2.48-5.101 5.831-5.973 9.768v201.31zM1441.179 469.572c7.469 9.573 13.161 20.405 16.886 32.251-3.697-11.868-9.386-22.709-16.886-32.251zM1497.969 670.199c-10.066-29.225-16.883-59.751-21.107-90.274-1.309-9.405-2.624-16.292-4.095-19.385 1.399 3.134 2.775 9.882 4.059 19.34 4.079 30.612 10.938 61.077 21.14 90.38 5.391 15.596 8.305 32.214 8.305 49.708 0 10.69-1.518 20.942-3.65 30.98 2.204-10.043 3.795-20.29 3.795-31.067-0.003-17.535-2.925-34.098-8.447-49.682zM1466.941 807.715c4.388-0.616 8.765-1.304 13.086-2.324 0.022-0.039 0.064-0.067 0.086-0.106-4.327 1.078-8.737 1.8-13.172 2.429zM1446.484 809.072c0.437 0.003 0.897 0.106 1.334 0.106 0.020 0 0.045-0.003 0.067-0.003-0.468 0-0.942-0.098-1.401-0.103zM1375.873 871.528c42.79-6.706 79.473-30.507 102.914-64.646-23.525 33.986-60.216 58.082-102.984 64.54-17.053-3.644-51.017-18.223-55.973-18.223-0.142 0-0.178 0.092-0.284 0.142h0.15c5.196 0.003 38.97 14.289 56.177 18.187zM1319.376 853.43c-0.025 0.031-0.128 0.031-0.128 0.064 0 1.605 0.875 9.183 1.894 16.033 0.059 0.014 0.114 0.039 0.176 0.053-1.284-6.756-1.931-14.429-1.942-16.15zM1251.816 834.057c-31.679-28.203-51.805-69.109-51.805-113.944-0.123-15 2.493-29.392 6.533-43.074-4.109 13.693-6.672 28.102-6.672 43.166 0 44.712 20.168 85.622 51.945 113.852zM1229.425 579.925c-1.19 9.286-3.237 18.51-5.018 27.76 1.775-9.255 3.8-18.471 5.045-27.804 1.605-11.807 3.207-19.68 4.959-21.134 0.404-0.326 1.014-1.591 1.594-2.708-0.616 1.162-1.254 2.435-1.713 2.78-1.624 1.298-3.246 9.417-4.867 21.107zM1242.736 532.842c0 3.365-1.435 9.261-3.187 14.604 1.803-5.377 3.313-11.322 3.313-14.646 0-28.278 11.37-53.789 29.738-72.594 0.064-0.15 0.123-0.304 0.181-0.454-0.056 0.117-0.12 0.234-0.176 0.351-18.505 18.833-29.869 44.487-29.869 72.739zM1132.389 360.54c-63.866-14.356-77.682-61.314-80.423-125.662 2.736 64.376 16.529 111.378 80.423 125.662zM1051.721 229.147c0.020 0.613 0.020 1.259 0.039 1.872-0.020-0.613-0.020-1.259-0.039-1.872zM1514.857-47.766h-302.968c-26.954 0-49.033 22.082-49.033 49.033v66.084h0.128v-66.181c0-26.821 21.864-48.833 48.978-48.833h302.912c26.966 0 48.983 22.009 48.983 48.833v66.181h0.036v-66.084c-0.003-26.952-22.087-49.033-49.036-49.033zM672.673 638.325c0-7.658-6.208-13.866-13.866-13.866s-13.866 6.208-13.866 13.866c0 7.658 6.208 13.866 13.866 13.866s13.866-6.208 13.866-13.866zM784.386 638.325c0-7.658-6.208-13.866-13.866-13.866s-13.866 6.208-13.866 13.866c0 7.658 6.208 13.866 13.866 13.866s13.866-6.208 13.866-13.866zM674.924 563.212c12.86-6.302 26.843-9.472 40.845-9.472 12.169 0 24.347 2.39 35.819 7.188l5.004 2.092c3.948 1.652 5.82 6.19 4.171 10.144-1.658 3.956-6.207 5.814-10.147 4.171l-5.009-2.095c-20.566-8.6-43.857-7.898-63.858 1.9-3.853 1.886-8.492 0.287-10.378-3.552-1.886-3.847-0.293-8.492 3.552-10.375zM624.169 676.495c9.158 8.628 21.572 12.885 34.123 11.696 4.399-0.396 8.054 2.719 8.458 6.982 0.412 4.263-2.711 8.051-6.976 8.458-17.022 1.602-33.844-4.159-46.236-15.855l-2.388-2.248c-3.123-2.936-3.265-7.845-0.326-10.963 1.521-1.619 3.574-2.435 5.636-2.435 1.911 0 3.828 0.699 5.318 2.112l2.39 2.254zM767.347 689.601l3.274-0.1c12.582-0.371 24.386-6.149 32.401-15.858 1.538-1.855 3.758-2.817 5.984-2.817 1.736 0 3.488 0.582 4.931 1.775 3.307 2.725 3.775 7.611 1.048 10.915-10.86 13.155-26.86 20.984-43.896 21.486l-3.274 0.098c-4.098 0.209-7.865-3.232-7.99-7.517-0.128-4.279 3.243-7.854 7.522-7.982zM369.717 545.345v160.359c-17.755 28.489-63.058 79.364-142.194 32.186-214.415-127.813-227.523 170.656-227.523 170.656s112.412-62.309 193.671 10.824c68.78 61.893 152.076 26.79 176.055 14.537v26.094h29.799v-414.655h-29.807zM467.427 51.777h-144.924c-3.756 0-6.801 3.045-6.801 6.801v330.691c0 3.586 2.906 6.491 6.491 6.491h145.543c3.586 0 6.491-2.906 6.491-6.491v-330.691c0-3.756-3.045-6.801-6.801-6.801zM841.693 383.66c-11.044 0.326-22.413 0.972-34.098 1.947v67.217c19.803 21.756 30.523 50.006 30.523 79.88 0.326 2.922 3.251 12.016 5.193 15.914 4.55 5.845 6.177 14.289 8.444 29.225 4.226 30.849 11.044 60.397 20.137 87.026 6.168 17.538 9.419 36.045 9.419 54.878 0 17.538-2.925 34.421-8.444 52.282-0.975 2.597-2.599 5.196-4.875 7.143-4.867 4.547-11.684 9.093-19.154 13.311 1.293 0.975 2.268 2.273 3.243 3.574 3.9 5.196 3.9 12.662 0.326 18.184-26.305 39.291-68.187 65.919-115.278 73.388h-2.594c-1.301 0-2.276 0-3.574-0.326-10.069-2.273-23.703-7.146-36.040-11.69-0.649 2.271-1.95 3.898-3.574 5.519-2.925 2.922-7.143 4.547-11.37 4.547-0.967 0-2.268 0-3.243-0.326-77.938-16.56-134.441-86.054-134.441-165.287 0-17.29 2.647-34.050 7.698-50.047 8.896-28.172 17.457-56.6 21.338-85.889 2.766-20.873 4.196-30.392 9.288-35.844 1.619-3.572 4.544-12.339 4.544-15.588 0-29.548 11.044-57.801 30.846-79.88l-2.268-68.193c-16.886-3.898-61.378-4.221-79.565-4.221-13.961 0-21.753 0-25.971-0.649-7.84-0.858-15.047-2.154-21.85-3.725 15.317-13.846 25.124-33.671 25.124-55.948v-189.982c0-43.28 35.056-78.381 78.336-78.437l386.776-0.504c21.366 0.078 38.831 17.554 38.831 38.94v62.022c-0.006 209.133-65.599 226.991-173.728 231.538zM558.852 720.077c0-4.221 0-8.767 0.326-12.988-0.326 4.221-0.649 8.442-0.649 12.988 0 29.551 8.767 57.152 23.703 80.855-14.61-23.703-23.38-51.304-23.38-80.855zM838.768 805.478c0 0 0 0 0-0.326-1.301 0.326-2.925 0.649-4.226 0.975 1.301 0.003 2.928-0.323 4.226-0.649zM771.874 334.304c-3.569-28.576-27.598-25.977-56.503-26.302h-1.624c-28.896-0.326-53.577-3.572-57.478 25.33l-6.168 17.209c6.817 5.845 10.395 13.64 10.395 24.678l2.599 81.83v1.624c15.585-6.494 32.147-10.066 48.707-10.066 16.554 0 33.114 3.572 48.707 10.066v-79.557c0-12.988 6.168-24.678 15.911-32.147l-4.547-12.665zM803.046 573.3c-8.118-13.314-12.010-32.797-12.010-40.592 0-19.156-7.469-37.017-20.786-50.658l-3.569-3.898-12.345-5.196c-26.946-11.69-58.127-11.69-85.073 0l-12.345 5.196-3.569 3.898c-13.32 13.64-20.786 31.498-20.786 50.658 0 7.795-3.892 27.278-12.010 40.592-0.326 1.95-0.975 5.522-1.95 12.016-3.9 29.874-11.044 60.723-23.054 97.092-3.9 12.016-5.842 24.678-5.842 37.667 0 25.16 23.174 22.686 36.978 42.531 11.852 17.039 74.152-74.637 203.639-13.955 2.276-9.743 3.569-19.156 3.569-28.576 0-13.637-2.268-26.952-6.494-39.617-10.386-30.523-18.179-62.671-22.728-96.445-0.649-5.839-1.298-9.088-1.624-10.712zM445.22 533.134c-3.9 25.339-25.603 44.796-52.031 44.796h-14.37c-29.183 0-52.839-23.659-52.839-52.842v-66.566c0-11.367 3.664-21.831 9.768-30.448 3.9-25.336 25.603-44.796 52.031-44.796h14.37c29.186 0 52.842 23.659 52.842 52.842v66.566c0 11.367-3.664 21.831-9.77 30.448zM396.777 428.122h-7.753c-14.248 0-25.949 10.495-28.058 24.157-3.29 4.647-5.263 10.291-5.263 16.421v35.895c0 15.738 12.757 28.495 28.492 28.495h7.751c34.045 0 28.464-35.914 28.464-35.914-0.507-11.67-15.579 3.207-29.484 1.401-10.219-1.329-10.35-17.582 0-16.237 14.841 1.928 24.609-3.647 34.343-12.264v-13.456c0-15.738-12.757-28.498-28.492-28.498z" />
<glyph unicode="&#xe92e;" glyph-name="hotel" data-tags="hotel" horiz-adv-x="935" d="M151.895 758.766l49.847 21.335 49.858-21.335-4.895 54.004 35.672 40.817-52.85 12.055-27.785 46.571-27.796-46.571-26.197-5.973-26.216-6.594 35.245-40.305zM15.295 652.851l25.11 10.746 25.113-10.746-2.466 27.202 17.97 20.561-26.623 6.071-13.994 23.461-14.002-23.461-13.194-3.009-13.208-3.321 17.755-20.301zM732.55 652.851l25.11 10.746 25.113-10.746-2.466 27.202 17.97 20.561-26.623 6.071-13.994 23.461-14.002-23.461-13.194-3.009-13.208-3.321 17.755-20.301zM346.278 803.751l49.858 21.399 49.869-21.399-4.928 54.045 35.758 40.829-52.925 11.988-27.773 46.637-27.773-46.637-52.937-11.999 35.78-40.806zM546.067 765.75l49.914 21.497 49.9-21.486-4.992 54.123 35.856 40.817-53.001 11.966-27.773 46.704-27.74-46.704-53.003-11.966 35.847-40.817zM471.202 200.969c0 73.982 28.824 143.384 80.98 195.239 9.121 9.121 18.794 17.482 28.893 25.144v74.876c0 9.018-7.333 16.351-16.34 16.351h-10.824c-9.018 0-16.351-7.333-16.351-16.351v-81.56h-32.638v81.56c0 27.002 21.976 48.986 48.986 48.986h10.824c27.002 0 48.978-21.987 48.978-48.986v-53.586c20.569 11.436 42.461 20.196 65.284 26.002v109.208h43.514v32.635h-97.919v87.020h21.823v32.638h-500.555v-32.635h21.823v-87.020h-97.911v-32.635h43.514v-609.22h-76.149v-32.635h293.729v250.062h140.754c-0.262 4.945-0.415 9.913-0.415 14.908zM287.358 55.666h-32.635v81.549c0 9.007-7.333 16.34-16.351 16.34h-10.824c-9.018 0-16.351-7.333-16.351-16.34v-81.549h-32.638v81.549c0 27.002 21.976 48.978 48.989 48.978h10.824c27.013 0 48.986-21.976 48.986-48.978v-81.549zM287.358 240.608h-32.635v81.549c0 9.007-7.333 16.34-16.351 16.34h-10.824c-9.018 0-16.351-7.333-16.351-16.34v-81.549h-32.638v81.549c0 27.002 21.976 48.978 48.989 48.978h10.824c27.013 0 48.986-21.976 48.986-48.978v-81.549zM287.358 414.668h-32.635v81.56c0 9.018-7.333 16.351-16.351 16.351h-10.824c-9.018 0-16.351-7.333-16.351-16.351v-81.56h-32.638v81.56c0 27.002 21.976 48.986 48.989 48.986h10.824c27.013 0 48.986-21.987 48.986-48.986v-81.56zM341.732 496.228c0 27.002 21.976 48.986 48.989 48.986h10.824c27.013 0 48.978-21.987 48.978-48.986v-81.56h-32.627v81.56c0 9.018-7.333 16.351-16.351 16.351h-10.824c-9.018 0-16.351-7.333-16.351-16.351v-81.56h-32.638v81.56zM417.892 240.608v81.549c0 9.007-7.333 16.34-16.351 16.34h-10.824c-9.018 0-16.351-7.333-16.351-16.34v-81.549h-32.638v81.549c0 27.002 21.976 48.978 48.989 48.978h10.824c27.013 0 48.978-21.976 48.978-48.978v-81.549h-32.627zM552.366 5.449c-46.626 46.356-74.528 106.531-80.078 171.461v-240.912h147.058c-5.825 10.91-66.981 69.452-66.981 69.452zM879.8 333.446c-33.88 33.88-80.757 54.923-132.432 54.923-51.669 0-98.546-21.040-132.432-54.923-34.034-33.88-54.917-80.757-54.917-132.429 0-51.828 20.884-98.705 54.917-132.585 0.008-0.006 0.014-0.011 0.014-0.011l132.415-132.418 132.432 132.429c34.034 33.88 54.923 80.757 54.923 132.585 0 51.672-20.887 98.549-54.92 132.429zM683.968 264.42c16.223 16.22 38.664 26.294 63.401 26.294 24.74 0 47.183-10.074 63.403-26.294 16.295-16.223 26.294-38.664 26.294-63.403 0-24.812-9.999-47.256-26.294-63.476-16.22-16.22-38.664-26.219-63.403-26.219-24.737 0-47.178 9.999-63.401 26.219-16.295 16.22-26.294 38.664-26.294 63.476 0 24.74 9.999 47.181 26.294 63.403z" />
<glyph unicode="&#xe92f;" horiz-adv-x="1448" d="M586.017 347.425c-48.602 89.843-142.864 129.608-142.864 129.608s2.947 16.201 81.006-33.876c56.827-36.453 112.007-81.551 147.528-140.86 20.278 44.421 31.667 93.751 31.667 145.77 0 192.306-154.445 348.445-346.052 351.38-106.284-81.164-124.964-228.045-15.773-304.738 123.717-86.898 139.919-172.319 98.681-268.055-25.228-58.568-87.378-102.238-131.839-127.327 14.254-1.76 28.741-2.771 43.471-2.771 7.904 0 15.723 0.356 23.494 0.869 68.734 49.284 109.157 113.464 128.206 182.255 26.512 95.734-110.461 198.831-110.461 198.831s5.892 10.311 27.984-2.947c22.093-13.256 150.228-108.988 147.283-216.506-1.319-48.162-18.301-85.934-36.651-113.002 32.293 19.273 61.193 43.598 85.704 71.853-2.413 42.465-10.407 90.742-31.385 129.517z" />
<glyph unicode="&#xe930;" horiz-adv-x="1448" d="M410.753 315.023c41.238 131.081-139.919 175.268-191.467 293.094-29.72 67.934 2.241 133.856 34.643 177.545-23.99-6.946-46.948-16.307-68.526-27.931-57.281-184.699 101.629-263.024 101.629-263.024 5.892-1.472-14.728 0-14.728 0-125.879 56.429-159.772 154.348-168.913 202.027-12.045-12.035-23.218-24.941-33.422-38.613 48.453-100.539 172.88-166.36 172.88-166.36l-17.675-1.472c-71.736 23.912-138.638 79.731-183.265 123.696-26.515-49.425-41.586-105.904-41.586-165.917 0-149.74 93.668-277.53 225.578-328.185 65.806 41.648 158.965 112.859 184.851 195.139z" />
<glyph unicode="&#xe931;" horiz-adv-x="1448" d="M1094.036 693.944l33.086-8.021c-3.504-8.188-7.101-16.037-10.78-23.556h80.965v-30.582h-97.25c-6.182-10.356-12.619-19.798-19.301-28.318h97.752v-29.075c-35.926-27.236-60.326-48.959-73.189-65.168-6.182-6.852-9.358-13.283-9.523-19.295 0-6.85 6.766-10.278 20.302-10.278h24.064c16.204 0 24.809 6.688 25.81 20.052 2.013 13.535 3.342 24.563 4.015 33.086 12.526-4.679 23.224-8.102 32.082-10.273-2.176-16.38-5.016-30.831-8.52-43.364-4.679-18.712-20.395-28.067-47.123-28.067h-30.582c-34.414 0-51.628 12.781-51.628 38.348 0 9.855 3.597 19.713 10.78 29.574 10.861 15.203 29.663 33.167 56.392 53.889h-62.409v30.573h7.276c-5.68 5.181-11.453 10.104-17.298 14.785v-91.478h-32.584v-15.041h33.585v-30.076h-33.585v-36.344h-32.584v36.344h-37.846v30.076h37.846v15.041h-32.575v104.512h32.575v14.539h-38.097v30.076h38.092v17.044h32.584v-17.044h37.6v-30.076h-37.6v-14.539h32.584c11.532 17.546 23.221 38.431 35.085 62.657zM1031.381 605.722h-42.608v-15.035h42.608v15.035zM1031.381 552.088v15.286h-42.608v-15.286h42.608z" />
<glyph unicode="&#xe932;" horiz-adv-x="1448" d="M1214.337 471.885l-6.518 37.34c9.36 2.508 18.554 4.93 27.577 7.268v87.723h-24.819v31.578h24.819v56.648h32.073v-56.648h24.064v-31.578h-24.064v-78.95c8.859 2.508 17.379 5.011 25.576 7.519-1.013-16.873-1.338-28.655-1.013-35.338-26.565-8.52-52.468-17.040-77.695-25.562zM1357.199 446.319v64.411h-28.323v-12.031h-30.57v155.895h58.896v38.849h31.583v-38.847h58.896v-155.396h-30.57v11.53h-28.323v-64.411h-31.59zM1328.876 596.448h28.323v29.075h-28.323v-29.075zM1328.876 539.805h28.323v29.075h-28.323v-29.075zM1417.105 625.521h-28.323v-29.075h28.323v29.075zM1388.782 539.805h28.323v29.075h-28.323v-29.075z" />
<glyph unicode="&#xe933;" horiz-adv-x="1448" d="M983.118 198.375c-1.082 7.018-2.376 13.713-3.888 20.083-2.806-8.905-6.265-16.736-10.364-23.482-4.858 9.719-9.282 17.654-13.276 23.808 3.399 7.018 6.126 14.684 8.174 22.996 2.052 8.312 3.385 16.533 4.008 24.657 0.619 8.121 0.989 22.843 1.096 44.168h-11.334v19.438h21.212c-2.536 6.907-5.235 13.495-8.094 19.753l22.182 6.642c4.753-10.041 8.1-17.758 10.041-23.161l-10.12-3.236h25.345v-12.227c8.747 12.253 16.247 25.074 22.512 38.457l20.402-3.236c-1.565-3.836-3.157-7.559-4.772-11.178h59.189v-19.753h-68.985c-3.671-6.754-7.505-13.012-11.5-18.79 23.429 1.999 45.508 5.671 66.238 11.013l9.554-18.948c-10.259-1.995-20.405-3.776-30.448-5.341 0.917-8.747 2.456-16.868 4.62-24.375 6.581 4.911 12.926 10.017 19.027 15.305l13.276-15.547c-7.717-5.83-16.168-11.739-25.345-17.734 6.318-12.681 15.093-23.128 26.316-31.332-6.155-5.401-12.253-11.066-18.294-17.006-10.364 9.229-18.625 20.316-24.776 33.241-6.158 12.926-10.478 31.242-12.96 54.943l-11.66-1.38v-58.949c8.749 3.671 16.247 6.965 22.512 9.884 0-7.559 0.323-14.954 0.97-22.189-20.513-7.989-33.525-14.254-39.031-18.783l-12.631 17.648c4.643 2.701 7.018 6.747 7.125 12.148v70.286c-5.453 4.911-11.039 9.719-16.762 14.412h-24.045l-0.165-17.813h31.096c0-11.334-0.218-24.75-0.649-40.246l-0.649-20.809c0-8.959-1.149-15.963-3.446-21.014-2.29-5.044-5.327-8.365-9.103-9.955-3.793-1.6-11.326-2.398-22.6-2.398zM979.796 220.399l10.934-0.489c4.259 0 6.674 2.959 7.244 8.866 0.566 5.914 1.070 20.988 1.498 45.224h-11.493c-0.981-20.782-3.707-38.648-8.183-53.601z" />
<glyph unicode="&#xe934;" horiz-adv-x="1448" d="M1165.139 313.845l18.948-12.148c-4.753-6.965-9.931-13.793-15.547-20.488v-83.972h-22.505v59.675c-4.971-4.799-10.153-9.526-15.547-14.168-2.159 6.046-5.13 13.548-8.905 22.512 16.622 14.362 31.141 30.558 43.557 48.587zM1162.553 355.945c6.907-4.746 13.383-9.389 19.431-13.925-11.334-13.172-26.395-27.258-45.184-42.265-3.994 6.040-8.794 12.413-14.412 19.106 18.139 13.818 31.523 26.185 40.165 37.084zM1186.361 298.133h96.68v-21.054h-25.266v-52.143c0-8.637-2.013-15.236-6.033-19.799-4.020-4.56-9.712-7.082-17.085-7.572-7.369-0.483-18.281-0.805-32.753-0.97-1.512 7.125-3.507 14.684-5.986 22.672 11.224-0.752 20.076-1.128 26.56-1.128 7.877 0 11.818 4.153 11.818 12.463v46.478h-47.932v21.054h-0.003zM1191.699 344.451h84.209v-21.054h-84.209v21.054z" />
<glyph unicode="&#xe935;" horiz-adv-x="1448" d="M1322.553 356.269c4.643-5.611 9.877-12.735 15.705-21.37l-16.596-8.912h24.533v-17.969c-4.478-9.884-9.659-19.306-15.54-28.263v-6.965l8.905 7.856c6.258-5.611 13.118-12.306 20.567-20.083l-16.031-13.111c-5.023 6.53-9.508 12.088-13.442 16.676v-67.855h-22.024v55.385c-4.596-4.911-9.447-9.659-14.577-14.247-2.271 10.364-4.431 19.16-6.477 26.395 14.359 12.525 25.371 26.123 33.036 40.807h-30.774v21.377h27.451c-5.13 8.259-9.745 15.172-13.846 20.732l19.108 9.549zM1342.959 222.664h43.079v66.238h-32.39v21.054h32.39v43.891h23.317v-43.891h33.36v-21.054h-33.36v-66.238h39.188v-21.047h-105.588v21.047h0.003z" />
<glyph unicode="&#xe936;" horiz-adv-x="495" d="M412.464 640.967c-34.229 63.271-100.609 91.275-100.609 91.275s2.075 11.41 57.047-23.856c40.019-25.672 78.88-57.432 103.893-99.199 14.281 31.282 22.301 66.021 22.301 102.655 0 135.426-108.765 245.386-243.701 247.451-74.849-57.159-88.004-160.596-11.107-214.605 87.126-61.196 98.535-121.353 69.493-188.773-17.768-41.245-61.535-71.999-92.846-89.669 10.037-1.239 20.24-1.952 30.613-1.952 5.567 0 11.071 0.249 16.547 0.611 48.406 34.707 76.872 79.905 90.286 128.349 18.669 67.418-77.791 140.024-77.791 140.024s4.149 7.261 19.707-2.075c15.557-9.336 105.796-76.754 103.721-152.47-0.929-33.917-12.889-60.517-25.81-79.58 22.743 13.572 43.094 30.702 60.355 50.601-1.698 29.906-7.326 63.905-22.098 91.212z" />
<glyph unicode="&#xe937;" horiz-adv-x="495" d="M289.036 618.148c29.042 92.311-98.535 123.428-134.838 206.405-20.931 47.842 1.579 94.265 24.398 125.033-16.894-4.892-33.062-11.484-48.258-19.67-40.337-130.069 71.574-185.228 71.574-185.228 4.149-1.037-10.373 0-10.373 0-88.649 39.738-112.518 108.698-118.953 142.274-8.482-8.475-16.35-17.563-23.537-27.191 34.122-70.802 121.747-117.156 121.747-117.156l-12.447-1.037c-50.519 16.839-97.633 56.149-129.060 87.111-18.673-34.807-29.288-74.581-29.288-116.845 0-105.452 65.964-195.446 158.859-231.117 46.342 29.328 111.947 79.477 130.178 137.422z" />
<glyph unicode="&#xe938;" horiz-adv-x="495" d="M171.468 286.915l23.298-5.649c-2.468-5.768-5.001-11.293-7.591-16.59h57.018v-21.537h-68.488c-4.354-7.292-8.887-13.942-13.593-19.942h68.839v-20.476c-25.299-19.18-42.482-34.478-51.542-45.893-4.354-4.825-6.592-9.354-6.707-13.59 0-4.825 4.763-7.239 14.298-7.239h16.946c11.412 0 17.47 4.71 18.176 14.121 1.417 9.53 2.353 17.298 2.828 23.298 8.821-3.296 16.356-5.706 22.595-7.235-1.533-11.534-3.533-21.712-6.002-30.539-3.296-13.178-14.362-19.767-33.186-19.767h-21.537c-24.234 0-36.36 9.002-36.36 27.005 0 6.939 2.532 13.884 7.591 20.828 7.648 10.707 20.888 23.357 39.713 37.949h-43.951v21.533h5.123c-4.001 3.649-8.066 7.116-12.182 10.412v-64.421h-22.947v-10.591h23.651v-21.181h-23.651v-25.595h-22.946v25.598h-26.653v21.181h26.653v10.591h-22.932v73.599h22.939v10.239h-26.825v21.181h26.825v12.002h22.946v-12.002h26.479v-21.181h-26.479v-10.239h22.947c8.124 12.358 16.356 27.066 24.709 44.127zM127.345 224.785h-30.005v-10.588h30.005v10.588zM127.345 187.017v10.765h-30.005v-10.765h30.005z" />
<glyph unicode="&#xe939;" horiz-adv-x="495" d="M256.189 130.536l-4.591 26.297c6.592 1.767 13.067 3.471 19.421 5.119v61.778h-17.477v22.237h17.477v39.891h22.586v-39.891h16.946v-22.237h-16.946v-55.6c6.239 1.767 12.239 3.53 18.010 5.296-0.712-11.883-0.943-20.18-0.712-24.886-18.709-6.002-36.948-12.004-54.714-18.004zM356.797 112.532v45.36h-19.946v-8.472h-21.528v109.787h41.476v27.358h22.242v-27.358h41.476v-109.434h-21.532v8.119h-19.946v-45.36h-22.242zM336.851 218.255h19.946v20.476h-19.946v-20.476zM336.851 178.367h19.946v20.476h-19.946v-20.476zM398.985 238.731h-19.946v-20.476h19.946v20.476zM379.039 178.367h19.946v20.476h-19.946v-20.476z" />
<glyph unicode="&#xe93a;" horiz-adv-x="495" d="M93.357-62.079c-0.762 4.942-1.674 9.657-2.739 14.143-1.977-6.272-4.412-11.787-7.299-16.538-3.421 6.845-6.537 12.432-9.349 16.765 2.395 4.942 4.314 10.34 5.756 16.194 1.447 5.854 2.386 11.642 2.823 17.365 0.437 5.718 0.697 16.087 0.772 31.105h-7.983v13.688h14.938c-1.786 4.863-3.686 9.504-5.701 13.911l15.621 4.677c3.348-7.072 5.704-12.508 7.072-16.309l-7.127-2.278h17.849v-8.611c6.16 8.629 11.443 17.658 15.855 27.083l14.367-2.278c-1.103-2.701-2.222-5.324-3.361-7.872h41.682v-13.911h-48.58c-2.585-4.756-5.286-9.163-8.099-13.232 16.5 1.409 32.047 3.994 46.647 7.755l6.728-13.344c-7.225-1.404-14.371-2.659-21.442-3.762 0.647-6.16 1.729-11.88 3.255-17.166 4.636 3.459 9.103 7.053 13.399 10.777l9.349-10.949c-5.436-4.106-11.386-8.267-17.849-12.489 4.45-8.931 10.629-16.287 18.532-22.065-4.333-3.803-8.629-7.793-12.883-11.976-7.299 6.501-13.117 14.307-17.45 23.41-4.338 9.103-7.378 22.001-9.127 38.692l-8.211-0.972v-41.514c6.16 2.585 11.443 4.904 15.855 6.96 0-5.324 0.227-10.531 0.683-15.626-14.446-5.625-23.61-10.037-27.487-13.227l-8.893 12.428c3.268 1.901 4.942 4.751 5.016 8.555v49.497c-3.841 3.459-7.774 6.843-11.804 10.149h-16.934l-0.117-12.544h21.898c0-7.983-0.153-17.431-0.456-28.342l-0.456-14.654c0-6.31-0.808-11.241-2.427-14.799-1.614-3.552-3.752-5.89-6.411-7.012-2.666-1.125-7.971-1.688-15.912-1.688zM91.017-46.568l7.7-0.344c2.998 0 4.701 2.083 5.1 6.244 0.399 4.166 0.753 14.78 1.056 31.848h-8.095c-0.688-14.637-2.608-27.219-5.761-37.748z" />
<glyph unicode="&#xe93b;" horiz-adv-x="495" d="M221.543 19.239l13.344-8.555c-3.348-4.904-6.993-9.712-10.949-14.427v-59.135h-15.85v42.026c-3.501-3.38-7.151-6.709-10.949-9.977-1.521 4.259-3.612 9.54-6.272 15.855 11.708 10.111 21.931 21.516 30.676 34.213zM219.721 48.888c4.863-3.342 9.425-6.611 13.682-9.805-7.983-9.275-18.588-19.197-31.82-29.765-2.813 4.254-6.193 8.74-10.149 13.455 12.776 9.729 22.201 18.437 28.287 26.114zM236.486 8.173h68.085v-14.826h-17.794v-36.721c0-6.081-1.417-10.731-4.249-13.944s-6.84-4.989-12.033-5.333c-5.188-0.339-12.874-0.568-23.066-0.683-1.065 5.016-2.468 10.34-4.216 15.965 7.904-0.53 14.138-0.795 18.704-0.795 5.546 0 8.322 2.924 8.322 8.778v32.732h-33.754v14.826zM240.248 40.793h59.302v-14.826h-59.302v14.826z" />
<glyph unicode="&#xe93c;" horiz-adv-x="495" d="M332.397 49.115c3.268-3.951 6.955-8.969 11.061-15.050l-11.689-6.277h17.278v-12.656c-3.151-6.96-6.802-13.595-10.944-19.904v-4.904l6.272 5.532c4.407-3.951 9.237-8.666 14.482-14.143l-11.288-9.234c-3.538 4.598-6.695 8.513-9.466 11.744v-47.785h-15.511v39.004c-3.236-3.459-6.654-6.802-10.266-10.034-1.6 7.299-3.12 13.493-4.56 18.588 10.113 8.819 17.868 18.398 23.266 28.738h-21.671v15.055h19.332c-3.612 5.816-6.862 10.684-9.75 14.599l13.455 6.728zM346.768-44.973h30.337v46.647h-22.81v14.826h22.81v30.909h16.421v-30.909h23.493v-14.826h-23.493v-46.647h27.599v-14.821h-74.357v14.821z" />
<glyph unicode="&#xe93d;" horiz-adv-x="495" d="M412.464 640.967c-34.229 63.271-100.609 91.275-100.609 91.275s2.075 11.41 57.047-23.856c40.019-25.672 78.88-57.432 103.893-99.199 14.281 31.282 22.301 66.021 22.301 102.655 0 135.426-108.765 245.386-243.701 247.451-74.849-57.159-88.004-160.596-11.107-214.605 87.126-61.196 98.535-121.353 69.493-188.773-17.768-41.245-61.535-71.999-92.846-89.669 10.037-1.239 20.24-1.952 30.613-1.952 5.567 0 11.071 0.249 16.547 0.611 48.406 34.707 76.872 79.905 90.286 128.349 18.669 67.418-77.791 140.024-77.791 140.024s4.149 7.261 19.707-2.075c15.557-9.336 105.796-76.754 103.721-152.47-0.929-33.917-12.889-60.517-25.81-79.58 22.743 13.572 43.094 30.702 60.355 50.601-1.698 29.906-7.326 63.905-22.098 91.212z" />
<glyph unicode="&#xe93e;" horiz-adv-x="495" d="M289.036 618.148c29.042 92.311-98.535 123.428-134.838 206.405-20.931 47.842 1.579 94.265 24.398 125.033-16.894-4.892-33.062-11.484-48.258-19.67-40.337-130.069 71.574-185.228 71.574-185.228 4.149-1.037-10.373 0-10.373 0-88.649 39.738-112.518 108.698-118.953 142.274-8.482-8.475-16.35-17.563-23.537-27.191 34.122-70.802 121.747-117.156 121.747-117.156l-12.447-1.037c-50.519 16.839-97.633 56.149-129.060 87.111-18.673-34.807-29.288-74.581-29.288-116.845 0-105.452 65.964-195.446 158.859-231.117 46.342 29.328 111.947 79.477 130.178 137.422z" />
<glyph unicode="&#xe93f;" horiz-adv-x="495" d="M171.468 286.915l23.298-5.649c-2.468-5.768-5.001-11.293-7.591-16.59h57.018v-21.537h-68.488c-4.354-7.292-8.887-13.942-13.593-19.942h68.839v-20.476c-25.299-19.18-42.482-34.478-51.542-45.893-4.354-4.825-6.592-9.354-6.707-13.59 0-4.825 4.763-7.239 14.298-7.239h16.946c11.412 0 17.47 4.71 18.176 14.121 1.417 9.53 2.353 17.298 2.828 23.298 8.821-3.296 16.356-5.706 22.595-7.235-1.533-11.534-3.533-21.712-6.002-30.539-3.296-13.178-14.362-19.767-33.186-19.767h-21.537c-24.234 0-36.36 9.002-36.36 27.005 0 6.939 2.532 13.884 7.591 20.828 7.648 10.707 20.888 23.357 39.713 37.949h-43.951v21.533h5.123c-4.001 3.649-8.066 7.116-12.182 10.412v-64.421h-22.947v-10.591h23.651v-21.181h-23.651v-25.595h-22.946v25.598h-26.653v21.181h26.653v10.591h-22.932v73.599h22.939v10.239h-26.825v21.181h26.825v12.002h22.946v-12.002h26.479v-21.181h-26.479v-10.239h22.947c8.124 12.358 16.356 27.066 24.709 44.127zM127.345 224.785h-30.005v-10.588h30.005v10.588zM127.345 187.017v10.765h-30.005v-10.765h30.005z" />
<glyph unicode="&#xe940;" horiz-adv-x="495" d="M256.189 130.536l-4.591 26.297c6.592 1.767 13.067 3.471 19.421 5.119v61.778h-17.477v22.237h17.477v39.891h22.586v-39.891h16.946v-22.237h-16.946v-55.6c6.239 1.767 12.239 3.53 18.010 5.296-0.712-11.883-0.943-20.18-0.712-24.886-18.709-6.002-36.948-12.004-54.714-18.004zM356.797 112.532v45.36h-19.946v-8.472h-21.528v109.787h41.476v27.358h22.242v-27.358h41.476v-109.434h-21.532v8.119h-19.946v-45.36h-22.242zM336.851 218.255h19.946v20.476h-19.946v-20.476zM336.851 178.367h19.946v20.476h-19.946v-20.476zM398.985 238.731h-19.946v-20.476h19.946v20.476zM379.039 178.367h19.946v20.476h-19.946v-20.476z" />
<glyph unicode="&#xe941;" horiz-adv-x="495" d="M93.357-62.079c-0.762 4.942-1.674 9.657-2.739 14.143-1.977-6.272-4.412-11.787-7.299-16.538-3.421 6.845-6.537 12.432-9.349 16.765 2.395 4.942 4.314 10.34 5.756 16.194 1.447 5.854 2.386 11.642 2.823 17.365 0.437 5.718 0.697 16.087 0.772 31.105h-7.983v13.688h14.938c-1.786 4.863-3.686 9.504-5.701 13.911l15.621 4.677c3.348-7.072 5.704-12.508 7.072-16.309l-7.127-2.278h17.849v-8.611c6.16 8.629 11.443 17.658 15.855 27.083l14.367-2.278c-1.103-2.701-2.222-5.324-3.361-7.872h41.682v-13.911h-48.58c-2.585-4.756-5.286-9.163-8.099-13.232 16.5 1.409 32.047 3.994 46.647 7.755l6.728-13.344c-7.225-1.404-14.371-2.659-21.442-3.762 0.647-6.16 1.729-11.88 3.255-17.166 4.636 3.459 9.103 7.053 13.399 10.777l9.349-10.949c-5.436-4.106-11.386-8.267-17.849-12.489 4.45-8.931 10.629-16.287 18.532-22.065-4.333-3.803-8.629-7.793-12.883-11.976-7.299 6.501-13.117 14.307-17.45 23.41-4.338 9.103-7.378 22.001-9.127 38.692l-8.211-0.972v-41.514c6.16 2.585 11.443 4.904 15.855 6.96 0-5.324 0.227-10.531 0.683-15.626-14.446-5.625-23.61-10.037-27.487-13.227l-8.893 12.428c3.268 1.901 4.942 4.751 5.016 8.555v49.497c-3.841 3.459-7.774 6.843-11.804 10.149h-16.934l-0.117-12.544h21.898c0-7.983-0.153-17.431-0.456-28.342l-0.456-14.654c0-6.31-0.808-11.241-2.427-14.799-1.614-3.552-3.752-5.89-6.411-7.012-2.666-1.125-7.971-1.688-15.912-1.688zM91.017-46.568l7.7-0.344c2.998 0 4.701 2.083 5.1 6.244 0.399 4.166 0.753 14.78 1.056 31.848h-8.095c-0.688-14.637-2.608-27.219-5.761-37.748z" />
<glyph unicode="&#xe942;" horiz-adv-x="495" d="M221.543 19.239l13.344-8.555c-3.348-4.904-6.993-9.712-10.949-14.427v-59.135h-15.85v42.026c-3.501-3.38-7.151-6.709-10.949-9.977-1.521 4.259-3.612 9.54-6.272 15.855 11.708 10.111 21.931 21.516 30.676 34.213zM219.721 48.888c4.863-3.342 9.425-6.611 13.682-9.805-7.983-9.275-18.588-19.197-31.82-29.765-2.813 4.254-6.193 8.74-10.149 13.455 12.776 9.729 22.201 18.437 28.287 26.114zM236.486 8.173h68.085v-14.826h-17.794v-36.721c0-6.081-1.417-10.731-4.249-13.944s-6.84-4.989-12.033-5.333c-5.188-0.339-12.874-0.568-23.066-0.683-1.065 5.016-2.468 10.34-4.216 15.965 7.904-0.53 14.138-0.795 18.704-0.795 5.546 0 8.322 2.924 8.322 8.778v32.732h-33.754v14.826zM240.248 40.793h59.302v-14.826h-59.302v14.826z" />
<glyph unicode="&#xe943;" horiz-adv-x="495" d="M332.397 49.115c3.268-3.951 6.955-8.969 11.061-15.050l-11.689-6.277h17.278v-12.656c-3.151-6.96-6.802-13.595-10.944-19.904v-4.904l6.272 5.532c4.407-3.951 9.237-8.666 14.482-14.143l-11.288-9.234c-3.538 4.598-6.695 8.513-9.466 11.744v-47.785h-15.511v39.004c-3.236-3.459-6.654-6.802-10.266-10.034-1.6 7.299-3.12 13.493-4.56 18.588 10.113 8.819 17.868 18.398 23.266 28.738h-21.671v15.055h19.332c-3.612 5.816-6.862 10.684-9.75 14.599l13.455 6.728zM346.768-44.973h30.337v46.647h-22.81v14.826h22.81v30.909h16.421v-30.909h23.493v-14.826h-23.493v-46.647h27.599v-14.821h-74.357v14.821z" />
<glyph unicode="&#xe944;" horiz-adv-x="1448" d="M586.017 347.425c-48.602 89.843-142.864 129.608-142.864 129.608s2.947 16.201 81.006-33.876c56.827-36.453 112.007-81.551 147.528-140.86 20.278 44.421 31.667 93.751 31.667 145.77 0 192.306-154.445 348.445-346.052 351.38-106.284-81.164-124.964-228.045-15.773-304.738 123.717-86.898 139.919-172.319 98.681-268.055-25.228-58.568-87.378-102.238-131.839-127.327 14.254-1.76 28.741-2.771 43.471-2.771 7.904 0 15.723 0.356 23.494 0.869 68.734 49.284 109.157 113.464 128.206 182.255 26.512 95.734-110.461 198.831-110.461 198.831s5.892 10.311 27.984-2.947c22.093-13.256 150.228-108.988 147.283-216.506-1.319-48.162-18.301-85.934-36.651-113.002 32.293 19.273 61.193 43.598 85.704 71.853-2.413 42.465-10.407 90.742-31.385 129.517z" />
<glyph unicode="&#xe945;" horiz-adv-x="1448" d="M410.753 315.023c41.238 131.081-139.919 175.268-191.467 293.094-29.72 67.934 2.241 133.856 34.643 177.545-23.99-6.946-46.948-16.307-68.526-27.931-57.281-184.699 101.629-263.024 101.629-263.024 5.892-1.472-14.728 0-14.728 0-125.879 56.429-159.772 154.348-168.913 202.027-12.045-12.035-23.218-24.941-33.422-38.613 48.453-100.539 172.88-166.36 172.88-166.36l-17.675-1.472c-71.736 23.912-138.638 79.731-183.265 123.696-26.515-49.425-41.586-105.904-41.586-165.917 0-149.74 93.668-277.53 225.578-328.185 65.806 41.648 158.965 112.859 184.851 195.139z" />
<glyph unicode="&#xe946;" horiz-adv-x="1448" d="M1094.036 693.944l33.086-8.021c-3.504-8.188-7.101-16.037-10.78-23.556h80.965v-30.582h-97.25c-6.182-10.356-12.619-19.798-19.301-28.318h97.752v-29.075c-35.926-27.236-60.326-48.959-73.189-65.168-6.182-6.852-9.358-13.283-9.523-19.295 0-6.85 6.766-10.278 20.302-10.278h24.064c16.204 0 24.809 6.688 25.81 20.052 2.013 13.535 3.342 24.563 4.015 33.086 12.526-4.679 23.224-8.102 32.082-10.273-2.176-16.38-5.016-30.831-8.52-43.364-4.679-18.712-20.395-28.067-47.123-28.067h-30.582c-34.414 0-51.628 12.781-51.628 38.348 0 9.855 3.597 19.713 10.78 29.574 10.861 15.203 29.663 33.167 56.392 53.889h-62.409v30.573h7.276c-5.68 5.181-11.453 10.104-17.298 14.785v-91.478h-32.584v-15.041h33.585v-30.076h-33.585v-36.344h-32.584v36.344h-37.846v30.076h37.846v15.041h-32.575v104.512h32.575v14.539h-38.097v30.076h38.092v17.044h32.584v-17.044h37.6v-30.076h-37.6v-14.539h32.584c11.532 17.546 23.221 38.431 35.085 62.657zM1031.381 605.722h-42.608v-15.035h42.608v15.035zM1031.381 552.088v15.286h-42.608v-15.286h42.608z" />
<glyph unicode="&#xe947;" horiz-adv-x="1448" d="M1214.337 471.885l-6.518 37.34c9.36 2.508 18.554 4.93 27.577 7.268v87.723h-24.819v31.578h24.819v56.648h32.073v-56.648h24.064v-31.578h-24.064v-78.95c8.859 2.508 17.379 5.011 25.576 7.519-1.013-16.873-1.338-28.655-1.013-35.338-26.565-8.52-52.468-17.040-77.695-25.562zM1357.199 446.319v64.411h-28.323v-12.031h-30.57v155.895h58.896v38.849h31.583v-38.847h58.896v-155.396h-30.57v11.53h-28.323v-64.411h-31.59zM1328.876 596.448h28.323v29.075h-28.323v-29.075zM1328.876 539.805h28.323v29.075h-28.323v-29.075zM1417.105 625.521h-28.323v-29.075h28.323v29.075zM1388.782 539.805h28.323v29.075h-28.323v-29.075z" />
<glyph unicode="&#xe948;" horiz-adv-x="1448" d="M983.118 198.375c-1.082 7.018-2.376 13.713-3.888 20.083-2.806-8.905-6.265-16.736-10.364-23.482-4.858 9.719-9.282 17.654-13.276 23.808 3.399 7.018 6.126 14.684 8.174 22.996 2.052 8.312 3.385 16.533 4.008 24.657 0.619 8.121 0.989 22.843 1.096 44.168h-11.334v19.438h21.212c-2.536 6.907-5.235 13.495-8.094 19.753l22.182 6.642c4.753-10.041 8.1-17.758 10.041-23.161l-10.12-3.236h25.345v-12.227c8.747 12.253 16.247 25.074 22.512 38.457l20.402-3.236c-1.565-3.836-3.157-7.559-4.772-11.178h59.189v-19.753h-68.985c-3.671-6.754-7.505-13.012-11.5-18.79 23.429 1.999 45.508 5.671 66.238 11.013l9.554-18.948c-10.259-1.995-20.405-3.776-30.448-5.341 0.917-8.747 2.456-16.868 4.62-24.375 6.581 4.911 12.926 10.017 19.027 15.305l13.276-15.547c-7.717-5.83-16.168-11.739-25.345-17.734 6.318-12.681 15.093-23.128 26.316-31.332-6.155-5.401-12.253-11.066-18.294-17.006-10.364 9.229-18.625 20.316-24.776 33.241-6.158 12.926-10.478 31.242-12.96 54.943l-11.66-1.38v-58.949c8.749 3.671 16.247 6.965 22.512 9.884 0-7.559 0.323-14.954 0.97-22.189-20.513-7.989-33.525-14.254-39.031-18.783l-12.631 17.648c4.643 2.701 7.018 6.747 7.125 12.148v70.286c-5.453 4.911-11.039 9.719-16.762 14.412h-24.045l-0.165-17.813h31.096c0-11.334-0.218-24.75-0.649-40.246l-0.649-20.809c0-8.959-1.149-15.963-3.446-21.014-2.29-5.044-5.327-8.365-9.103-9.955-3.793-1.6-11.326-2.398-22.6-2.398zM979.796 220.399l10.934-0.489c4.259 0 6.674 2.959 7.244 8.866 0.566 5.914 1.070 20.988 1.498 45.224h-11.493c-0.981-20.782-3.707-38.648-8.183-53.601z" />
<glyph unicode="&#xe949;" horiz-adv-x="1448" d="M1165.139 313.845l18.948-12.148c-4.753-6.965-9.931-13.793-15.547-20.488v-83.972h-22.505v59.675c-4.971-4.799-10.153-9.526-15.547-14.168-2.159 6.046-5.13 13.548-8.905 22.512 16.622 14.362 31.141 30.558 43.557 48.587zM1162.553 355.945c6.907-4.746 13.383-9.389 19.431-13.925-11.334-13.172-26.395-27.258-45.184-42.265-3.994 6.040-8.794 12.413-14.412 19.106 18.139 13.818 31.523 26.185 40.165 37.084zM1186.361 298.133h96.68v-21.054h-25.266v-52.143c0-8.637-2.013-15.236-6.033-19.799-4.020-4.56-9.712-7.082-17.085-7.572-7.369-0.483-18.281-0.805-32.753-0.97-1.512 7.125-3.507 14.684-5.986 22.672 11.224-0.752 20.076-1.128 26.56-1.128 7.877 0 11.818 4.153 11.818 12.463v46.478h-47.932v21.054h-0.003zM1191.699 344.451h84.209v-21.054h-84.209v21.054z" />
<glyph unicode="&#xe94a;" horiz-adv-x="1448" d="M1322.553 356.269c4.643-5.611 9.877-12.735 15.705-21.37l-16.596-8.912h24.533v-17.969c-4.478-9.884-9.659-19.306-15.54-28.263v-6.965l8.905 7.856c6.258-5.611 13.118-12.306 20.567-20.083l-16.031-13.111c-5.023 6.53-9.508 12.088-13.442 16.676v-67.855h-22.024v55.385c-4.596-4.911-9.447-9.659-14.577-14.247-2.271 10.364-4.431 19.16-6.477 26.395 14.359 12.525 25.371 26.123 33.036 40.807h-30.774v21.377h27.451c-5.13 8.259-9.745 15.172-13.846 20.732l19.108 9.549zM1342.959 222.664h43.079v66.238h-32.39v21.054h32.39v43.891h23.317v-43.891h33.36v-21.054h-33.36v-66.238h39.188v-21.047h-105.588v21.047h0.003z" />
<glyph unicode="&#xe94b;" glyph-name="magnifier" data-tags="magnifier" horiz-adv-x="1023" d="M302.16 360.683c-48.874 65.183-59.918 120.101-59.918 207.841 0 215.546 174.734 390.28 390.28 390.28s390.28-174.734 390.28-390.28-174.734-390.28-390.28-390.28c-88.324 0-146.329 12.939-211.732 62.404-4.405 3.332-76.346-74.397-94.535-92.585l-188.41-188.412c-31.535-31.533-82.661-31.533-114.194 0-31.533 31.535-31.533 82.661 0 114.194l188.412 188.412c18.527 18.527 93.735 93.574 90.097 98.426zM322.99 568.522c0-170.95 138.583-309.533 309.533-309.533s309.533 138.583 309.533 309.533-138.583 309.533-309.533 309.533-309.533-138.581-309.533-309.533zM866.908 626.607h-173.504v173.504c0 10.868-8.811 19.679-19.679 19.679h-73.485c-10.868 0-19.679-8.811-19.679-19.679v-173.504h-173.508c-10.868 0-19.679-8.811-19.679-19.679v-73.485c0-10.868 8.811-19.679 19.679-19.679h173.506v-173.504c0-10.87 8.811-19.679 19.679-19.679h73.485c10.868 0 19.679 8.811 19.679 19.679v173.503h173.504c10.87 0 19.679 8.811 19.679 19.679v73.485c0.002 10.868-8.807 19.681-19.677 19.681z" />
<glyph unicode="&#xe94c;" glyph-name="star" data-tags="star" horiz-adv-x="1077" d="M538.493 960l166.403-337.171 372.091-54.068-269.247-262.451 63.561-370.588-332.809 174.968-332.807-174.968 63.56 370.588-269.246 262.451 372.089 54.068z" />
<glyph unicode="&#xe94d;" horiz-adv-x="1334" d="M348.708 25.991c3.418 0 6.892 0.215 10.395 0.657 35.633 4.489 64.406 33.264 68.9 68.898 6.148 48.79-31.722 90.341-79.295 90.339-3.414 0-6.888-0.213-10.391-0.657-35.633-4.487-64.406-33.262-68.895-68.895-6.155-48.792 31.713-90.341 79.286-90.341zM302.112 112.212c2.616 20.751 19.574 37.711 40.327 40.325 2.093 0.264 4.203 0.399 6.274 0.399 13.482 0 26.336-5.805 35.266-15.932 9.053-10.259 13.074-23.521 11.33-37.337-2.616-20.751-19.574-37.713-40.322-40.329-2.096-0.262-4.207-0.399-6.278-0.399-13.486 0-26.341 5.807-35.27 15.934-9.044 10.261-13.069 23.521-11.326 37.339z" />
<glyph unicode="&#xe94e;" horiz-adv-x="1334" d="M295.025 681.803c0-8.133-6.593-14.726-14.726-14.726s-14.726 6.593-14.726 14.726c0 8.133 6.593 14.726 14.726 14.726s14.726-6.593 14.726-14.726z" />
<glyph unicode="&#xe94f;" horiz-adv-x="1334" d="M413.686 681.803c0-8.133-6.593-14.726-14.726-14.726s-14.726 6.593-14.726 14.726c0 8.133 6.593 14.726 14.726 14.726s14.726-6.593 14.726-14.726z" />
<glyph unicode="&#xe950;" horiz-adv-x="1334" d="M297.421 576.329c13.659-6.695 28.512-10.062 43.384-10.062 12.926 0 25.856 2.539 38.041 7.634l5.319 2.221c4.194 1.753 6.182 6.576 4.424 10.774-1.755 4.203-6.59 6.175-10.779 4.429l-5.319-2.226c-21.844-9.134-46.585-8.389-67.833 2.019-4.088 2.002-9.015 0.305-11.019-3.772-1.995-4.086-0.307-9.022 3.781-11.019z" />
<glyph unicode="&#xe951;" horiz-adv-x="1334" d="M235.326 717.714c2.028 0 4.064 0.744 5.65 2.244l2.535 2.389c9.721 9.165 22.914 13.686 36.243 12.422 4.673-0.421 8.555 2.889 8.986 7.417 0.437 4.528-2.88 8.551-7.41 8.986-18.079 1.701-35.949-4.418-49.115-16.839l-2.535-2.389c-3.313-3.12-3.465-8.333-0.345-11.644 1.621-1.717 3.804-2.584 5.991-2.584z" />
<glyph unicode="&#xe952;" horiz-adv-x="1334" d="M395.586 736.268l3.483-0.105c13.363-0.394 25.901-6.531 34.416-16.844 1.629-1.97 3.992-2.992 6.359-2.992 1.845 0 3.701 0.619 5.238 1.887 3.512 2.894 4.008 8.085 1.112 11.595-11.536 13.973-28.53 22.29-46.63 22.819l-3.474 0.103c-4.353 0.222-8.354-3.434-8.488-7.984-0.137-4.546 3.441-8.342 7.984-8.479z" />
</font>
</defs>
</svg>
