<?xml version="1.0" encoding="utf-8"?>
<!-- Generator: Adobe Illustrator 18.1.0, SVG Export Plug-In . SVG Version: 6.00 Build 0)  -->
<svg version="1.1" id="Слой_1" xmlns="http://www.w3.org/2000/svg" xmlns:xlink="http://www.w3.org/1999/xlink" x="0px" y="0px"
	 viewBox="0 0 520.208 623.62" enable-background="new 0 0 520.208 623.62" xml:space="preserve" fill="#c6332e">
<path d="M442.667,75.714C395.961,29.007,331.338,0,260.102,0C188.871,0,124.248,29.007,77.536,75.714
	C30.617,122.421,1.827,187.043,1.827,258.278c0,71.447,28.789,136.07,75.709,182.778c0.01,0.009,0.021,0.017,0.021,0.017
	L260.102,623.62l182.565-182.564c46.92-46.707,75.714-111.331,75.714-182.778C518.381,187.043,489.587,122.421,442.667,75.714z
	 M172.698,170.872c22.364-22.361,53.301-36.248,87.404-36.248c34.105,0,65.045,13.887,87.406,36.248
	c22.463,22.362,36.248,53.301,36.248,87.405c0,34.207-13.785,65.147-36.248,87.508c-22.361,22.361-53.301,36.147-87.406,36.147
	c-34.103,0-65.04-13.785-87.404-36.147c-22.465-22.361-36.248-53.301-36.248-87.508C136.45,224.173,150.233,193.234,172.698,170.872
	z"/>
</svg>
