<?xml version="1.0" encoding="utf-8"?>
<!-- Generator: Adobe Illustrator 18.1.0, SVG Export Plug-In . SVG Version: 6.00 Build 0)  -->
<svg version="1.1" id="Слой_1" xmlns="http://www.w3.org/2000/svg" xmlns:xlink="http://www.w3.org/1999/xlink" x="0px" y="0px"
	 viewBox="0 0 268.305 595.28" enable-background="new 0 0 268.305 595.28" xml:space="preserve">
<path fill="#C7362E" d="M135.6,14.608c11.395,0,20.596,8.035,20.596,17.969c0,2.191,6.282,20.013,5.26,25.418
	c-0.731,4.236-3.213,9.641-7.012,15.192c0.439,0.292,0.729,0.876,1.022,1.608c9.934,35.643,20.598,36.666,20.598,36.666
	c8.326,1.753,15.63,5.26,21.181,10.226c7.596,3.944,15.485,20.013,13.001,42.364c-0.439,4.236,0.583,7.888,1.899,11.248
	c-6.28,7.45-11.249,16.946-14.316,27.756c-2.921-3.068-5.551-7.888-7.889-13.878c-1.607,2.776-2.921,4.821-3.652,5.844
	c0.731,9.495,8.035,34.182,11.833,51.566c0.876-2.483,1.751-4.675,2.921-6.719c-2.192-6.574-2.775-15.047-1.46-24.25
	c2.192-14.316,9.349-29.508,17.675-36.812c3.607-2.886,2.083-20.169,5.565-20.167c0.043,0,0.087,0.003,0.132,0.008
	c0.456,0.076,2.097,0.587,3.998,0.587c1.755,0,3.732-0.435,5.205-2.048c3.855-3.997,6.175-13.016,9.959-13.015
	c0.087,0,0.178,0.005,0.267,0.015c6.28,0.438,10.225,14.462,11.247,18.844c1.022,4.966-10.371,11.394-8.765,17.091
	c0.877,3.068,2.482,6.281,0,17.091c-2.192,9.788,2.336,19.868,0.439,24.834c-2.192,6.136-5.697,13.294-9.934,19.429
	c2.338,4.528,3.652,10.372,3.652,16.945c0,3.214-3.506,5.113-5.99,7.304c-0.292-0.584-0.729-1.168-1.022-1.607
	c-0.583,7.596-2.923,22.789-8.033,32.868c-7.889,15.193-11.102,13.439-19.137,16.069c-0.226,0.065-0.49,0.095-0.779,0.095
	c-2.315,0-6.297-1.962-6.817-4.04l8.035-2.483c0,0,6.134-11.102,3.652-18.553c-0.041-0.114-0.105-0.167-0.189-0.167
	c-1.102,0-5.642,9.171-7.407,10.393c-1.899,1.168-3.213,2.191-4.383,2.483c0.731-4.821,2.484-10.81,5.26-17.384
	c3.36-7.596,8.763-12.417,13-16.653c-0.146-1.168,0.439-13.585,2.045-17.384c-0.515-0.103-1.032-0.206-1.498-0.206
	c-0.193,0-0.376,0.018-0.547,0.06c-1.314,0.292-3.506,13.294-3.36,14.754c-4.383,4.528-8.328,8.912-11.833,17.237
	c-2.921,7.012-5.842,16.362-6.573,21.621c1.455,0.428,2.809,0.905,4.298,0.905c1.054,0,2.174-0.239,3.445-0.905
	c0,0,0.02-0.008,0.027-0.008c0.216,0-0.465,1.907-0.465,1.907l-9.057,4.09c0.729,2.483,5.405,9.203,7.45,9.349
	c0.763,0.062,1.525,0.095,2.286,0.095c4.64,0,9.266-1.214,13.782-4.477c6.573,18.698,16.07,40.902,32.137,61.062
	c0.731,0.876-3.798,2.045-4.964,10.226c-0.292,2.921,3.067,10.371,2.482,14.023c-0.137,1.004-1.698,1.281-3.825,1.281
	c-2.625,0-6.115-0.423-8.85-0.423c-2.145,0-3.829,0.26-4.269,1.187c-3.796,7.451-1.098,21.394-2.324,21.394
	c-0.048,0-0.102-0.021-0.162-0.066c-5.988-3.944-10.079-6.866-12.269-11.395c0.146,20.013,0,44.993-0.439,67.928
	c-0.731,48.937,7.743,61.792,9.055,65.59h4.676v36.082H66.357V544.59h28.778c-3.944-14.608,12.855-65.152,0.585-108.977
	c-2.338-8.18,6.134-14.608,3.506-24.395c-3.213-13.585-7.158-23.373-7.158-40.61c0-4.821,0.439-9.934,0.876-14.317
	c-8.033-4.966,0.292-55.072-3.36-62.668c-4.82-9.787-5.697-21.912-1.607-39.588c2.628-11.833,8.765-32.43,11.102-39.296
	c5.112-15.338,3.213-20.451,5.842-33.598c-0.146,0-0.146,0-0.146-0.146c-1.166,4.528-4.672,16.946-5.549,19.137
	c-6.245,16.003-16.662,27.254-24.644,27.254c-0.981,0-1.924-0.17-2.819-0.521c-2.484-1.023-4.528-3.36-5.844-6.72
	c-4.968-6.719-10.371-18.406-14.608-32.283c-4.529-15.047-7.012-36.959-7.743-37.251c-7.304-2.921-28.339-6.427-28.924-14.608
	c-0.292-5.843,2.192-14.316,2.921-15.776c1.024-1.607,2.923-2.776,5.114-3.506c-3.213-1.608-7.45-4.675-6.136-7.743
	c1.753-4.382,6.282-7.742,12.417-7.742c6.136,0,12.711,3.36,12.711,8.472c0,2.629-3.652,4.382-5.992,5.99
	c0.439,0.146,0.731,0.146,0.877,0.146c5.697,1.022,18.699,15.776,18.699,22.35c0,2.192,12.27,24.834,17.675,43.094
	c0.146,0.438,0.292,0.876,0.439,1.314c3.798-6.135,8.474-12.417,12.855-17.968c-0.146-1.899,1.022-7.45,1.46-9.349
	c2.921-12.563,7.45-30.677,27.026-34.621c0.656-0.146,1.277-0.219,1.862-0.219c0.583,0,1.132,0.073,1.644,0.219
	c4.818-2.629,10.225-4.675,15.774-5.843l-4.089-18.991c-3.215,1.461-6.428,2.484-9.496,2.63c-0.039,0.004-0.078,0.005-0.118,0.005
	c-3.404,0-10.259-12.132-10.692-12.276c-0.399-0.15-0.82-0.206-1.243-0.206c-1.252,0-2.53,0.487-3.367,0.487
	c-0.539,0-0.893-0.202-0.942-0.866c-0.729-5.844-1.753-10.518-2.63-14.17c-1.897-8.911-4.964-11.979-4.964-17.091
	c0-10.372,7.887-20.159,18.843-24.395C116.755,21.328,125.228,14.608,135.6,14.608 M127.202,310.944
	c0.608,0,2.061-14.381,17.454-43.907c5.405-10.226,12.417-20.452,18.697-27.463c-5.696,11.249-11.102,30.239-14.462,52.005
	c-2.044,13.439-3.213,25.564-3.652,35.936c0-0.146,0-0.146-0.146-0.146c-0.437,46.454,3.069,85.457,1.024,114.527
	c-4.529,61.647-21.035,92.323-35.058,102.695h9.201c13.148-13.148,27.463-46.161,31.7-104.302
	c1.168-15.922-0.292-47.184-1.607-79.029c0-0.73,0-2.045-0.146-4.382c-0.146-3.944-0.292-7.889-0.439-11.979
	c-0.292-11.687,0.439-29.362,4.237-52.443c5.696-33.891,16.215-60.623,24.833-60.623c-1.314-2.045-2.628-3.36-4.237-3.652
	c-0.134-0.015-0.269-0.022-0.407-0.022c-1.205,0-2.502,0.564-3.684,1.483c-8.033,3.652-19.719,17.53-29.216,35.498
	c-13.146,24.395-16.798,39.296-14.169,45.723C127.151,310.916,127.176,310.944,127.202,310.944 M125.521,235.775
	c-6.138,3.068-13.733,11.541-19.869,20.452c-9.933,14.169-13,28.486-6.865,31.846c0.829,0.455,1.787,0.671,2.85,0.671
	c6.783,0,17.779-8.85,26.367-20.976l23.082-28.194c-13.296,5.405-23.667,22.205-29.362,28.486
	c-6.947,7.678-12.063,12.407-15.858,12.407c-0.754,0-1.457-0.187-2.11-0.574c-4.091-2.192-0.877-14.17,8.324-27.317
	C116.17,246.731,121.576,239.427,125.521,235.775 M179.57,544.59h8.181c-0.292-0.439-0.585-0.876-0.731-1.315
	c-17.385-41.925,0.439-131.618,5.403-159.958c3.652-22.205,1.024-25.71-0.291-26.149C190.234,369.586,163.792,501.935,179.57,544.59
	 M135.6,0c-14.328,0-26.75,7.834-32.205,19.491c-13.13,7.573-21.552,20.86-21.552,34.851c0,5.497,1.646,9.62,2.969,12.933
	c0.861,2.157,1.676,4.194,2.316,7.201c0.865,3.627,1.753,7.649,2.398,12.758c0.742,6.872,5.753,12.226,12.317,13.536
	c1.667,2.354,3.499,4.67,5.578,6.646c-21.934,6.427-29.211,25.938-32.62,39.019c-0.817-1.783-1.596-3.462-2.313-5.008
	c-1.284-2.768-2.345-4.995-2.937-6.429c-1.334-7.225-6.803-16.008-13.438-22.802c0.109-0.794,0.166-1.624,0.166-2.49
	c0-12.942-11.999-23.08-27.319-23.08c-11.669,0-21.868,6.643-25.98,16.925c-1.637,3.815-2.019,8.791,0.119,13.732
	c-1.63,4.982-3.368,12.98-3.046,19.448c1.147,16.07,18.522,21.658,30.85,25.232c1.393,8.327,3.443,20.22,6.42,30.107
	c4.428,14.505,10.004,26.933,15.815,35.313c2.866,6.104,7.447,10.676,13.062,12.988c2.809,1.105,5.555,1.621,8.381,1.621
	c0.439,0,0.876-0.012,1.309-0.036c-0.836,3.218-1.585,6.26-2.174,8.909c-4.519,19.525-3.857,34.826,2.126,47.872
	c0.342,3.402-0.128,12.69-0.448,18.975c-1.029,20.278-1.439,33.851,2.518,42.576c-0.26,3.302-0.453,6.816-0.453,10.318
	c0,15.23,2.744,25.566,5.4,35.562c0.719,2.7,1.453,5.462,2.151,8.41c0.15,1.083-0.703,3.27-1.211,4.576
	c-1.833,4.701-4.602,11.805-2.126,20.471c6.99,24.967,3.238,53.88,0.499,74.991c-0.74,5.698-1.4,10.792-1.812,15.364H66.357
	c-8.067,0-14.608,6.54-14.608,14.608v36.082c0,8.068,6.541,14.608,14.608,14.608h160.104c8.067,0,14.608-6.54,14.608-14.608V544.59
	c0-6.011-3.631-11.174-8.818-13.416c-2.384-7.656-5.353-22.638-4.915-51.956c0.262-13.695,0.424-28.26,0.478-42.25
	c3.171-0.493,6.17-2.023,8.406-4.337c4.611-4.769,4.428-10.176,4.267-14.947c-0.021-0.65-0.055-1.617-0.07-2.707
	c0.212,0.004,0.421,0.005,0.624,0.005c15.608,0,17.982-11.59,18.299-13.913c0.77-4.784-0.553-9.61-1.721-13.868
	c-0.118-0.425-0.237-0.841-0.348-1.24c6.823-6.881,5.485-15.45,1.295-20.473c-13.895-17.439-22.399-36.99-27.795-51.606
	c2.001-2.705,4.023-6.031,6.17-10.167c4.792-9.447,7.288-21.224,8.531-29.29c3.315-2.828,8.158-7.963,8.158-16.008
	c0-5.409-0.694-10.589-2.033-15.334c2.949-5.145,5.521-10.684,7.465-16.127c2.117-5.53,1.268-11.397,0.521-16.574
	c-0.521-3.597-1.059-7.317-0.462-9.982c2.159-9.403,1.947-15.168,1.034-19.643c0.114-0.13,0.228-0.26,0.341-0.391
	c3.506-4.078,9.373-10.903,7.443-20.285c-3.153-13.541-9.888-29.452-24.541-30.473c-0.337-0.023-0.943-0.05-1.282-0.05
	c-9.957-0.002-15.025,7.671-17.9,12.846c-2.489-14.74-9.073-26.824-18.454-32.666c-6.751-5.668-15.197-9.819-24.617-12.106
	c-1.525-1.676-5.792-7.411-10.507-22.97c2.279-4.233,4.344-9.156,5.212-14.185c1.188-6.28-0.824-14.223-4.032-25.6
	c-0.432-1.525-0.817-2.844-1.052-3.787C169.926,13.816,154.473,0,135.6,0L135.6,0z"/>
</svg>
