<?xml version="1.0" encoding="utf-8"?>
<!-- Generator: Adobe Illustrator 18.1.0, SVG Export Plug-In . SVG Version: 6.00 Build 0)  -->
<svg version="1.1" id="Слой_1" xmlns="http://www.w3.org/2000/svg" xmlns:xlink="http://www.w3.org/1999/xlink" x="0px" y="0px"
	 viewBox="0 0 314.79 314.135" enable-background="new 0 0 314.79 314.135" xml:space="preserve">
<path d="M308.577,278.361L187.279,157.063L308.567,35.775c8.186-8.186,8.181-21.456,0-29.637s-21.451-8.186-29.637,0
	L157.642,127.426L36.354,6.138c-8.181-8.181-21.451-8.186-29.636,0c-8.186,8.186-8.181,21.456,0,29.637l121.288,121.288
	L6.718,278.351c-8.186,8.185-8.181,21.455,0,29.636s21.451,8.186,29.636,0L157.642,186.7L278.94,307.998
	c8.181,8.181,21.451,8.185,29.636,0C316.763,299.812,316.758,286.542,308.577,278.361z"/>
</svg>
