<?xml version="1.0" encoding="utf-8"?>
<!-- Generator: Adobe Illustrator 18.1.0, SVG Export Plug-In . SVG Version: 6.00 Build 0)  -->
<svg version="1.1" id="Слой_1" xmlns="http://www.w3.org/2000/svg" xmlns:xlink="http://www.w3.org/1999/xlink" x="0px" y="0px"
	 viewBox="0 0 595.28 456.863" enable-background="new 0 0 595.28 456.863" xml:space="preserve">
<path fill="#C7362E" d="M155.578,416.713c1.525,0,3.075-0.096,4.638-0.293c15.898-2.003,28.735-14.841,30.74-30.739
	c2.743-21.768-14.153-40.306-35.378-40.305c-1.523,0-3.073,0.095-4.636,0.293c-15.898,2.002-28.735,14.84-30.738,30.738
	C117.458,398.176,134.353,416.713,155.578,416.713z M134.789,378.245c1.167-9.258,8.733-16.825,17.992-17.991
	c0.934-0.118,1.875-0.178,2.799-0.178c6.015,0,11.75,2.59,15.734,7.108c4.039,4.577,5.833,10.494,5.055,16.658
	c-1.167,9.258-8.733,16.826-17.99,17.993c-0.935,0.117-1.877,0.178-2.801,0.178c-6.017,0-11.752-2.591-15.736-7.109
	C135.807,390.326,134.011,384.41,134.789,378.245z"/>
<circle fill="#C7362E" cx="125.057" cy="124.119" r="6.57"/>
<circle fill="#C7362E" cx="177.998" cy="124.119" r="6.57"/>
<path fill="#C7362E" d="M132.696,171.177c6.094,2.987,12.721,4.489,19.356,4.489c5.767,0,11.536-1.133,16.972-3.406l2.373-0.991
	c1.871-0.782,2.758-2.934,1.974-4.807c-0.783-1.875-2.94-2.755-4.809-1.976l-2.373,0.993c-9.746,4.075-20.784,3.743-30.264-0.901
	c-1.824-0.893-4.022-0.136-4.916,1.683C130.119,168.084,130.872,170.286,132.696,171.177z"/>
<path fill="#C7362E" d="M104.992,108.097c0.905,0,1.813-0.332,2.521-1.001l1.131-1.066c4.337-4.089,10.223-6.106,16.17-5.542
	c2.085,0.188,3.817-1.289,4.009-3.309c0.195-2.02-1.285-3.815-3.306-4.009c-8.066-0.759-16.039,1.971-21.913,7.513l-1.131,1.066
	c-1.478,1.392-1.546,3.718-0.154,5.195C103.042,107.71,104.016,108.097,104.992,108.097z"/>
<path fill="#C7362E" d="M176.493,99.819l1.554,0.047c5.962,0.176,11.556,2.914,15.355,7.515c0.727,0.879,1.781,1.335,2.837,1.335
	c0.823,0,1.651-0.276,2.337-0.842c1.567-1.291,1.788-3.607,0.496-5.173c-5.147-6.234-12.729-9.945-20.804-10.181l-1.55-0.046
	c-1.942-0.099-3.727,1.532-3.787,3.562C172.87,98.064,174.466,99.758,176.493,99.819z"/>
<path fill="#C7362E" d="M212.35,244.793c-5.243-0.219-10.66-0.443-16.215-0.857v-31.949c9.349-10.264,14.466-23.614,14.466-37.881
	c0.092-1.321,1.544-5.703,2.416-7.551c2.196-2.624,3.009-6.772,3.973-13.703c2.042-14.751,5.292-28.656,9.657-41.335
	c2.925-8.258,4.42-17.044,4.42-26.049c0-8.218-1.332-16.298-4.073-24.699c-0.423-1.295-1.18-2.455-2.198-3.361
	c-2.435-2.169-5.613-4.326-9.098-6.391c0.564-0.448,1.071-0.981,1.499-1.589c1.832-2.599,1.877-6.055,0.113-8.7
	c-12.379-18.571-32.284-31.228-54.61-34.727c-0.394-0.062-0.793-0.093-1.191-0.093c-0.571,0-1.14,0.063-1.7,0.19
	c-4.713,1.067-11.243,3.421-17.032,5.512c-0.394-0.961-0.982-1.847-1.749-2.593c-1.452-1.416-3.387-2.186-5.372-2.186
	c-0.541,0-1.086,0.056-1.625,0.173c-36.865,7.963-63.623,40.897-63.623,78.31c0,9.102,1.495,17.94,4.443,26.266
	c4.595,13.337,7.841,27.216,9.625,41.188c1.091,7.877,1.961,11.644,4.065,14.024c0.791,1.651,2.113,5.897,2.181,7.365
	c0,14.032,5.141,27.393,14.536,37.867l-1.02,32.38c-8.034,1.708-29.139,1.862-37.688,1.924c-6.686,0.049-10.266,0.085-12.244,0.309
	c-54.809,6.036-54.546,49.952-54.268,96.446l0.045,11.379v29.392c0,10.182,8.284,18.466,18.467,18.466h34.316v23.698
	c0,17.056,13.876,30.931,30.931,30.931h143.575c17.055,0,30.931-13.875,30.931-30.931V402.32h17.851
	c10.181,0,18.466-8.284,18.466-18.466v-29.392C294.622,255.38,263.541,246.931,212.35,244.793z M125.419,33.549
	c2.557,2.141,5.942,3.455,9.533,3.455c3.661,0,6.907-1.174,14.714-4.007c3.8-1.45,8.844-3.247,12.366-4.283
	c3.385,0.691,6.701,1.658,9.808,2.901l-1.381,10.431c-1.52,11.122,6.979,15.06,15.266,18.928c5.25,2.418,15.266,7.046,21.208,10.915
	c1.105,4.491,1.657,9.05,1.657,13.539c0,6.424-1.035,12.712-3.107,18.79c-4.974,14.369-8.566,29.705-10.707,45.662
	c-0.415,2.694-0.691,4.214-0.83,5.043c-3.798,6.286-5.662,15.544-5.662,19.205c0,9.05-3.524,17.616-9.881,24.109l-1.728,1.727
	l-5.731,2.487c-12.851,5.595-27.563,5.595-40.412,0l-5.805-2.487l-1.657-1.727c-6.357-6.493-9.879-15.059-9.879-24.109
	c0-3.661-1.933-12.918-5.664-19.205c-0.207-0.898-0.552-2.625-0.898-5.733c-1.865-14.092-5.32-28.737-10.985-45.938
	c-1.863-5.734-2.831-11.743-2.831-17.823C92.884,63.185,105.939,43.152,125.419,33.549z M185.106,43.98
	c-0.038,0.021,0.111,0.106,0.12,0.143C185.238,44.093,185.039,43.991,185.106,43.98L185.106,43.98z M185.572,44.522
	c2.459,1.468,11.793,5.414,20.566,10.024C197.264,49.892,187.886,45.918,185.572,44.522z M205.991,163.476
	c-0.567,1.24-1.189,2.93-1.77,4.743C204.796,166.395,205.413,164.711,205.991,163.476z M181.306,262.205l-2.168,5.913
	c-1.64,13.553-13.05,12.35-26.701,12.528c-0.239,0.003-0.479,0.006-0.719,0.009c-13.72,0.181-25.442,1.619-27.373-11.966
	l-2.863-8.143c3.178-2.763,4.905-6.563,4.974-11.675l1.176-38.823l0.068-0.829c7.322,3.178,15.197,4.767,23.004,4.767
	c7.875,0,15.749-1.588,23.072-4.767v37.718C173.775,253.154,176.676,258.681,181.306,262.205z M75.545,332.459
	c0-0.69,0.552-1.243,1.242-1.243h39.721c3.039,0,5.872-1.727,7.255-4.491l7.183-14.438c0.139-0.208,0.415-0.414,0.691-0.414h47.804
	c0.276,0,0.552,0.207,0.691,0.414l7.183,14.438c1.383,2.763,4.146,4.491,7.183,4.491h39.79c0.691,0,1.244,0.552,1.244,1.243v95.814
	c-0.483,1.658-1.45,3.109-2.694,4.214H78.376c-1.452-1.175-2.418-2.763-2.831-4.629V332.459z M192.459,204.089
	c3.539-4.537,6.237-9.67,8.002-15.283C198.708,194.431,196.013,199.568,192.459,204.089z M219.372,109.013
	c-4.769,13.85-8,28.315-10.003,42.781c-0.62,4.457-1.244,7.722-1.94,9.186c0.663-1.485,1.315-4.683,1.924-9.165
	c1.933-14.508,5.183-28.945,10.018-42.83c2.555-7.391,3.935-15.266,3.935-23.556c0-5.066-0.719-9.925-1.73-14.681
	c1.044,4.759,1.798,9.615,1.798,14.723C223.373,93.779,221.988,101.627,219.372,109.013z M204.667,43.845
	c2.079,0.291,4.153,0.618,6.201,1.102c0.011,0.018,0.03,0.032,0.041,0.051C208.86,44.485,206.769,44.143,204.667,43.845z
	 M194.972,43.201c0.207-0.002,0.425-0.05,0.633-0.05c0,0,0.021,0.002,0.032,0.002C195.415,43.153,195.19,43.199,194.972,43.201z
	 M161.51,13.604c20.278,3.178,37.662,14.457,48.771,30.635c-11.149-16.106-28.536-27.525-48.803-30.586
	c-8.081,1.727-24.176,8.635-26.526,8.635c-0.068,0-0.085-0.043-0.135-0.068h0.071C137.351,22.221,153.356,15.45,161.51,13.604z
	 M134.736,22.181c-0.011-0.014-0.06-0.015-0.06-0.03c0-0.76,0.415-4.352,0.898-7.598c0.028-0.007,0.054-0.019,0.083-0.025
	C135.048,17.728,134.742,21.365,134.736,22.181z M102.719,31.362c-15.013,13.365-24.55,32.751-24.55,53.997
	c-0.058,7.108,1.182,13.929,3.096,20.413c-1.948-6.489-3.161-13.318-3.161-20.457C78.104,64.127,87.661,44.74,102.719,31.362z
	 M92.11,151.794c-0.564-4.4-1.535-8.772-2.378-13.155c0.842,4.386,1.801,8.754,2.391,13.176c0.761,5.595,1.52,9.326,2.35,10.016
	c0.192,0.155,0.481,0.753,0.755,1.283c-0.291-0.55-0.594-1.154-0.812-1.318C93.646,161.181,92.878,157.334,92.11,151.794z
	 M98.418,174.107c0-1.595-0.68-4.388-1.51-6.92c0.855,2.548,1.57,5.365,1.57,6.941c0,13.401,5.388,25.49,14.092,34.402
	c0.03,0.071,0.058,0.144,0.086,0.215c-0.026-0.055-0.056-0.111-0.083-0.166C103.803,199.652,98.418,187.495,98.418,174.107z
	 M46.124,255.76c-30.266,6.804-36.813,29.056-38.113,59.551C9.308,284.803,15.845,262.528,46.124,255.76z M7.895,318.026
	c0.009-0.29,0.009-0.597,0.019-0.887C7.905,317.429,7.905,317.736,7.895,318.026z M227.374,449.255H83.799
	c-12.774,0-23.237-10.464-23.237-23.237V394.7h0.06v31.362c0,12.711,10.362,23.141,23.211,23.141h143.549
	c12.779,0,23.212-10.43,23.212-23.141V394.7h0.017v31.317C250.611,438.79,240.146,449.255,227.374,449.255z"/>
<linearGradient id="SVGID_1_" gradientUnits="userSpaceOnUse" x1="442.0453" y1="131.4662" x2="550.8531" y2="22.6584">
	<stop  offset="0" style="stop-color:#C7362E"/>
	<stop  offset="1" style="stop-color:#E7B141"/>
</linearGradient>
<path fill="url(#SVGID_1_)" d="M550.837,22.643C536.923,8.728,517.671,0.087,496.449,0.087c-21.22,0-40.472,8.641-54.388,22.556
	c-13.978,13.915-22.554,33.166-22.554,54.388c0,21.285,8.577,40.537,22.554,54.451c0.003,0.003,0.006,0.005,0.006,0.005
	l54.382,54.383l54.388-54.388c13.978-13.915,22.556-33.167,22.556-54.451C573.393,55.809,564.815,36.557,550.837,22.643z
	 M470.411,50.991c6.662-6.662,15.879-10.799,26.038-10.799c10.16,0,19.378,4.137,26.039,10.799
	c6.692,6.662,10.799,15.879,10.799,26.039c0,10.191-4.107,19.408-10.799,26.069c-6.662,6.662-15.879,10.768-26.039,10.768
	c-10.16,0-19.376-4.107-26.038-10.768c-6.693-6.662-10.799-15.879-10.799-26.069C459.612,66.87,463.718,57.653,470.411,50.991z"/>
<path fill="#C20B19" d="M589.948,143.463l-7.72-4.293c-4.164-2.316-9.38-1.458-12.563,2.088l-0.191,0.213
	c-4.396,4.893-3.107,12.603,2.642,15.8l2.43,1.351v153.162l-67.712-37.649v-63.149l0-6.44c-6.643,2.704-14.077,2.489-20.728-0.194
	c0,0-58.264-57.959-62.645-62.844l-0.207-0.23c-3.182-3.552-8.401-4.413-12.569-2.096l-2.665,1.482l-83.411-46.381
	c-3.206-1.779-7.128-1.738-10.293,0.125c-3.166,1.863-5.109,5.261-5.109,8.936v176.878c0,3.766,2.041,7.236,5.332,9.066
	l88.213,49.054c0.004,0.002,0.007,0.006,0.011,0.008c0.005,0.003,0.012,0.004,0.017,0.007l0.205,0.114
	c0.476,0.267,0.99,0.413,1.492,0.598c0.304,0.111,0.589,0.278,0.9,0.361c0.867,0.229,1.754,0.351,2.643,0.351
	s1.776-0.121,2.643-0.351c0.311-0.082,0.596-0.25,0.9-0.361c0.502-0.185,1.016-0.332,1.492-0.598l0.205-0.114
	c0.005-0.003,0.012-0.004,0.017-0.007c0.004-0.002,0.007-0.006,0.011-0.008l83.178-46.255l83.411,46.384
	c1.566,0.877,3.301,1.309,5.035,1.309c1.816,0,3.638-0.479,5.258-1.431c3.166-1.863,5.109-5.265,5.109-8.936V152.529
	C595.28,148.763,593.239,145.293,589.948,143.463z M397.652,311.784l-67.712-37.649V120.97l67.712,37.653V311.784z"/>
</svg>
