<?xml version="1.0" encoding="utf-8"?>
<!-- Generator: Adobe Illustrator 18.1.0, SVG Export Plug-In . SVG Version: 6.00 Build 0)  -->
<svg version="1.1" id="Слой_1" xmlns="http://www.w3.org/2000/svg" xmlns:xlink="http://www.w3.org/1999/xlink" x="0px" y="0px"
	 viewBox="0 0 623.62 302.675" enable-background="new 0 0 623.62 302.675" xml:space="preserve">
<g>
	<linearGradient id="SVGID_1_" gradientUnits="userSpaceOnUse" x1="209.1593" y1="335.829" x2="209.1593" y2="-34.7251">
		<stop  offset="0.0722" style="stop-color:#C20B19"/>
		<stop  offset="0.2821" style="stop-color:#C31A1A"/>
		<stop  offset="0.5225" style="stop-color:#C52E1B"/>
		<stop  offset="0.7769" style="stop-color:#C9451D"/>
		<stop  offset="0.9072" style="stop-color:#CC541F"/>
	</linearGradient>
	<path fill="url(#SVGID_1_)" d="M252.346,194.646c-20.929-38.687-61.519-55.811-61.519-55.811s1.269-6.976,34.882,14.587
		c24.47,15.697,48.232,35.117,63.527,60.656c8.732-19.128,13.636-40.37,13.636-62.77C302.872,68.499,236.366,1.263,153.858,0
		c-45.767,34.95-53.811,98.199-6.792,131.224c53.274,37.419,60.251,74.203,42.493,115.428
		c-10.864,25.22-37.626,44.025-56.772,54.829c6.138,0.758,12.376,1.193,18.719,1.193c3.404,0,6.77-0.153,10.117-0.374
		c29.598-21.222,47.004-48.859,55.207-78.481c11.416-41.224-47.566-85.619-47.566-85.619s2.537-4.44,12.05,1.269
		c9.513,5.708,64.69,46.932,63.422,93.23c-0.568,20.739-7.881,37.004-15.782,48.66c13.906-8.299,26.35-18.774,36.905-30.941
		C264.821,232.132,261.379,211.343,252.346,194.646z"/>
	<linearGradient id="SVGID_2_" gradientUnits="userSpaceOnUse" x1="89.8098" y1="324.032" x2="89.8098" y2="-26.955">
		<stop  offset="0.0722" style="stop-color:#C20B19"/>
		<stop  offset="0.2821" style="stop-color:#C31A1A"/>
		<stop  offset="0.5225" style="stop-color:#C52E1B"/>
		<stop  offset="0.7769" style="stop-color:#C9451D"/>
		<stop  offset="0.9072" style="stop-color:#CC541F"/>
	</linearGradient>
	<path fill="url(#SVGID_2_)" d="M176.875,208.599c17.758-56.445-60.251-75.472-82.448-126.21
		c-12.798-29.253,0.965-57.64,14.918-76.453c-10.33,2.991-20.216,7.022-29.508,12.027C55.171,97.497,123.6,131.224,123.6,131.224
		c2.537,0.634-6.342,0-6.342,0c-54.205-24.299-68.8-66.464-72.736-86.995c-5.187,5.182-9.998,10.74-14.392,16.627
		c20.864,43.293,74.444,71.637,74.444,71.637l-7.611,0.634c-30.89-10.297-59.699-34.333-78.916-53.265
		C6.629,101.145,0.139,125.466,0.139,151.308c0,64.48,40.335,119.508,97.137,141.32C125.613,274.694,165.728,244.03,176.875,208.599
		z"/>
</g>
<g>
	<path fill="#1E1C31" d="M471.105,45.431l14.247,3.454c-1.509,3.526-3.058,6.906-4.642,10.144h34.864v13.169h-41.877
		c-2.662,4.459-5.434,8.525-8.311,12.194h42.093v12.52c-15.47,11.728-25.977,21.082-31.516,28.062
		c-2.662,2.95-4.03,5.72-4.101,8.309c0,2.95,2.913,4.426,8.742,4.426h10.362c6.978,0,10.683-2.88,11.114-8.635
		c0.867-5.828,1.439-10.577,1.729-14.247c5.394,2.015,10.001,3.489,13.815,4.424c-0.937,7.053-2.16,13.276-3.669,18.673
		c-2.015,8.058-8.782,12.086-20.292,12.086h-13.169c-14.819,0-22.232-5.504-22.232-16.513c0-4.244,1.549-8.489,4.642-12.735
		c4.677-6.547,12.773-14.282,24.283-23.205h-26.874V84.392h3.133c-2.446-2.231-4.932-4.351-7.449-6.367v39.392h-14.031v6.477h14.462
		v12.951h-14.462v15.65h-14.031v-15.65h-16.297v-12.951h16.297v-6.477h-14.027V72.413h14.027v-6.261h-16.403V53.201h16.403v-7.339
		h14.031v7.339h16.191v12.951h-16.191v6.261h14.031C460.963,64.856,465.996,55.863,471.105,45.431z M444.125,83.421h-18.347v6.474
		h18.347V83.421z M444.125,106.516v-6.582h-18.347v6.582H444.125z"/>
	<path fill="#1E1C31" d="M522.908,141.052l-2.807-16.079c4.03-1.08,7.99-2.123,11.875-3.13V84.068h-10.687V70.471h10.687V46.078
		h13.811v24.393h10.362v13.598h-10.362v33.997c3.815-1.08,7.484-2.158,11.013-3.238c-0.436,7.266-0.576,12.339-0.436,15.217
		C544.925,133.714,533.771,137.383,522.908,141.052z M584.426,152.061v-27.736H572.23v5.181h-13.164v-67.13h25.361V45.647h13.6
		v16.728h25.361v66.915h-13.164v-4.965h-12.196v27.736H584.426z M572.23,87.414h12.196v-12.52H572.23V87.414z M572.23,111.805
		h12.196v-12.52H572.23V111.805z M610.222,74.895h-12.196v12.52h12.196V74.895z M598.026,111.805h12.196v-12.52h-12.196V111.805z"/>
</g>
<g>
	<path fill="#C7362E" d="M423.342,258.829c-0.466-3.022-1.023-5.905-1.674-8.648c-1.208,3.835-2.698,7.207-4.463,10.112
		c-2.092-4.185-3.997-7.602-5.717-10.252c1.464-3.022,2.638-6.323,3.52-9.902c0.884-3.579,1.458-7.119,1.726-10.618
		c0.267-3.497,0.426-9.836,0.472-19.019h-4.881v-8.37h9.134c-1.092-2.974-2.254-5.811-3.485-8.506l9.552-2.86
		c2.047,4.324,3.488,7.647,4.324,9.973l-4.358,1.393h10.914v5.265c3.767-5.276,6.996-10.797,9.694-16.56l8.785,1.393
		c-0.674,1.652-1.359,3.255-2.055,4.813h25.487v8.506h-29.706c-1.581,2.908-3.232,5.603-4.952,8.091
		c10.089-0.861,19.596-2.442,28.523-4.742l4.114,8.159c-4.418,0.859-8.787,1.626-13.111,2.3c0.395,3.767,1.058,7.264,1.99,10.496
		c2.834-2.115,5.566-4.313,8.193-6.59l5.717,6.695c-3.323,2.51-6.962,5.055-10.914,7.636c2.721,5.461,6.499,9.959,11.332,13.492
		c-2.65,2.326-5.276,4.765-7.878,7.323c-4.463-3.974-8.02-8.748-10.669-14.314c-2.652-5.566-4.512-13.453-5.581-23.659l-5.021,0.594
		v25.384c3.767-1.581,6.996-2.999,9.694-4.256c0,3.255,0.139,6.439,0.418,9.555c-8.833,3.44-14.436,6.138-16.807,8.088l-5.439-7.599
		c1.999-1.163,3.022-2.905,3.068-5.231v-30.266c-2.348-2.115-4.753-4.185-7.218-6.206h-10.354l-0.071,7.67h13.39
		c0,4.881-0.094,10.658-0.279,17.33l-0.279,8.961c0,3.858-0.495,6.874-1.484,9.049c-0.986,2.172-2.294,3.602-3.92,4.287
		C431.441,258.485,428.197,258.829,423.342,258.829z M421.912,249.345l4.708,0.21c1.834,0,2.874-1.274,3.119-3.818
		c0.244-2.547,0.461-9.038,0.645-19.474h-4.949C425.013,235.213,423.839,242.906,421.912,249.345z"/>
	<path fill="#C7362E" d="M501.723,209.106l8.159,5.231c-2.047,2.999-4.276,5.939-6.695,8.822v36.159h-9.691v-25.697
		c-2.141,2.067-4.372,4.102-6.695,6.101c-0.93-2.604-2.209-5.834-3.835-9.694C490.124,223.844,496.376,216.87,501.723,209.106z
		 M500.609,190.977c2.974,2.044,5.763,4.043,8.367,5.996c-4.881,5.672-11.366,11.738-19.457,18.2
		c-1.72-2.601-3.787-5.345-6.206-8.227C491.125,200.996,496.888,195.671,500.609,190.977z M510.861,215.872h41.632v9.066h-10.88
		v22.453c0,3.719-0.867,6.561-2.598,8.526c-1.731,1.964-4.182,3.05-7.357,3.261c-3.173,0.208-7.872,0.347-14.104,0.418
		c-0.651-3.068-1.51-6.323-2.578-9.763c4.833,0.324,8.645,0.486,11.437,0.486c3.392,0,5.089-1.788,5.089-5.367v-20.014h-20.64
		V215.872z M513.16,195.927h36.261v9.066H513.16V195.927z"/>
	<path fill="#C7362E" d="M569.507,190.838c1.999,2.416,4.253,5.484,6.763,9.202l-7.147,3.838h10.564v7.738
		c-1.928,4.256-4.159,8.313-6.692,12.17v2.999l3.835-3.383c2.695,2.416,5.649,5.299,8.856,8.648l-6.903,5.646
		c-2.163-2.812-4.094-5.205-5.788-7.181v29.219h-9.484v-23.849c-1.979,2.115-4.068,4.159-6.277,6.135
		c-0.978-4.463-1.908-8.25-2.789-11.366c6.183-5.393,10.925-11.249,14.226-17.572H555.42v-9.205h11.821
		c-2.209-3.556-4.196-6.533-5.962-8.927L569.507,190.838z M578.294,248.37h18.55v-28.523h-13.947v-9.066h13.947v-18.9h10.041v18.9
		h14.365v9.066h-14.365v28.523h16.875v9.063h-45.467V248.37z"/>
</g>
</svg>
