<?xml version="1.0" encoding="utf-8"?>
<!-- Generator: Adobe Illustrator 18.1.0, SVG Export Plug-In . SVG Version: 6.00 Build 0)  -->
<svg version="1.1" id="Слой_1" xmlns="http://www.w3.org/2000/svg" xmlns:xlink="http://www.w3.org/1999/xlink" x="0px" y="0px"
	 viewBox="0 0 337.139 321.112" enable-background="new 0 0 337.139 321.112" xml:space="preserve">
<g>
	<path d="M316.573,41.131H20.566C9.207,41.131,0,31.921,0,20.565C0,9.207,9.207,0,20.566,0h296.007
		c11.359,0,20.565,9.207,20.565,20.565C337.138,31.921,327.932,41.131,316.573,41.131z"/>
</g>
<g>
	<path d="M316.573,321.111H20.566C9.207,321.111,0,311.902,0,300.546c0-11.356,9.207-20.565,20.565-20.565h296.007
		c11.359,0,20.565,9.21,20.565,20.565C337.138,311.902,327.932,321.111,316.573,321.111z"/>
</g>
<g>
	<path d="M316.573,181.927H20.566C9.207,181.927,0,172.718,0,161.362s9.207-20.565,20.565-20.565h296.007
		c11.359,0,20.565,9.21,20.565,20.565S327.932,181.927,316.573,181.927z"/>
</g>
</svg>
