<?xml version="1.0" encoding="utf-8"?>
<!-- Generator: Adobe Illustrator 18.1.0, SVG Export Plug-In . SVG Version: 6.00 Build 0)  -->
<svg version="1.1" id="Слой_1" xmlns="http://www.w3.org/2000/svg" xmlns:xlink="http://www.w3.org/1999/xlink" x="0px" y="0px"
	 viewBox="0 0 520.208 321.112" enable-background="new 0 0 520.208 321.112" xml:space="preserve">
<path d="M436.507,3.112l-0.09-0.03c-5.133-4.316-12.893-4.105-17.841,0.673L302.951,115.427c-4.916,4.747-5.34,12.441-1.176,17.693
	l-0.029,0.146l0.114-0.058l0.793,0.997l79.15,81.952c5.031,5.209,13.538,5.359,18.749,0.326l115.625-111.672
	c5.238-5.059,5.418-13.599,0.387-18.808l-79.15-81.952l-0.913-0.882L436.507,3.112z M413.496,34.662l-8.977,70.174l-70.5,6.586
	L413.496,34.662z M499.241,95.111L391.505,199.163l-65.843-68.174l88.038-8.224l5.657-2.566l2.763-5.566l11.278-87.696
	L499.241,95.111z"/>
<g>
	<g>
		<path d="M298.93,125.257c0,0-49.692,7.631-33.29,37.377c5.258,9.536,10.454,32.736-3.384,57.53
			c-7.895,14.193-21.511,23.907-40.45,28.874c-1.552,0.443-41.87,12.641-71.587,10.823c-3.859,0.62-40.583,7.939-73.76,59.256
			c-0.843,1.286-2.262,1.996-3.726,1.996c-0.577,0-1.109-0.089-1.685-0.31c-2.573-1.064-25.104-10.645-27.144-23.818
			c-0.399-2.35-0.222-5.544,1.818-8.915c-11.798-6.387-32.999-19.604-32.289-31.668c0.177-2.75,1.464-6.298,6.076-9.226
			c-8.871-13.35-23.108-37.08-18.673-46.216c1.286-2.662,3.77-4.258,7.008-4.435c0.843-0.044,1.73,0.178,2.528,0.62
			c0.665,0.4,64.712,37.258,125.92,8.694c-20.846-9.492-70.567-36.415-68.039-76.421c-3.149-8.738-23.773-70.256,8.472-107.292
			c1.064-1.242,2.75-1.774,4.391-1.419c1.597,0.399,2.883,1.685,3.282,3.282c0.089,0.488,12.552,49.809,50.873,60.765
			c0.178,0.044,0.399,0.133,0.577,0.221c2.395,1.064,53.89,24.439,79.482,57.305c3.016-10.512,9.27-26.302,20.669-32.512
			c6.343-3.504,13.395-3.637,20.891-0.443c1.641,0.532,9.802,3.637,14.947,11.487C271.836,120.812,299.196,123.483,298.93,125.257z"
			/>
	</g>
</g>
</svg>
